<svg width="72" height="59" viewBox="0 0 72 59" fill="none" xmlns="http://www.w3.org/2000/svg">
<path d="M11.3614 58.3234V45.7908C7.76361 43.2649 4.97061 40.3139 2.98236 36.9378C0.994121 33.5618 0 30.0036 0 26.2633C0 18.9769 3.31374 12.7834 9.94121 7.68294C16.5687 2.58247 24.6163 0.0322266 34.0842 0.0322266C41.974 0.0322266 48.9644 1.81739 55.0554 5.38773C61.1463 8.95806 65.1071 13.6092 66.9375 19.3412L71.8608 34.2783C72.1764 35.2012 71.9554 36.0392 71.198 36.7921C70.4406 37.545 69.4307 37.9215 68.1683 37.9215H60.5941V46.6652C60.5941 48.2682 59.8524 49.6404 58.3691 50.782C56.8858 51.9235 55.1027 52.4943 53.0198 52.4943H45.4455V58.3234H37.8713V46.6652H53.0198V32.0924H63.245L59.6473 20.7985C58.1955 16.378 55.1027 12.7834 50.3688 10.0146C45.6349 7.24576 40.2067 5.86134 34.0842 5.86134C26.7624 5.86134 20.5136 7.82867 15.3379 11.7633C10.1621 15.698 7.57426 20.4827 7.57426 26.1175C7.57426 29.0321 8.34746 31.8009 9.89387 34.424C11.4403 37.0471 13.6337 39.3788 16.474 41.419L18.9356 43.1677V58.3234H11.3614ZM34.0842 40.8361C35.1572 40.8361 36.0566 40.5567 36.7825 39.9981C37.5084 39.4395 37.8713 38.7473 37.8713 37.9215C37.8713 37.0957 37.5084 36.4035 36.7825 35.8449C36.0566 35.2862 35.1572 35.0069 34.0842 35.0069C33.0111 35.0069 32.1117 35.2862 31.3858 35.8449C30.66 36.4035 30.297 37.0957 30.297 37.9215C30.297 38.7473 30.66 39.4395 31.3858 39.9981C32.1117 40.5567 33.0111 40.8361 34.0842 40.8361ZM31.2438 31.5095H37.0192C37.0192 30.2951 37.2243 29.3114 37.6346 28.5585C38.0449 27.8055 38.8812 26.8947 40.1436 25.8261C41.2797 24.8546 42.3843 23.8709 43.4573 22.8751C44.5303 21.8793 45.0668 20.5799 45.0668 18.9769C45.0668 16.9367 44.0411 15.2122 41.9898 13.8035C39.9384 12.3948 37.3979 11.6905 34.3682 11.6905C31.8434 11.6905 29.5554 12.2491 27.504 13.3663C25.4527 14.4836 24.0167 15.9409 23.1962 17.7382L28.4035 19.414C28.8453 18.3454 29.6185 17.4831 30.7231 16.8274C31.8277 16.1716 33.0427 15.8437 34.3682 15.8437C35.7568 15.8437 36.9087 16.1352 37.8239 16.7181C38.7392 17.301 39.1968 18.0539 39.1968 18.9769C39.1968 19.997 38.8023 20.9078 38.0133 21.7093C37.2243 22.5108 36.2933 23.3244 35.2203 24.1502C33.9579 25.1703 32.9796 26.1904 32.2853 27.2105C31.591 28.2306 31.2438 29.6636 31.2438 31.5095Z" fill="#28609D"/>
</svg>
