<svg width="33" height="51" viewBox="0 0 33 51" fill="none" xmlns="http://www.w3.org/2000/svg">
<path d="M23.8134 0.886108C23.7964 1.42338 23.7524 4.33232 21.5005 6.51243C19.0431 8.88514 15.9159 8.53718 15.4454 8.49175C16.306 8.64628 19.6201 9.85028 22.0005 12.6466C24.3299 15.3794 23.9615 17.8741 24.0005 18.7807C23.9451 18.1179 23.6106 14.7097 26.0005 12.1354C28.1845 9.30417 31.4225 8.96567 32.0482 8.87741C31.5575 8.8861 28.1715 8.91243 25.7728 6.12145C23.9611 4.01083 23.8252 1.58974 23.8134 0.886108Z" fill="#EECD7B"/>
<path d="M2.84996 11.4567C2.49149 11.4567 2.20471 11.5667 1.98962 11.7866C1.77454 12.0064 1.66699 12.2996 1.66699 12.6661V13.5457C1.66699 13.9122 1.77454 14.2054 1.98962 14.4253C2.20471 14.6452 2.49149 14.7551 2.84996 14.7551H18.4437C18.139 13.6679 17.7686 12.5684 17.5057 11.4567H2.84996Z" fill="#00233D"/>
<path d="M22.6916 21.2115V35.8711C22.6916 39.2062 21.873 41.9304 20.2479 44.0378C18.6169 46.1451 16.2211 47.1957 13.0665 47.1957C11.4175 47.1957 9.882 46.933 8.47199 46.4016C7.05601 45.8702 5.89096 45.0212 4.97685 43.8423C4.06273 42.6695 3.53099 41.1303 3.39358 39.2245C3.35773 38.8947 3.23824 38.6198 3.04108 38.3999C2.84391 38.18 2.56311 38.0701 2.2106 38.0701H1.13518C0.776699 38.0701 0.495892 38.1922 0.29873 38.4244C0.0955937 38.6626 0 38.9435 0 39.2734C0.0716953 41.2158 0.460045 42.8955 1.15907 44.3065C1.8581 45.7175 2.80807 46.8842 4.00896 47.7943C5.20986 48.7105 6.57804 49.3885 8.12547 49.8283C9.66691 50.2681 11.3159 50.488 13.0724 50.488C15.9044 50.488 18.2763 49.8772 20.2001 48.6433C22.118 47.4156 23.5758 45.7053 24.5795 43.5002C25.5833 41.3013 26.0851 38.7725 26.0851 35.9139V21.0588C24.95 20.9855 23.8208 21.0955 22.6916 21.2115Z" fill="#00233D"/>
</svg>
