<svg width="430" height="617" viewBox="0 0 430 617" fill="none" xmlns="http://www.w3.org/2000/svg">
<g clip-path="url(#clip0_383_110)">
<rect width="430" height="4881" transform="translate(0 -3909)" fill="#F0F2F3"/>
<rect x="132" y="384" width="169.212" height="47.2698" rx="23.6349" fill="#3ACA62"/>
<path d="M184.356 407.125L184.964 411.157L187.14 402.821H188.868L191.028 411.093L191.7 407.125L192.532 402.821H194.484L192.036 413.701H190.068L187.972 405.605L185.86 413.701H183.892L181.444 402.821H183.524L184.356 407.125ZM200.135 407.141C199.868 407.141 199.564 407.205 199.223 407.333C198.881 407.461 198.476 407.712 198.007 408.085V413.701H196.167V401.861H198.007V406.597C198.497 406.181 198.956 405.883 199.383 405.701C199.809 405.52 200.247 405.429 200.695 405.429C201.473 405.429 202.065 405.68 202.471 406.181C202.876 406.672 203.079 407.365 203.079 408.261V413.701H201.239V408.485C201.239 407.589 200.871 407.141 200.135 407.141ZM211.654 413.781C211.11 413.781 210.673 413.669 210.342 413.445C210.022 413.221 209.788 412.944 209.638 412.613C209.18 413.04 208.737 413.355 208.31 413.557C207.884 413.76 207.425 413.861 206.934 413.861C206.22 413.861 205.692 413.632 205.35 413.173C205.02 412.715 204.854 412.133 204.854 411.429C204.854 410.96 204.94 410.549 205.11 410.197C205.292 409.835 205.585 409.552 205.99 409.349C206.396 409.147 206.95 409.045 207.654 409.045C207.932 409.045 208.22 409.067 208.518 409.109C208.817 409.141 209.116 409.184 209.414 409.237V408.293C209.414 407.845 209.292 407.541 209.046 407.381C208.801 407.211 208.47 407.125 208.054 407.125C207.734 407.125 207.382 407.168 206.998 407.253C206.625 407.339 206.22 407.472 205.782 407.653L205.254 406.085C206.332 405.648 207.308 405.429 208.182 405.429C208.972 405.429 209.58 405.563 210.006 405.829C210.444 406.096 210.748 406.448 210.918 406.885C211.089 407.323 211.174 407.792 211.174 408.293V411.413C211.174 411.573 211.217 411.728 211.302 411.877C211.398 412.016 211.58 412.085 211.846 412.085H212.022V413.781H211.654ZM206.63 411.397C206.63 411.685 206.694 411.915 206.822 412.085C206.95 412.245 207.137 412.325 207.382 412.325C207.628 412.325 207.905 412.261 208.214 412.133C208.524 412.005 208.924 411.707 209.414 411.237V410.549C208.86 410.453 208.316 410.405 207.782 410.405C207.366 410.405 207.068 410.491 206.886 410.661C206.716 410.832 206.63 411.077 206.63 411.397ZM218.5 413.429C218.222 413.557 217.902 413.659 217.54 413.733C217.177 413.819 216.809 413.861 216.436 413.861C215.817 413.861 215.321 413.733 214.948 413.477C214.574 413.221 214.302 412.864 214.132 412.405C213.972 411.947 213.892 411.424 213.892 410.837V407.189H212.58V405.589H213.892V403.477H215.732V405.589H218.26V407.189H215.732V410.837C215.732 411.328 215.822 411.669 216.004 411.861C216.196 412.043 216.468 412.133 216.82 412.133C216.99 412.133 217.172 412.117 217.364 412.085C217.566 412.043 217.79 411.973 218.036 411.877L218.5 413.429ZM222.251 412.261C222.646 412.261 222.971 412.197 223.227 412.069C223.483 411.931 223.611 411.728 223.611 411.461C223.611 411.227 223.526 411.045 223.355 410.917C223.195 410.779 222.902 410.656 222.475 410.549L221.563 410.309C220.859 410.128 220.337 409.824 219.995 409.397C219.665 408.971 219.499 408.464 219.499 407.877C219.499 407.184 219.739 406.603 220.219 406.133C220.699 405.664 221.441 405.429 222.443 405.429C222.849 405.429 223.275 405.477 223.723 405.573C224.171 405.669 224.641 405.824 225.131 406.037L224.603 407.605C224.155 407.392 223.75 407.243 223.387 407.157C223.025 407.072 222.705 407.029 222.427 407.029C221.67 407.029 221.291 407.285 221.291 407.797C221.291 408 221.355 408.16 221.483 408.277C221.622 408.395 221.873 408.501 222.235 408.597L223.147 408.837C223.926 409.04 224.491 409.349 224.843 409.765C225.206 410.181 225.387 410.704 225.387 411.333C225.387 412.08 225.131 412.688 224.619 413.157C224.118 413.627 223.323 413.861 222.235 413.861C221.307 413.861 220.331 413.648 219.307 413.221L219.803 411.701C220.305 411.904 220.758 412.048 221.163 412.133C221.569 412.219 221.931 412.261 222.251 412.261ZM233.42 413.781C232.876 413.781 232.439 413.669 232.108 413.445C231.788 413.221 231.553 412.944 231.404 412.613C230.945 413.04 230.503 413.355 230.076 413.557C229.649 413.76 229.191 413.861 228.7 413.861C227.985 413.861 227.457 413.632 227.116 413.173C226.785 412.715 226.62 412.133 226.62 411.429C226.62 410.96 226.705 410.549 226.876 410.197C227.057 409.835 227.351 409.552 227.756 409.349C228.161 409.147 228.716 409.045 229.42 409.045C229.697 409.045 229.985 409.067 230.284 409.109C230.583 409.141 230.881 409.184 231.18 409.237V408.293C231.18 407.845 231.057 407.541 230.812 407.381C230.567 407.211 230.236 407.125 229.82 407.125C229.5 407.125 229.148 407.168 228.764 407.253C228.391 407.339 227.985 407.472 227.548 407.653L227.02 406.085C228.097 405.648 229.073 405.429 229.948 405.429C230.737 405.429 231.345 405.563 231.772 405.829C232.209 406.096 232.513 406.448 232.684 406.885C232.855 407.323 232.94 407.792 232.94 408.293V411.413C232.94 411.573 232.983 411.728 233.068 411.877C233.164 412.016 233.345 412.085 233.612 412.085H233.788V413.781H233.42ZM228.396 411.397C228.396 411.685 228.46 411.915 228.588 412.085C228.716 412.245 228.903 412.325 229.148 412.325C229.393 412.325 229.671 412.261 229.98 412.133C230.289 412.005 230.689 411.707 231.18 411.237V410.549C230.625 410.453 230.081 410.405 229.548 410.405C229.132 410.405 228.833 410.491 228.652 410.661C228.481 410.832 228.396 411.077 228.396 411.397ZM238.857 413.861C238.591 413.861 238.319 413.835 238.041 413.781C237.775 413.728 237.503 413.653 237.225 413.557V417.109H235.385V405.589H237.129V406.693C237.631 406.192 238.057 405.856 238.409 405.685C238.761 405.515 239.129 405.429 239.513 405.429C240.399 405.429 241.081 405.76 241.561 406.421C242.041 407.083 242.281 408.011 242.281 409.205V410.069C242.281 411.232 241.988 412.155 241.401 412.837C240.815 413.52 239.967 413.861 238.857 413.861ZM239.017 407.141C238.772 407.141 238.511 407.216 238.233 407.365C237.967 407.504 237.631 407.776 237.225 408.181V411.893C237.748 412.107 238.228 412.213 238.665 412.213C239.284 412.213 239.727 412.021 239.993 411.637C240.26 411.253 240.393 410.731 240.393 410.069V409.205C240.393 408.491 240.271 407.968 240.025 407.637C239.791 407.307 239.455 407.141 239.017 407.141ZM247.889 413.861C247.622 413.861 247.35 413.835 247.073 413.781C246.806 413.728 246.534 413.653 246.257 413.557V417.109H244.417V405.589H246.161V406.693C246.662 406.192 247.089 405.856 247.441 405.685C247.793 405.515 248.161 405.429 248.545 405.429C249.43 405.429 250.113 405.76 250.593 406.421C251.073 407.083 251.313 408.011 251.313 409.205V410.069C251.313 411.232 251.019 412.155 250.433 412.837C249.846 413.52 248.998 413.861 247.889 413.861ZM248.049 407.141C247.803 407.141 247.542 407.216 247.265 407.365C246.998 407.504 246.662 407.776 246.257 408.181V411.893C246.779 412.107 247.259 412.213 247.697 412.213C248.315 412.213 248.758 412.021 249.025 411.637C249.291 411.253 249.425 410.731 249.425 410.069V409.205C249.425 408.491 249.302 407.968 249.057 407.637C248.822 407.307 248.486 407.141 248.049 407.141Z" fill="#F0F2F3"/>
<path d="M130.169 294.56C130.563 294.56 130.889 294.496 131.145 294.368C131.401 294.229 131.529 294.027 131.529 293.76C131.529 293.525 131.443 293.344 131.273 293.216C131.113 293.077 130.819 292.955 130.393 292.848L129.481 292.608C128.777 292.427 128.254 292.123 127.913 291.696C127.582 291.269 127.417 290.763 127.417 290.176C127.417 289.483 127.657 288.901 128.137 288.432C128.617 287.963 129.358 287.728 130.361 287.728C130.766 287.728 131.193 287.776 131.641 287.872C132.089 287.968 132.558 288.123 133.049 288.336L132.521 289.904C132.073 289.691 131.667 289.541 131.305 289.456C130.942 289.371 130.622 289.328 130.345 289.328C129.587 289.328 129.209 289.584 129.209 290.096C129.209 290.299 129.273 290.459 129.401 290.576C129.539 290.693 129.79 290.8 130.153 290.896L131.065 291.136C131.843 291.339 132.409 291.648 132.761 292.064C133.123 292.48 133.305 293.003 133.305 293.632C133.305 294.379 133.049 294.987 132.537 295.456C132.035 295.925 131.241 296.16 130.153 296.16C129.225 296.16 128.249 295.947 127.225 295.52L127.721 294C128.222 294.203 128.675 294.347 129.081 294.432C129.486 294.517 129.849 294.56 130.169 294.56ZM140.026 296V294.928C139.535 295.355 139.076 295.669 138.65 295.872C138.223 296.064 137.791 296.16 137.354 296.16C136.628 296.16 136.068 295.915 135.674 295.424C135.279 294.923 135.082 294.224 135.082 293.328V287.888H136.922V293.104C136.922 294 137.252 294.448 137.914 294.448C138.18 294.448 138.468 294.384 138.778 294.256C139.098 294.128 139.482 293.883 139.93 293.52V287.888H141.77V296H140.026ZM150.447 296.08C149.903 296.08 149.466 295.968 149.135 295.744C148.815 295.52 148.58 295.243 148.431 294.912C147.972 295.339 147.53 295.653 147.103 295.856C146.676 296.059 146.218 296.16 145.727 296.16C145.012 296.16 144.484 295.931 144.143 295.472C143.812 295.013 143.647 294.432 143.647 293.728C143.647 293.259 143.732 292.848 143.903 292.496C144.084 292.133 144.378 291.851 144.783 291.648C145.188 291.445 145.743 291.344 146.447 291.344C146.724 291.344 147.012 291.365 147.311 291.408C147.61 291.44 147.908 291.483 148.207 291.536V290.592C148.207 290.144 148.084 289.84 147.839 289.68C147.594 289.509 147.263 289.424 146.847 289.424C146.527 289.424 146.175 289.467 145.791 289.552C145.418 289.637 145.012 289.771 144.575 289.952L144.047 288.384C145.124 287.947 146.1 287.728 146.975 287.728C147.764 287.728 148.372 287.861 148.799 288.128C149.236 288.395 149.54 288.747 149.711 289.184C149.882 289.621 149.967 290.091 149.967 290.592V293.712C149.967 293.872 150.01 294.027 150.095 294.176C150.191 294.315 150.372 294.384 150.639 294.384H150.815V296.08H150.447ZM145.423 293.696C145.423 293.984 145.487 294.213 145.615 294.384C145.743 294.544 145.93 294.624 146.175 294.624C146.42 294.624 146.698 294.56 147.007 294.432C147.316 294.304 147.716 294.005 148.207 293.536V292.848C147.652 292.752 147.108 292.704 146.575 292.704C146.159 292.704 145.86 292.789 145.679 292.96C145.508 293.131 145.423 293.376 145.423 293.696ZM158.572 295.536C158.018 295.76 157.495 295.92 157.004 296.016C156.514 296.112 156.05 296.16 155.612 296.16C154.407 296.16 153.495 295.819 152.876 295.136C152.258 294.453 151.948 293.547 151.948 292.416V291.456C151.948 290.699 152.087 290.043 152.364 289.488C152.642 288.933 153.036 288.501 153.548 288.192C154.06 287.883 154.663 287.728 155.356 287.728C155.922 287.728 156.45 287.845 156.94 288.08C157.442 288.304 157.847 288.661 158.156 289.152C158.476 289.632 158.636 290.251 158.636 291.008C158.636 291.232 158.62 291.472 158.588 291.728C158.556 291.973 158.503 292.235 158.428 292.512H153.724C153.746 293.173 153.911 293.669 154.22 294C154.53 294.331 155.026 294.496 155.708 294.496C156.071 294.496 156.444 294.453 156.828 294.368C157.223 294.283 157.628 294.155 158.044 293.984L158.572 295.536ZM155.356 289.28C154.866 289.28 154.482 289.44 154.204 289.76C153.938 290.069 153.783 290.517 153.74 291.104H156.812C156.823 291.051 156.828 291.003 156.828 290.96C156.828 290.907 156.828 290.859 156.828 290.816C156.828 290.304 156.684 289.92 156.396 289.664C156.108 289.408 155.762 289.28 155.356 289.28ZM162.596 290.384V296H160.756V287.888H162.5V288.96C163.002 288.523 163.466 288.208 163.892 288.016C164.319 287.824 164.756 287.728 165.204 287.728C166.196 287.728 166.874 288.165 167.236 289.04C167.77 288.571 168.266 288.235 168.724 288.032C169.183 287.829 169.647 287.728 170.116 287.728C170.863 287.728 171.434 287.979 171.828 288.48C172.223 288.971 172.42 289.664 172.42 290.56V296H170.58V290.784C170.58 289.888 170.239 289.44 169.556 289.44C169.29 289.44 168.996 289.504 168.676 289.632C168.356 289.76 167.967 290.011 167.508 290.384V296H165.668V290.784C165.668 289.888 165.327 289.44 164.644 289.44C164.378 289.44 164.084 289.504 163.764 289.632C163.444 289.76 163.055 290.011 162.596 290.384ZM178.322 296.16C178.055 296.16 177.783 296.133 177.506 296.08C177.239 296.027 176.967 295.952 176.69 295.856V299.408H174.85V287.888H176.594V288.992C177.095 288.491 177.522 288.155 177.874 287.984C178.226 287.813 178.594 287.728 178.978 287.728C179.863 287.728 180.546 288.059 181.026 288.72C181.506 289.381 181.746 290.309 181.746 291.504V292.368C181.746 293.531 181.453 294.453 180.866 295.136C180.279 295.819 179.431 296.16 178.322 296.16ZM178.482 289.44C178.237 289.44 177.975 289.515 177.698 289.664C177.431 289.803 177.095 290.075 176.69 290.48V294.192C177.213 294.405 177.693 294.512 178.13 294.512C178.749 294.512 179.191 294.32 179.458 293.936C179.725 293.552 179.858 293.029 179.858 292.368V291.504C179.858 290.789 179.735 290.267 179.49 289.936C179.255 289.605 178.919 289.44 178.482 289.44ZM188.457 289.568C187.956 289.568 187.476 289.648 187.017 289.808C186.569 289.957 186.137 290.203 185.721 290.544V296H183.881V287.888H185.625V289.136C186.169 288.624 186.655 288.261 187.081 288.048C187.508 287.835 187.967 287.728 188.457 287.728V289.568ZM196.229 295.536C195.674 295.76 195.151 295.92 194.661 296.016C194.17 296.112 193.706 296.16 193.269 296.16C192.063 296.16 191.151 295.819 190.533 295.136C189.914 294.453 189.605 293.547 189.605 292.416V291.456C189.605 290.699 189.743 290.043 190.021 289.488C190.298 288.933 190.693 288.501 191.205 288.192C191.717 287.883 192.319 287.728 193.013 287.728C193.578 287.728 194.106 287.845 194.597 288.08C195.098 288.304 195.503 288.661 195.813 289.152C196.133 289.632 196.293 290.251 196.293 291.008C196.293 291.232 196.277 291.472 196.245 291.728C196.213 291.973 196.159 292.235 196.085 292.512H191.381C191.402 293.173 191.567 293.669 191.877 294C192.186 294.331 192.682 294.496 193.365 294.496C193.727 294.496 194.101 294.453 194.485 294.368C194.879 294.283 195.285 294.155 195.701 293.984L196.229 295.536ZM193.013 289.28C192.522 289.28 192.138 289.44 191.861 289.76C191.594 290.069 191.439 290.517 191.397 291.104H194.469C194.479 291.051 194.485 291.003 194.485 290.96C194.485 290.907 194.485 290.859 194.485 290.816C194.485 290.304 194.341 289.92 194.053 289.664C193.765 289.408 193.418 289.28 193.013 289.28ZM200.684 294.56C201.079 294.56 201.404 294.496 201.66 294.368C201.916 294.229 202.044 294.027 202.044 293.76C202.044 293.525 201.959 293.344 201.788 293.216C201.628 293.077 201.335 292.955 200.908 292.848L199.996 292.608C199.292 292.427 198.77 292.123 198.428 291.696C198.098 291.269 197.932 290.763 197.932 290.176C197.932 289.483 198.172 288.901 198.652 288.432C199.132 287.963 199.874 287.728 200.876 287.728C201.282 287.728 201.708 287.776 202.156 287.872C202.604 287.968 203.074 288.123 203.564 288.336L203.036 289.904C202.588 289.691 202.183 289.541 201.82 289.456C201.458 289.371 201.138 289.328 200.86 289.328C200.103 289.328 199.724 289.584 199.724 290.096C199.724 290.299 199.788 290.459 199.916 290.576C200.055 290.693 200.306 290.8 200.668 290.896L201.58 291.136C202.359 291.339 202.924 291.648 203.276 292.064C203.639 292.48 203.82 293.003 203.82 293.632C203.82 294.379 203.564 294.987 203.052 295.456C202.551 295.925 201.756 296.16 200.668 296.16C199.74 296.16 198.764 295.947 197.74 295.52L198.236 294C198.738 294.203 199.191 294.347 199.596 294.432C200.002 294.517 200.364 294.56 200.684 294.56ZM211.853 296.08C211.309 296.08 210.872 295.968 210.541 295.744C210.221 295.52 209.987 295.243 209.837 294.912C209.379 295.339 208.936 295.653 208.509 295.856C208.083 296.059 207.624 296.16 207.133 296.16C206.419 296.16 205.891 295.931 205.549 295.472C205.219 295.013 205.053 294.432 205.053 293.728C205.053 293.259 205.139 292.848 205.309 292.496C205.491 292.133 205.784 291.851 206.189 291.648C206.595 291.445 207.149 291.344 207.853 291.344C208.131 291.344 208.419 291.365 208.717 291.408C209.016 291.44 209.315 291.483 209.613 291.536V290.592C209.613 290.144 209.491 289.84 209.245 289.68C209 289.509 208.669 289.424 208.253 289.424C207.933 289.424 207.581 289.467 207.197 289.552C206.824 289.637 206.419 289.771 205.981 289.952L205.453 288.384C206.531 287.947 207.507 287.728 208.381 287.728C209.171 287.728 209.779 287.861 210.205 288.128C210.643 288.395 210.947 288.747 211.117 289.184C211.288 289.621 211.373 290.091 211.373 290.592V293.712C211.373 293.872 211.416 294.027 211.501 294.176C211.597 294.315 211.779 294.384 212.045 294.384H212.221V296.08H211.853ZM206.829 293.696C206.829 293.984 206.893 294.213 207.021 294.384C207.149 294.544 207.336 294.624 207.581 294.624C207.827 294.624 208.104 294.56 208.413 294.432C208.723 294.304 209.123 294.005 209.613 293.536V292.848C209.059 292.752 208.515 292.704 207.981 292.704C207.565 292.704 207.267 292.789 207.085 292.96C206.915 293.131 206.829 293.376 206.829 293.696ZM224.203 298.672C223.584 298.949 222.912 299.168 222.187 299.328C221.461 299.488 220.736 299.568 220.011 299.568C218.592 299.568 217.371 299.28 216.347 298.704C215.333 298.128 214.549 297.317 213.995 296.272C213.451 295.237 213.179 294.032 213.179 292.656C213.179 291.568 213.349 290.555 213.691 289.616C214.032 288.677 214.523 287.861 215.163 287.168C215.803 286.475 216.571 285.936 217.467 285.552C218.363 285.157 219.365 284.96 220.475 284.96C221.467 284.96 222.373 285.12 223.195 285.44C224.016 285.76 224.72 286.208 225.307 286.784C225.904 287.36 226.363 288.037 226.683 288.816C227.003 289.595 227.163 290.448 227.163 291.376C227.163 292.283 226.997 293.093 226.667 293.808C226.347 294.512 225.909 295.067 225.355 295.472C224.8 295.877 224.165 296.08 223.451 296.08C222.949 296.08 222.523 295.979 222.171 295.776C221.829 295.573 221.595 295.259 221.467 294.832C220.976 295.355 220.523 295.707 220.107 295.888C219.701 296.069 219.307 296.16 218.923 296.16C218.197 296.16 217.664 295.835 217.323 295.184C216.992 294.523 216.912 293.669 217.083 292.624L217.195 291.92C217.376 290.811 217.739 289.968 218.283 289.392C218.837 288.816 219.611 288.528 220.603 288.528C221.157 288.528 221.701 288.624 222.235 288.816C222.768 289.008 223.275 289.259 223.755 289.568L223.083 293.408C223.019 293.76 223.029 294.048 223.115 294.272C223.2 294.496 223.381 294.608 223.659 294.608C223.968 294.608 224.261 294.475 224.539 294.208C224.827 293.941 225.061 293.568 225.243 293.088C225.424 292.597 225.515 292.027 225.515 291.376C225.515 290.427 225.301 289.584 224.875 288.848C224.459 288.112 223.872 287.536 223.115 287.12C222.368 286.693 221.488 286.48 220.475 286.48C219.323 286.48 218.32 286.752 217.467 287.296C216.624 287.84 215.973 288.576 215.515 289.504C215.056 290.432 214.827 291.483 214.827 292.656C214.827 293.755 215.029 294.709 215.435 295.52C215.851 296.32 216.443 296.939 217.211 297.376C217.989 297.824 218.923 298.048 220.011 298.048C220.64 298.048 221.28 297.973 221.931 297.824C222.581 297.675 223.179 297.467 223.723 297.2L224.203 298.672ZM218.939 292.624C218.832 293.275 218.837 293.749 218.955 294.048C219.083 294.336 219.296 294.48 219.595 294.48C219.84 294.48 220.101 294.384 220.379 294.192C220.667 293.989 220.981 293.653 221.323 293.184L221.803 290.432C221.611 290.347 221.429 290.277 221.259 290.224C221.099 290.171 220.933 290.144 220.763 290.144C220.272 290.144 219.883 290.304 219.595 290.624C219.317 290.944 219.136 291.376 219.051 291.92L218.939 292.624ZM235.104 295.536C234.549 295.76 234.026 295.92 233.536 296.016C233.045 296.112 232.581 296.16 232.144 296.16C230.938 296.16 230.026 295.819 229.408 295.136C228.789 294.453 228.48 293.547 228.48 292.416V291.456C228.48 290.699 228.618 290.043 228.896 289.488C229.173 288.933 229.568 288.501 230.08 288.192C230.592 287.883 231.194 287.728 231.888 287.728C232.453 287.728 232.981 287.845 233.472 288.08C233.973 288.304 234.378 288.661 234.688 289.152C235.008 289.632 235.168 290.251 235.168 291.008C235.168 291.232 235.152 291.472 235.12 291.728C235.088 291.973 235.034 292.235 234.96 292.512H230.256C230.277 293.173 230.442 293.669 230.752 294C231.061 294.331 231.557 294.496 232.24 294.496C232.602 294.496 232.976 294.453 233.36 294.368C233.754 294.283 234.16 294.155 234.576 293.984L235.104 295.536ZM231.888 289.28C231.397 289.28 231.013 289.44 230.736 289.76C230.469 290.069 230.314 290.517 230.272 291.104H233.344C233.354 291.051 233.36 291.003 233.36 290.96C233.36 290.907 233.36 290.859 233.36 290.816C233.36 290.304 233.216 289.92 232.928 289.664C232.64 289.408 232.293 289.28 231.888 289.28ZM239.127 290.384V296H237.287V287.888H239.031V288.96C239.533 288.523 239.997 288.208 240.423 288.016C240.85 287.824 241.287 287.728 241.735 287.728C242.727 287.728 243.405 288.165 243.767 289.04C244.301 288.571 244.797 288.235 245.255 288.032C245.714 287.829 246.178 287.728 246.647 287.728C247.394 287.728 247.965 287.979 248.359 288.48C248.754 288.971 248.951 289.664 248.951 290.56V296H247.111V290.784C247.111 289.888 246.77 289.44 246.087 289.44C245.821 289.44 245.527 289.504 245.207 289.632C244.887 289.76 244.498 290.011 244.039 290.384V296H242.199V290.784C242.199 289.888 241.858 289.44 241.175 289.44C240.909 289.44 240.615 289.504 240.295 289.632C239.975 289.76 239.586 290.011 239.127 290.384ZM257.525 296.08C256.981 296.08 256.544 295.968 256.213 295.744C255.893 295.52 255.659 295.243 255.509 294.912C255.051 295.339 254.608 295.653 254.181 295.856C253.755 296.059 253.296 296.16 252.805 296.16C252.091 296.16 251.563 295.931 251.221 295.472C250.891 295.013 250.725 294.432 250.725 293.728C250.725 293.259 250.811 292.848 250.981 292.496C251.163 292.133 251.456 291.851 251.861 291.648C252.267 291.445 252.821 291.344 253.525 291.344C253.803 291.344 254.091 291.365 254.389 291.408C254.688 291.44 254.987 291.483 255.285 291.536V290.592C255.285 290.144 255.163 289.84 254.917 289.68C254.672 289.509 254.341 289.424 253.925 289.424C253.605 289.424 253.253 289.467 252.869 289.552C252.496 289.637 252.091 289.771 251.653 289.952L251.125 288.384C252.203 287.947 253.179 287.728 254.053 287.728C254.843 287.728 255.451 287.861 255.877 288.128C256.315 288.395 256.619 288.747 256.789 289.184C256.96 289.621 257.045 290.091 257.045 290.592V293.712C257.045 293.872 257.088 294.027 257.173 294.176C257.269 294.315 257.451 294.384 257.717 294.384H257.893V296.08H257.525ZM252.501 293.696C252.501 293.984 252.565 294.213 252.693 294.384C252.821 294.544 253.008 294.624 253.253 294.624C253.499 294.624 253.776 294.56 254.085 294.432C254.395 294.304 254.795 294.005 255.285 293.536V292.848C254.731 292.752 254.187 292.704 253.653 292.704C253.237 292.704 252.939 292.789 252.757 292.96C252.587 293.131 252.501 293.376 252.501 293.696ZM261.379 286.352H259.443V284.448H261.379V286.352ZM261.331 296H259.491V287.888H261.331V296ZM263.818 293.712V284.16H265.658V293.712C265.658 293.872 265.695 294.027 265.77 294.176C265.855 294.315 266.015 294.384 266.25 294.384H266.506V296.08H266.058C265.45 296.08 264.986 295.963 264.666 295.728C264.346 295.493 264.122 295.195 263.994 294.832C263.876 294.469 263.818 294.096 263.818 293.712ZM269.679 296H267.743V294.096H269.679V296ZM273.07 291.472V292.416C273.07 293.099 273.193 293.611 273.438 293.952C273.684 294.293 274.078 294.464 274.622 294.464C274.889 294.464 275.188 294.432 275.518 294.368C275.86 294.293 276.228 294.181 276.622 294.032L277.15 295.584C276.67 295.776 276.217 295.92 275.79 296.016C275.364 296.112 274.942 296.16 274.526 296.16C273.46 296.16 272.644 295.819 272.078 295.136C271.513 294.453 271.23 293.547 271.23 292.416V291.472C271.23 290.331 271.513 289.424 272.078 288.752C272.644 288.069 273.46 287.728 274.526 287.728C274.932 287.728 275.342 287.776 275.758 287.872C276.174 287.968 276.612 288.107 277.07 288.288L276.542 289.872C275.774 289.573 275.134 289.424 274.622 289.424C274.078 289.424 273.684 289.595 273.438 289.936C273.193 290.267 273.07 290.779 273.07 291.472ZM285.474 291.456V292.416C285.474 293.547 285.165 294.453 284.546 295.136C283.928 295.819 283.053 296.16 281.922 296.16C280.792 296.16 279.917 295.819 279.298 295.136C278.68 294.453 278.37 293.547 278.37 292.416V291.456C278.37 290.325 278.674 289.424 279.282 288.752C279.901 288.069 280.781 287.728 281.922 287.728C283.064 287.728 283.938 288.069 284.546 288.752C285.165 289.424 285.474 290.325 285.474 291.456ZM283.586 291.456C283.586 290.805 283.442 290.299 283.154 289.936C282.866 289.563 282.456 289.376 281.922 289.376C281.389 289.376 280.978 289.563 280.69 289.936C280.402 290.299 280.258 290.805 280.258 291.456V292.416C280.258 293.067 280.402 293.579 280.69 293.952C280.978 294.325 281.389 294.512 281.922 294.512C282.456 294.512 282.866 294.325 283.154 293.952C283.442 293.579 283.586 293.067 283.586 292.416V291.456ZM289.377 290.384V296H287.537V287.888H289.281V288.96C289.783 288.523 290.247 288.208 290.673 288.016C291.1 287.824 291.537 287.728 291.985 287.728C292.977 287.728 293.655 288.165 294.017 289.04C294.551 288.571 295.047 288.235 295.505 288.032C295.964 287.829 296.428 287.728 296.897 287.728C297.644 287.728 298.215 287.979 298.609 288.48C299.004 288.971 299.201 289.664 299.201 290.56V296H297.361V290.784C297.361 289.888 297.02 289.44 296.337 289.44C296.071 289.44 295.777 289.504 295.457 289.632C295.137 289.76 294.748 290.011 294.289 290.384V296H292.449V290.784C292.449 289.888 292.108 289.44 291.425 289.44C291.159 289.44 290.865 289.504 290.545 289.632C290.225 289.76 289.836 290.011 289.377 290.384Z" fill="#F1F2F4"/>
<path d="M109.065 215.9H121.515V219.5H114.465V222.62H120.405V225.86H114.465V229.34H121.485V233H109.065V215.9ZM136.885 220.07C137.065 220.29 137.195 220.84 137.275 221.72C137.375 222.6 137.425 223.94 137.425 225.74V233H132.295V225.8V224.57C132.295 223.93 132.245 223.53 132.145 223.37C131.985 223.17 131.615 223.07 131.035 223.07C130.755 223.07 130.545 223.08 130.405 223.1C129.845 223.12 129.265 223.25 128.665 223.49V233H123.535V219.2H127.705L128.275 221.51C129.715 219.77 131.435 218.9 133.435 218.9C134.155 218.9 134.825 219 135.445 219.2C136.085 219.4 136.565 219.69 136.885 220.07ZM146.154 227.33C146.154 227.69 146.164 228.07 146.184 228.47C146.204 228.85 146.264 229.09 146.364 229.19C146.504 229.33 146.994 229.4 147.834 229.4L148.854 229.37C149.034 230.33 149.124 231.44 149.124 232.7C148.744 232.84 148.184 232.97 147.444 233.09C146.724 233.21 146.034 233.27 145.374 233.27C143.994 233.27 142.924 232.97 142.164 232.37C141.424 231.75 141.054 230.8 141.054 229.52V222.14H138.804V219.41L141.054 219.2L142.404 215.9L146.154 215.69V219.2H149.334V222.14H146.154V227.33ZM159.419 218.9C159.679 218.9 159.949 218.93 160.229 218.99C160.529 219.05 160.749 219.12 160.889 219.2C160.889 219.64 160.839 220.37 160.739 221.39C160.639 222.39 160.549 223.1 160.469 223.52C160.269 223.5 159.899 223.49 159.359 223.49C158.099 223.49 156.979 223.56 155.999 223.7V233H150.869V219.2H155.159L155.759 221.42H155.789C156.369 220.66 156.989 220.05 157.649 219.59C158.309 219.13 158.899 218.9 159.419 218.9ZM170.606 229.4C171.106 229.4 172.036 229.35 173.396 229.25C173.576 229.25 173.906 229.23 174.386 229.19L174.836 232.28C173.296 233 171.296 233.36 168.836 233.36C166.536 233.36 164.766 232.78 163.526 231.62C162.306 230.46 161.696 228.71 161.696 226.37C161.696 225.17 161.846 224.01 162.146 222.89C162.466 221.77 162.826 220.99 163.226 220.55C163.646 220.11 164.426 219.73 165.566 219.41C166.706 219.09 167.836 218.93 168.956 218.93C170.756 218.93 172.106 219.25 173.006 219.89C173.906 220.53 174.496 221.42 174.776 222.56C175.056 223.68 175.196 225.19 175.196 227.09C173.836 227.17 172.506 227.21 171.206 227.21H166.946C166.946 227.85 167.076 228.33 167.336 228.65C167.616 228.97 168.006 229.18 168.506 229.28C169.006 229.36 169.706 229.4 170.606 229.4ZM167.246 222.5C167.126 222.56 167.036 222.82 166.976 223.28C166.916 223.74 166.876 224.26 166.856 224.84H168.416C169.356 224.84 170.036 224.83 170.456 224.81C170.456 223.85 170.316 223.17 170.036 222.77C169.776 222.37 169.316 222.17 168.656 222.17C168.116 222.17 167.646 222.28 167.246 222.5ZM189.883 229.4C190.383 229.4 191.313 229.35 192.673 229.25C192.853 229.25 193.183 229.23 193.663 229.19L194.113 232.28C192.573 233 190.573 233.36 188.113 233.36C185.813 233.36 184.043 232.78 182.803 231.62C181.583 230.46 180.973 228.71 180.973 226.37C180.973 225.17 181.123 224.01 181.423 222.89C181.743 221.77 182.103 220.99 182.503 220.55C182.923 220.11 183.703 219.73 184.843 219.41C185.983 219.09 187.113 218.93 188.233 218.93C190.033 218.93 191.383 219.25 192.283 219.89C193.183 220.53 193.773 221.42 194.053 222.56C194.333 223.68 194.473 225.19 194.473 227.09C193.113 227.17 191.783 227.21 190.483 227.21H186.223C186.223 227.85 186.353 228.33 186.613 228.65C186.893 228.97 187.283 229.18 187.783 229.28C188.283 229.36 188.983 229.4 189.883 229.4ZM186.523 222.5C186.403 222.56 186.313 222.82 186.253 223.28C186.193 223.74 186.153 224.26 186.133 224.84H187.693C188.633 224.84 189.313 224.83 189.733 224.81C189.733 223.85 189.593 223.17 189.313 222.77C189.053 222.37 188.593 222.17 187.933 222.17C187.393 222.17 186.923 222.28 186.523 222.5ZM217.849 220.16C218.169 220.64 218.329 222.5 218.329 225.74V233H213.199V226.25V224.63C213.199 223.89 213.129 223.45 212.989 223.31C212.829 223.15 212.489 223.07 211.969 223.07L211.609 223.1C210.989 223.14 210.399 223.28 209.839 223.52C209.859 223.94 209.869 224.68 209.869 225.74V233H204.739V226.25V224.45C204.739 223.83 204.669 223.45 204.529 223.31C204.369 223.15 204.029 223.07 203.509 223.07L203.149 223.1C202.589 223.12 202.009 223.25 201.409 223.49V233H196.279V219.2H200.449L200.989 221.45C201.649 220.57 202.409 219.93 203.269 219.53C204.129 219.11 204.999 218.9 205.879 218.9C206.619 218.9 207.319 219.01 207.979 219.23C208.659 219.45 209.129 219.76 209.389 220.16C209.509 220.34 209.609 220.67 209.689 221.15C210.329 220.37 211.059 219.8 211.879 219.44C212.699 219.08 213.519 218.9 214.339 218.9C215.079 218.9 215.779 219.01 216.439 219.23C217.119 219.45 217.589 219.76 217.849 220.16Z" fill="#F1F2F4"/>
<path d="M236.834 232.58C235.214 233.12 233.404 233.39 231.404 233.39C229.164 233.39 227.484 232.83 226.364 231.71C225.264 230.57 224.714 228.8 224.714 226.4C224.714 225.22 224.874 224.06 225.194 222.92C225.514 221.76 225.854 220.98 226.214 220.58C226.634 220.12 227.454 219.73 228.674 219.41C229.914 219.09 231.194 218.93 232.514 218.93C233.894 218.93 235.284 219.05 236.684 219.29C236.644 219.79 236.574 220.38 236.474 221.06C236.394 221.72 236.304 222.31 236.204 222.83C234.964 222.75 233.794 222.71 232.694 222.71C231.614 222.71 230.924 222.77 230.624 222.89C230.464 222.95 230.314 223.36 230.174 224.12C230.054 224.88 229.994 225.59 229.994 226.25C229.994 227.13 230.114 227.81 230.354 228.29C230.614 228.75 231.014 229.07 231.554 229.25C232.094 229.43 232.824 229.52 233.744 229.52C234.144 229.52 235.024 229.48 236.384 229.4L236.834 232.58ZM245.214 233.39C242.814 233.39 241.014 232.83 239.814 231.71C238.634 230.57 238.044 228.78 238.044 226.34C238.044 225 238.164 223.83 238.404 222.83C238.664 221.81 238.974 221.1 239.334 220.7C239.794 220.18 240.634 219.75 241.854 219.41C243.094 219.07 244.254 218.9 245.334 218.9C247.914 218.9 249.754 219.45 250.854 220.55C251.954 221.65 252.504 223.41 252.504 225.83C252.504 228.43 251.914 230.34 250.734 231.56C249.554 232.78 247.714 233.39 245.214 233.39ZM245.304 229.88C246.084 229.88 246.594 229.61 246.834 229.07C247.074 228.51 247.194 227.53 247.194 226.13C247.194 225.15 247.144 224.4 247.044 223.88C246.944 223.34 246.754 222.95 246.474 222.71C246.214 222.45 245.804 222.32 245.244 222.32C244.444 222.32 243.984 222.39 243.864 222.53C243.704 222.67 243.574 223.11 243.474 223.85C243.374 224.59 243.324 225.36 243.324 226.16C243.324 227.52 243.454 228.48 243.714 229.04C243.994 229.6 244.524 229.88 245.304 229.88ZM267.812 220.07C267.992 220.29 268.122 220.84 268.202 221.72C268.302 222.6 268.352 223.94 268.352 225.74V233H263.222V225.8V224.57C263.222 223.93 263.172 223.53 263.072 223.37C262.912 223.17 262.542 223.07 261.962 223.07C261.682 223.07 261.472 223.08 261.332 223.1C260.772 223.12 260.192 223.25 259.592 223.49V233H254.462V219.2H258.632L259.202 221.51C260.642 219.77 262.362 218.9 264.362 218.9C265.082 218.9 265.752 219 266.372 219.2C267.012 219.4 267.492 219.69 267.812 220.07ZM277.082 227.33C277.082 227.69 277.092 228.07 277.112 228.47C277.132 228.85 277.192 229.09 277.292 229.19C277.432 229.33 277.922 229.4 278.762 229.4L279.782 229.37C279.962 230.33 280.052 231.44 280.052 232.7C279.672 232.84 279.112 232.97 278.372 233.09C277.652 233.21 276.962 233.27 276.302 233.27C274.922 233.27 273.852 232.97 273.092 232.37C272.352 231.75 271.982 230.8 271.982 229.52V222.14H269.732V219.41L271.982 219.2L273.332 215.9L277.082 215.69V219.2H280.262V222.14H277.082V227.33ZM290.016 233L289.536 231.11C288.616 232.61 287.336 233.36 285.696 233.36C284.356 233.36 283.256 232.99 282.396 232.25C281.556 231.49 281.136 230.43 281.136 229.07C281.136 228.23 281.376 227.5 281.856 226.88C282.356 226.24 283.036 225.79 283.896 225.53C285.016 225.21 286.746 225.03 289.086 224.99C289.086 223.67 289.026 222.97 288.906 222.89C288.806 222.81 288.486 222.77 287.946 222.77C287.606 222.77 287.136 222.79 286.536 222.83C285.576 222.87 284.276 222.98 282.636 223.16C282.476 222.08 282.356 220.92 282.276 219.68C283.336 219.46 284.446 219.28 285.606 219.14C286.766 218.98 287.806 218.9 288.726 218.9C290.326 218.9 291.526 219.17 292.326 219.71C293.126 220.23 293.646 220.92 293.886 221.78C294.126 222.64 294.236 223.73 294.216 225.05L294.186 229.46L294.276 233H290.016ZM287.436 230C287.956 230 288.506 229.9 289.086 229.7V227.48H288.846C287.366 227.48 286.546 227.56 286.386 227.72C286.286 227.82 286.206 227.97 286.146 228.17C286.106 228.37 286.086 228.56 286.086 228.74C286.086 229.22 286.196 229.55 286.416 229.73C286.636 229.91 286.976 230 287.436 230ZM302.893 227.33C302.893 227.69 302.903 228.07 302.923 228.47C302.943 228.85 303.003 229.09 303.103 229.19C303.243 229.33 303.733 229.4 304.573 229.4L305.593 229.37C305.773 230.33 305.863 231.44 305.863 232.7C305.483 232.84 304.923 232.97 304.183 233.09C303.463 233.21 302.773 233.27 302.113 233.27C300.733 233.27 299.663 232.97 298.903 232.37C298.163 231.75 297.793 230.8 297.793 229.52V222.14H295.543V219.41L297.793 219.2L299.143 215.9L302.893 215.69V219.2H306.073V222.14H302.893V227.33ZM314.267 233.39C311.867 233.39 310.067 232.83 308.867 231.71C307.687 230.57 307.097 228.78 307.097 226.34C307.097 225 307.217 223.83 307.457 222.83C307.717 221.81 308.027 221.1 308.387 220.7C308.847 220.18 309.687 219.75 310.907 219.41C312.147 219.07 313.307 218.9 314.387 218.9C316.967 218.9 318.807 219.45 319.907 220.55C321.007 221.65 321.557 223.41 321.557 225.83C321.557 228.43 320.967 230.34 319.787 231.56C318.607 232.78 316.767 233.39 314.267 233.39ZM314.357 229.88C315.137 229.88 315.647 229.61 315.887 229.07C316.127 228.51 316.247 227.53 316.247 226.13C316.247 225.15 316.197 224.4 316.097 223.88C315.997 223.34 315.807 222.95 315.527 222.71C315.267 222.45 314.857 222.32 314.297 222.32C313.497 222.32 313.037 222.39 312.917 222.53C312.757 222.67 312.627 223.11 312.527 223.85C312.427 224.59 312.377 225.36 312.377 226.16C312.377 227.52 312.507 228.48 312.767 229.04C313.047 229.6 313.577 229.88 314.357 229.88Z" fill="#FED579"/>
<path d="M171.147 262.58C169.527 263.12 167.717 263.39 165.717 263.39C163.477 263.39 161.797 262.83 160.677 261.71C159.577 260.57 159.027 258.8 159.027 256.4C159.027 255.22 159.187 254.06 159.507 252.92C159.827 251.76 160.167 250.98 160.527 250.58C160.947 250.12 161.767 249.73 162.987 249.41C164.227 249.09 165.507 248.93 166.827 248.93C168.207 248.93 169.597 249.05 170.997 249.29C170.957 249.79 170.887 250.38 170.787 251.06C170.707 251.72 170.617 252.31 170.517 252.83C169.277 252.75 168.107 252.71 167.007 252.71C165.927 252.71 165.237 252.77 164.937 252.89C164.777 252.95 164.627 253.36 164.487 254.12C164.367 254.88 164.307 255.59 164.307 256.25C164.307 257.13 164.427 257.81 164.667 258.29C164.927 258.75 165.327 259.07 165.867 259.25C166.407 259.43 167.137 259.52 168.057 259.52C168.457 259.52 169.337 259.48 170.697 259.4L171.147 262.58ZM179.527 263.39C177.127 263.39 175.327 262.83 174.127 261.71C172.947 260.57 172.357 258.78 172.357 256.34C172.357 255 172.477 253.83 172.717 252.83C172.977 251.81 173.287 251.1 173.647 250.7C174.107 250.18 174.947 249.75 176.167 249.41C177.407 249.07 178.567 248.9 179.647 248.9C182.227 248.9 184.067 249.45 185.167 250.55C186.267 251.65 186.817 253.41 186.817 255.83C186.817 258.43 186.227 260.34 185.047 261.56C183.867 262.78 182.027 263.39 179.527 263.39ZM179.617 259.88C180.397 259.88 180.907 259.61 181.147 259.07C181.387 258.51 181.507 257.53 181.507 256.13C181.507 255.15 181.457 254.4 181.357 253.88C181.257 253.34 181.067 252.95 180.787 252.71C180.527 252.45 180.117 252.32 179.557 252.32C178.757 252.32 178.297 252.39 178.177 252.53C178.017 252.67 177.887 253.11 177.787 253.85C177.687 254.59 177.637 255.36 177.637 256.16C177.637 257.52 177.767 258.48 178.027 259.04C178.307 259.6 178.837 259.88 179.617 259.88ZM202.125 250.07C202.305 250.29 202.435 250.84 202.515 251.72C202.615 252.6 202.665 253.94 202.665 255.74V263H197.535V255.8V254.57C197.535 253.93 197.485 253.53 197.385 253.37C197.225 253.17 196.855 253.07 196.275 253.07C195.995 253.07 195.785 253.08 195.645 253.1C195.085 253.12 194.505 253.25 193.905 253.49V263H188.775V249.2H192.945L193.515 251.51C194.955 249.77 196.675 248.9 198.675 248.9C199.395 248.9 200.065 249 200.685 249.2C201.325 249.4 201.805 249.69 202.125 250.07ZM211.695 263.39C209.295 263.39 207.495 262.83 206.295 261.71C205.115 260.57 204.525 258.78 204.525 256.34C204.525 255 204.645 253.83 204.885 252.83C205.145 251.81 205.455 251.1 205.815 250.7C206.275 250.18 207.115 249.75 208.335 249.41C209.575 249.07 210.735 248.9 211.815 248.9C214.395 248.9 216.235 249.45 217.335 250.55C218.435 251.65 218.985 253.41 218.985 255.83C218.985 258.43 218.395 260.34 217.215 261.56C216.035 262.78 214.195 263.39 211.695 263.39ZM211.785 259.88C212.565 259.88 213.075 259.61 213.315 259.07C213.555 258.51 213.675 257.53 213.675 256.13C213.675 255.15 213.625 254.4 213.525 253.88C213.425 253.34 213.235 252.95 212.955 252.71C212.695 252.45 212.285 252.32 211.725 252.32C210.925 252.32 210.465 252.39 210.345 252.53C210.185 252.67 210.055 253.11 209.955 253.85C209.855 254.59 209.805 255.36 209.805 256.16C209.805 257.52 209.935 258.48 210.195 259.04C210.475 259.6 211.005 259.88 211.785 259.88ZM232.103 258.32C232.103 260.1 231.533 261.38 230.393 262.16C229.273 262.94 227.673 263.33 225.593 263.33C224.133 263.33 222.453 263.12 220.553 262.7C220.593 262.3 220.683 261.73 220.823 260.99C220.983 260.23 221.113 259.65 221.213 259.25C221.933 259.37 222.733 259.47 223.613 259.55C224.493 259.61 225.243 259.64 225.863 259.64C226.403 259.64 226.733 259.61 226.853 259.55C226.873 259.53 226.893 259.48 226.913 259.4C226.953 259.3 226.973 259.2 226.973 259.1C226.973 258.7 226.723 258.43 226.223 258.29C226.063 258.25 225.453 258.08 224.393 257.78C223.333 257.48 222.463 256.94 221.783 256.16C221.123 255.36 220.793 254.37 220.793 253.19C220.793 252.57 220.933 251.88 221.213 251.12C221.493 250.36 221.793 249.88 222.113 249.68C222.353 249.52 222.933 249.36 223.853 249.2C224.773 249.02 225.623 248.93 226.403 248.93C228.063 248.93 229.733 249.05 231.413 249.29C231.413 249.65 231.363 250.26 231.263 251.12C231.163 251.96 231.073 252.49 230.993 252.71C229.293 252.49 227.923 252.38 226.883 252.38C226.343 252.38 225.993 252.41 225.833 252.47C225.793 252.49 225.753 252.55 225.713 252.65C225.673 252.73 225.653 252.84 225.653 252.98C225.653 253.26 225.743 253.46 225.923 253.58C226.103 253.72 226.573 253.89 227.333 254.09C228.233 254.35 229.003 254.62 229.643 254.9C230.303 255.18 230.873 255.6 231.353 256.16C231.853 256.72 232.103 257.44 232.103 258.32ZM245.414 262.58C243.794 263.12 241.984 263.39 239.984 263.39C237.744 263.39 236.064 262.83 234.944 261.71C233.844 260.57 233.294 258.8 233.294 256.4C233.294 255.22 233.454 254.06 233.774 252.92C234.094 251.76 234.434 250.98 234.794 250.58C235.214 250.12 236.034 249.73 237.254 249.41C238.494 249.09 239.774 248.93 241.094 248.93C242.474 248.93 243.864 249.05 245.264 249.29C245.224 249.79 245.154 250.38 245.054 251.06C244.974 251.72 244.884 252.31 244.784 252.83C243.544 252.75 242.374 252.71 241.274 252.71C240.194 252.71 239.504 252.77 239.204 252.89C239.044 252.95 238.894 253.36 238.754 254.12C238.634 254.88 238.574 255.59 238.574 256.25C238.574 257.13 238.694 257.81 238.934 258.29C239.194 258.75 239.594 259.07 240.134 259.25C240.674 259.43 241.404 259.52 242.324 259.52C242.724 259.52 243.604 259.48 244.964 259.4L245.414 262.58ZM253.794 263.39C251.394 263.39 249.594 262.83 248.394 261.71C247.214 260.57 246.624 258.78 246.624 256.34C246.624 255 246.744 253.83 246.984 252.83C247.244 251.81 247.554 251.1 247.914 250.7C248.374 250.18 249.214 249.75 250.434 249.41C251.674 249.07 252.834 248.9 253.914 248.9C256.494 248.9 258.334 249.45 259.434 250.55C260.534 251.65 261.084 253.41 261.084 255.83C261.084 258.43 260.494 260.34 259.314 261.56C258.134 262.78 256.294 263.39 253.794 263.39ZM253.884 259.88C254.664 259.88 255.174 259.61 255.414 259.07C255.654 258.51 255.774 257.53 255.774 256.13C255.774 255.15 255.724 254.4 255.624 253.88C255.524 253.34 255.334 252.95 255.054 252.71C254.794 252.45 254.384 252.32 253.824 252.32C253.024 252.32 252.564 252.39 252.444 252.53C252.284 252.67 252.154 253.11 252.054 253.85C251.954 254.59 251.904 255.36 251.904 256.16C251.904 257.52 252.034 258.48 252.294 259.04C252.574 259.6 253.104 259.88 253.884 259.88ZM263.823 256.22C263.783 254.58 263.643 251.26 263.403 246.26L263.313 244.19L268.173 243.92C268.193 244.32 268.203 244.91 268.203 245.69C268.203 247.77 268.103 250.23 267.903 253.07C267.823 254.35 267.773 255.17 267.753 255.53C266.793 256.07 265.533 256.35 263.973 256.37L263.823 256.22ZM265.713 263.18C265.053 263.18 264.503 262.97 264.063 262.55C263.643 262.11 263.433 261.52 263.433 260.78C263.433 260.14 263.653 259.6 264.093 259.16C264.553 258.72 265.113 258.5 265.772 258.5C266.413 258.5 266.943 258.72 267.363 259.16C267.803 259.6 268.023 260.14 268.023 260.78C268.023 261.52 267.813 262.11 267.393 262.55C266.973 262.97 266.413 263.18 265.713 263.18Z" fill="#F1F2F4"/>
<rect y="9" width="430" height="609" fill="#0C243E"/>
<path d="M352.925 16.0306C351.988 33.2478 345.793 122.586 263.424 191.211C173.768 265.71 64.0528 256.871 47.1481 255.147C78.0231 260.59 185.535 283.044 269.498 374.053C351.661 462.999 358.706 560.529 359.559 589.621C357.967 568.338 353.31 470.547 431.985 383.075C512.307 293.535 621.836 279.404 644.408 276.929C626.741 276.929 504.872 275.853 420.252 185.004C356.339 116.303 353.137 38.6101 352.925 16.0306Z" fill="#0C2745"/>
<path d="M0 138.485C81.7302 3.59435 322.721 9.37538 433 29.1272V-147.515H0V138.485Z" fill="#28609D"/>
</g>
<defs>
<clipPath id="clip0_383_110">
<rect width="430" height="4881" fill="white" transform="translate(0 -3909)"/>
</clipPath>
</defs>
</svg>
