<svg width="1680" height="2157" viewBox="0 0 1680 2157" fill="none" xmlns="http://www.w3.org/2000/svg">
<rect y="155" width="1680" height="1886" fill="#F1F2F4"/>
<path d="M1548.03 1046.03C1547.74 1079.29 1543.67 1251.94 1391.01 1391.12C1224.82 1542.23 1012.65 1534.47 979.927 1532.57C1039.9 1540.45 1249.02 1574.64 1418.81 1742.9C1584.95 1907.34 1607.12 2094.67 1611.32 2150.65C1606.38 2109.78 1588.8 1921.75 1732.68 1746.57C1879.56 1567.27 2089.35 1530.79 2132.62 1524.12C2098.59 1525.61 1863.68 1533.82 1692.63 1365.92C1563.44 1238.95 1550.43 1089.52 1548.03 1046.03Z" fill="#E4E4E4"/>
<path d="M181.626 55.2142C178.435 113.922 157.332 418.554 -123.514 652.569C-429.209 906.62 -803.323 876.501 -860.966 870.627C-755.686 889.18 -389.083 965.723 -102.757 1276.03C177.427 1579.31 201.473 1911.87 204.39 2011.07C198.958 1938.5 183.053 1605.05 451.3 1306.76C725.161 1001.43 1098.64 953.221 1175.6 944.777C1115.36 944.781 699.807 941.137 411.241 631.375C193.293 397.128 182.355 132.207 181.626 55.2142Z" fill="#ECECEC"/>
</svg>
