<svg width="123" height="123" viewBox="0 0 123 123" fill="none" xmlns="http://www.w3.org/2000/svg">
<path d="M5.125 91.3182V70.8182C5.125 67.914 6.12865 65.4796 8.13594 63.515C10.1432 61.5505 12.5562 60.5682 15.375 60.5682H32.1594C33.8677 60.5682 35.4906 60.9953 37.0281 61.8494C38.5656 62.7036 39.8042 63.8567 40.7437 65.3088C43.2208 68.64 46.2745 71.2453 49.9047 73.1244C53.5349 75.0036 57.4 75.9432 61.5 75.9432C65.6854 75.9432 69.5932 75.0036 73.2234 73.1244C76.8536 71.2453 79.8646 68.64 82.2562 65.3088C83.3667 63.8567 84.6693 62.7036 86.1641 61.8494C87.6589 60.9953 89.2177 60.5682 90.8406 60.5682H107.625C110.529 60.5682 112.964 61.5505 114.928 63.515C116.893 65.4796 117.875 67.914 117.875 70.8182V91.3182H82V79.6588C79.0104 81.7942 75.7859 83.4171 72.3266 84.5275C68.8672 85.638 65.2583 86.1932 61.5 86.1932C57.8271 86.1932 54.2396 85.6166 50.7375 84.4635C47.2354 83.3104 43.9896 81.6661 41 79.5307V91.3182H5.125ZM61.5 70.8182C58.2542 70.8182 55.1792 70.0708 52.275 68.576C49.3708 67.0812 46.9365 65.0098 44.9719 62.3619C43.5198 60.2265 41.7047 58.5395 39.5266 57.301C37.3484 56.0624 34.9781 55.4432 32.4156 55.4432C34.2948 52.2828 38.2667 49.7843 44.3312 47.9479C50.3958 46.1114 56.1187 45.1932 61.5 45.1932C66.8812 45.1932 72.6042 46.1114 78.6687 47.9479C84.7333 49.7843 88.7052 52.2828 90.5844 55.4432C88.1073 55.4432 85.7583 56.0624 83.5375 57.301C81.3167 58.5395 79.4802 60.2265 78.0281 62.3619C76.149 65.0953 73.7573 67.188 70.8531 68.64C67.949 70.0921 64.8312 70.8182 61.5 70.8182ZM20.5 55.4432C16.2292 55.4432 12.599 53.9484 9.60938 50.9588C6.61979 47.9692 5.125 44.339 5.125 40.0682C5.125 35.7119 6.61979 32.0604 9.60938 29.1135C12.599 26.1666 16.2292 24.6932 20.5 24.6932C24.8562 24.6932 28.5078 26.1666 31.4547 29.1135C34.4016 32.0604 35.875 35.7119 35.875 40.0682C35.875 44.339 34.4016 47.9692 31.4547 50.9588C28.5078 53.9484 24.8562 55.4432 20.5 55.4432ZM102.5 55.4432C98.2292 55.4432 94.599 53.9484 91.6094 50.9588C88.6198 47.9692 87.125 44.339 87.125 40.0682C87.125 35.7119 88.6198 32.0604 91.6094 29.1135C94.599 26.1666 98.2292 24.6932 102.5 24.6932C106.856 24.6932 110.508 26.1666 113.455 29.1135C116.402 32.0604 117.875 35.7119 117.875 40.0682C117.875 44.339 116.402 47.9692 113.455 50.9588C110.508 53.9484 106.856 55.4432 102.5 55.4432ZM61.5 40.0682C57.2292 40.0682 53.599 38.5734 50.6094 35.5838C47.6198 32.5942 46.125 28.964 46.125 24.6932C46.125 20.3369 47.6198 16.6854 50.6094 13.7385C53.599 10.7916 57.2292 9.31818 61.5 9.31818C65.8562 9.31818 69.5078 10.7916 72.4547 13.7385C75.4016 16.6854 76.875 20.3369 76.875 24.6932C76.875 28.964 75.4016 32.5942 72.4547 35.5838C69.5078 38.5734 65.8562 40.0682 61.5 40.0682Z" fill="#0C243E"/>
</svg>
