<svg width="85" height="76" viewBox="0 0 85 76" fill="none" xmlns="http://www.w3.org/2000/svg">
<path d="M66.3272 55.7467C62.6964 52.204 59.8112 48.0264 57.6716 43.2137C55.532 38.4011 54.4622 33.2876 54.4622 27.8734C54.4622 22.4591 55.532 17.3456 57.6716 12.533C59.8112 7.72032 62.6964 3.54266 66.3272 0L72.357 6.41689C69.5042 9.15743 67.2674 12.3659 65.6465 16.0422C64.0256 19.7186 63.2151 23.6623 63.2151 27.8734C63.2151 32.0844 64.0256 36.0616 65.6465 39.8047C67.2674 43.5479 69.5042 46.7898 72.357 49.5303L66.3272 55.7467ZM78.7757 42.9129C76.701 40.9745 75.0801 38.7186 73.913 36.1451C72.746 33.5717 72.1625 30.8144 72.1625 27.8734C72.1625 24.9323 72.746 22.175 73.913 19.6016C75.0801 17.0281 76.701 14.7722 78.7757 12.8338L85 19.2507C83.833 20.387 82.8928 21.6737 82.1796 23.1108C81.4664 24.5479 81.1098 26.1354 81.1098 27.8734C81.1098 29.6113 81.4664 31.1988 82.1796 32.6359C82.8928 34.073 83.833 35.3597 85 36.496L78.7757 42.9129ZM31.1213 43.9156C26.8421 43.9156 23.1789 42.3448 20.1316 39.2032C17.0843 36.0616 15.5606 32.285 15.5606 27.8734C15.5606 23.4617 17.0843 19.6851 20.1316 16.5435C23.1789 13.4019 26.8421 11.8311 31.1213 11.8311C35.4005 11.8311 39.0637 13.4019 42.111 16.5435C45.1583 19.6851 46.6819 23.4617 46.6819 27.8734C46.6819 32.285 45.1583 36.0616 42.111 39.2032C39.0637 42.3448 35.4005 43.9156 31.1213 43.9156ZM0 76V64.7704C0 62.5646 0.551106 60.4925 1.65332 58.5541C2.75553 56.6157 4.27918 55.1451 6.22426 54.1425C9.53089 52.4046 13.259 50.934 17.4085 49.7309C21.558 48.5277 26.1289 47.9261 31.1213 47.9261C36.1137 47.9261 40.6846 48.5277 44.8341 49.7309C48.9836 50.934 52.7117 52.4046 56.0183 54.1425C57.9634 55.1451 59.487 56.6157 60.5892 58.5541C61.6915 60.4925 62.2426 62.5646 62.2426 64.7704V76H0ZM7.78032 67.9789H54.4622V64.7704C54.4622 64.0352 54.2839 63.3668 53.9273 62.7652C53.5708 62.1636 53.1007 61.6957 52.5172 61.3615C50.1831 60.1583 47.1844 58.9551 43.5212 57.752C39.8579 56.5488 35.7246 55.9472 31.1213 55.9472C26.5179 55.9472 22.3846 56.5488 18.7214 57.752C15.0582 58.9551 12.0595 60.1583 9.7254 61.3615C9.14188 61.6957 8.67182 62.1636 8.31522 62.7652C7.95862 63.3668 7.78032 64.0352 7.78032 64.7704V67.9789ZM31.1213 35.8945C33.2609 35.8945 35.0925 35.1091 36.6161 33.5383C38.1398 31.9675 38.9016 30.0792 38.9016 27.8734C38.9016 25.6675 38.1398 23.7792 36.6161 22.2084C35.0925 20.6376 33.2609 19.8522 31.1213 19.8522C28.9817 19.8522 27.1501 20.6376 25.6264 22.2084C24.1028 23.7792 23.341 25.6675 23.341 27.8734C23.341 30.0792 24.1028 31.9675 25.6264 33.5383C27.1501 35.1091 28.9817 35.8945 31.1213 35.8945Z" fill="#28609D"/>
</svg>
