<svg width="114" height="96" viewBox="0 0 114 96" fill="none" xmlns="http://www.w3.org/2000/svg">
<path d="M51.3 96V85.3333H96.9V47.4667C96.9 37.0667 93.0288 28.2444 85.2863 21C77.5438 13.7556 68.115 10.1333 57 10.1333C45.885 10.1333 36.4562 13.7556 28.7138 21C20.9713 28.2444 17.1 37.0667 17.1 47.4667V80H11.4C8.265 80 5.58125 78.9556 3.34875 76.8667C1.11625 74.7778 0 72.2667 0 69.3333V58.6667C0 56.8 0.49875 55.0444 1.49625 53.4C2.49375 51.7556 3.895 50.4444 5.7 49.4667L6.1275 42.4C6.8875 36.3556 8.76375 30.7556 11.7562 25.6C14.7487 20.4444 18.5013 15.9556 23.0138 12.1333C27.5263 8.31111 32.7038 5.33333 38.5462 3.2C44.3888 1.06667 50.54 0 57 0C63.46 0 69.5875 1.06667 75.3825 3.2C81.1775 5.33333 86.355 8.28889 90.915 12.0667C95.475 15.8444 99.2275 20.3111 102.173 25.4667C105.118 30.6222 107.018 36.2222 107.873 42.2667L108.3 49.2C110.105 50 111.506 51.2 112.504 52.8C113.501 54.4 114 56.0889 114 57.8667V70.1333C114 71.9111 113.501 73.6 112.504 75.2C111.506 76.8 110.105 78 108.3 78.8V85.3333C108.3 88.2667 107.184 90.7778 104.951 92.8667C102.719 94.9556 100.035 96 96.9 96H51.3ZM39.9 58.6667C38.285 58.6667 36.9312 58.1556 35.8387 57.1333C34.7463 56.1111 34.2 54.8444 34.2 53.3333C34.2 51.8222 34.7463 50.5556 35.8387 49.5333C36.9312 48.5111 38.285 48 39.9 48C41.515 48 42.8688 48.5111 43.9613 49.5333C45.0537 50.5556 45.6 51.8222 45.6 53.3333C45.6 54.8444 45.0537 56.1111 43.9613 57.1333C42.8688 58.1556 41.515 58.6667 39.9 58.6667ZM74.1 58.6667C72.485 58.6667 71.1312 58.1556 70.0387 57.1333C68.9462 56.1111 68.4 54.8444 68.4 53.3333C68.4 51.8222 68.9462 50.5556 70.0387 49.5333C71.1312 48.5111 72.485 48 74.1 48C75.715 48 77.0688 48.5111 78.1613 49.5333C79.2538 50.5556 79.8 51.8222 79.8 53.3333C79.8 54.8444 79.2538 56.1111 78.1613 57.1333C77.0688 58.1556 75.715 58.6667 74.1 58.6667ZM22.9425 50.4C22.2775 40.9778 25.3175 32.8889 32.0625 26.1333C38.8075 19.3778 47.215 16 57.285 16C65.74 16 73.1738 18.5111 79.5863 23.5333C85.9987 28.5556 89.87 34.9778 91.2 42.8C82.555 42.7111 74.5987 40.5333 67.3313 36.2667C60.0637 32 54.4825 26.2222 50.5875 18.9333C49.0675 26.0444 45.8613 32.3778 40.9688 37.9333C36.0763 43.4889 30.0675 47.6444 22.9425 50.4Z" fill="#0C243E"/>
</svg>
