<svg width="81" height="53" viewBox="0 0 81 53" fill="none" xmlns="http://www.w3.org/2000/svg">
<path d="M16.2 40.5892H36.45V34.8208H16.2V40.5892ZM56.7 40.5892H64.8V34.8208H56.7V40.5892ZM16.2 29.0524H36.45V23.284H16.2V29.0524ZM56.7 29.0524H64.8V11.7472H56.7V29.0524ZM16.2 17.5156H36.45V11.7472H16.2V17.5156ZM8.1 52.126C5.8725 52.126 3.96563 51.5612 2.37937 50.4316C0.793125 49.3019 0 47.9439 0 46.3576V5.97885C0 4.39254 0.793125 3.03456 2.37937 1.90492C3.96563 0.775271 5.8725 0.210449 8.1 0.210449H72.9C75.1275 0.210449 77.0344 0.775271 78.6206 1.90492C80.2069 3.03456 81 4.39254 81 5.97885V46.3576C81 47.9439 80.2069 49.3019 78.6206 50.4316C77.0344 51.5612 75.1275 52.126 72.9 52.126H8.1ZM8.1 46.3576H72.9V5.97885H8.1V46.3576Z" fill="#28609D"/>
</svg>
