<svg width="139" height="53" viewBox="0 0 139 53" fill="none" xmlns="http://www.w3.org/2000/svg">
<path d="M43.7976 34.25C42.7642 34.25 41.7726 34.1167 40.8226 33.85C39.8892 33.5834 39.0476 33.1917 38.2976 32.675C37.5642 32.1417 36.9809 31.5 36.5476 30.75C36.1142 29.9834 35.8892 29.1084 35.8726 28.125C35.8726 27.975 35.9226 27.85 36.0226 27.75C36.1392 27.6334 36.2726 27.575 36.4226 27.575H41.5226C41.8059 27.575 42.0142 27.6417 42.1476 27.775C42.2976 27.8917 42.4309 28.0917 42.5476 28.375C42.6642 28.5917 42.7809 28.775 42.8976 28.925C43.0142 29.075 43.1559 29.1917 43.3226 29.275C43.5059 29.3417 43.7309 29.375 43.9976 29.375C44.4476 29.375 44.8059 29.2334 45.0726 28.95C45.3392 28.65 45.4726 28.1167 45.4726 27.35V21.575H38.0476C37.8642 21.575 37.7059 21.5084 37.5726 21.375C37.4392 21.2417 37.3726 21.0834 37.3726 20.9V17.175C37.3726 16.9917 37.4392 16.8334 37.5726 16.7C37.7059 16.5667 37.8642 16.5 38.0476 16.5H51.2726C51.4559 16.5 51.6142 16.5667 51.7476 16.7C51.8809 16.8334 51.9476 16.9917 51.9476 17.175V27.55C51.9476 29.0834 51.5809 30.35 50.8476 31.35C50.1309 32.3334 49.1559 33.0667 47.9226 33.55C46.6892 34.0167 45.3142 34.25 43.7976 34.25ZM61.2013 34.25C59.6679 34.25 58.3763 34.0417 57.3263 33.625C56.2763 33.2084 55.4679 32.5834 54.9013 31.75C54.3513 30.9167 54.0346 29.8917 53.9513 28.675C53.9346 28.2917 53.9263 27.9 53.9263 27.5C53.9263 27.0834 53.9346 26.6917 53.9513 26.325C54.0346 25.0917 54.3763 24.0667 54.9763 23.25C55.5763 22.4167 56.4013 21.7917 57.4513 21.375C58.5013 20.9584 59.7513 20.75 61.2013 20.75C62.6513 20.75 63.9013 20.9584 64.9513 21.375C66.0013 21.7917 66.8263 22.4167 67.4263 23.25C68.0263 24.0667 68.3679 25.0917 68.4513 26.325C68.4846 26.6917 68.5013 27.0834 68.5013 27.5C68.5013 27.9 68.4846 28.2917 68.4513 28.675C68.3679 29.8917 68.0429 30.9167 67.4763 31.75C66.9263 32.5834 66.1263 33.2084 65.0763 33.625C64.0263 34.0417 62.7346 34.25 61.2013 34.25ZM61.2013 30.25C61.6846 30.25 61.9846 30.1167 62.1013 29.85C62.2179 29.5667 62.2929 29.1334 62.3263 28.55C62.3429 28.3 62.3513 27.95 62.3513 27.5C62.3513 27.05 62.3429 26.7 62.3263 26.45C62.2929 25.9 62.2179 25.4834 62.1013 25.2C61.9846 24.9 61.6846 24.75 61.2013 24.75C60.7346 24.75 60.4346 24.9 60.3013 25.2C60.1846 25.4834 60.1096 25.9 60.0763 26.45C60.0596 26.7 60.0513 27.05 60.0513 27.5C60.0513 27.95 60.0596 28.3 60.0763 28.55C60.1096 29.1334 60.1846 29.5667 60.3013 29.85C60.4346 30.1167 60.7346 30.25 61.2013 30.25ZM79.6413 34.25C78.7746 34.25 78.0413 34.1167 77.4413 33.85C76.8413 33.5667 76.3413 33.2 75.9413 32.75V33.325C75.9413 33.5084 75.8746 33.6667 75.7413 33.8C75.608 33.9334 75.4496 34 75.2663 34H71.0163C70.833 34 70.6746 33.9334 70.5413 33.8C70.408 33.6667 70.3413 33.5084 70.3413 33.325V16.925C70.3413 16.7417 70.408 16.5834 70.5413 16.45C70.6746 16.3167 70.833 16.25 71.0163 16.25H75.6413C75.8246 16.25 75.983 16.3167 76.1163 16.45C76.2496 16.5834 76.3163 16.7417 76.3163 16.925V21.925C76.7163 21.5584 77.1913 21.275 77.7413 21.075C78.308 20.8584 78.9413 20.75 79.6413 20.75C80.3746 20.75 81.0496 20.8667 81.6663 21.1C82.2996 21.3334 82.8496 21.6834 83.3163 22.15C83.7996 22.6167 84.183 23.2167 84.4663 23.95C84.7496 24.6667 84.908 25.5167 84.9413 26.5C84.958 26.8667 84.9663 27.1917 84.9663 27.475C84.9663 27.7584 84.958 28.0917 84.9413 28.475C84.8913 29.525 84.7246 30.4167 84.4413 31.15C84.158 31.8834 83.7746 32.4834 83.2913 32.95C82.8246 33.4 82.283 33.7334 81.6663 33.95C81.0496 34.15 80.3746 34.25 79.6413 34.25ZM77.5663 29.775C77.883 29.775 78.1246 29.7167 78.2913 29.6C78.458 29.4834 78.5746 29.3167 78.6413 29.1C78.7246 28.8834 78.783 28.625 78.8163 28.325C78.8663 27.775 78.8663 27.225 78.8163 26.675C78.783 26.375 78.7246 26.1167 78.6413 25.9C78.5746 25.6834 78.458 25.5167 78.2913 25.4C78.1246 25.2834 77.883 25.225 77.5663 25.225C77.283 25.225 77.0496 25.275 76.8663 25.375C76.6996 25.475 76.5663 25.6167 76.4663 25.8C76.383 25.9834 76.333 26.2084 76.3163 26.475C76.2996 26.8417 76.2913 27.15 76.2913 27.4C76.2913 27.6334 76.2996 27.9417 76.3163 28.325C76.333 28.625 76.3746 28.8834 76.4413 29.1C76.5246 29.3167 76.658 29.4834 76.8413 29.6C77.0246 29.7167 77.2663 29.775 77.5663 29.775ZM91.0196 34.25C90.0696 34.25 89.228 34.075 88.4946 33.725C87.7613 33.375 87.1863 32.9 86.7696 32.3C86.3696 31.7 86.1696 31.025 86.1696 30.275C86.1696 29.0584 86.6613 28.1084 87.6446 27.425C88.6446 26.725 89.978 26.2334 91.6446 25.95L94.2946 25.525V25.5C94.2946 25.0667 94.253 24.75 94.1696 24.55C94.103 24.35 93.8946 24.25 93.5446 24.25C93.3113 24.25 93.1196 24.3 92.9696 24.4C92.8363 24.4834 92.6863 24.6084 92.5196 24.775C92.3363 24.9584 92.103 25.05 91.8196 25.05H87.5696C87.403 25.05 87.2613 25 87.1446 24.9C87.0446 24.8 87.003 24.6667 87.0196 24.5C87.0363 24.1834 87.1696 23.8167 87.4196 23.4C87.6696 22.9667 88.053 22.55 88.5696 22.15C89.103 21.75 89.778 21.4167 90.5946 21.15C91.428 20.8834 92.428 20.75 93.5946 20.75C94.728 20.75 95.7113 20.875 96.5446 21.125C97.3946 21.3584 98.0946 21.7084 98.6446 22.175C99.1946 22.625 99.603 23.1917 99.8696 23.875C100.153 24.5417 100.295 25.3 100.295 26.15V33.325C100.295 33.5084 100.228 33.6667 100.095 33.8C99.9613 33.9334 99.803 34 99.6196 34H95.2446C95.0613 34 94.903 33.9334 94.7696 33.8C94.6363 33.6667 94.5696 33.5084 94.5696 33.325V32.625C94.3363 32.9584 94.0363 33.25 93.6696 33.5C93.3196 33.7334 92.9196 33.9167 92.4696 34.05C92.0196 34.1834 91.5363 34.25 91.0196 34.25ZM92.7446 30.55C93.078 30.55 93.3613 30.4834 93.5946 30.35C93.8446 30.2167 94.0363 30.0084 94.1696 29.725C94.303 29.425 94.3696 29.0584 94.3696 28.625V28.6L92.8946 28.925C92.4613 29.025 92.1696 29.1584 92.0196 29.325C91.8696 29.4917 91.7946 29.6667 91.7946 29.85C91.7946 29.9667 91.828 30.0834 91.8946 30.2C91.978 30.3 92.0863 30.3834 92.2196 30.45C92.3696 30.5167 92.5446 30.55 92.7446 30.55ZM103.096 34C102.913 34 102.755 33.9334 102.621 33.8C102.488 33.6667 102.421 33.5084 102.421 33.325V16.925C102.421 16.7417 102.488 16.5834 102.621 16.45C102.755 16.3167 102.913 16.25 103.096 16.25H107.571C107.755 16.25 107.913 16.3167 108.046 16.45C108.18 16.5834 108.246 16.7417 108.246 16.925V33.325C108.246 33.5084 108.18 33.6667 108.046 33.8C107.913 33.9334 107.755 34 107.571 34H103.096Z" fill="#0C243E"/>
<path d="M43.1696 41.0924H42.0616C42.019 40.8556 41.9397 40.6473 41.8237 40.4674C41.7077 40.2874 41.5656 40.1347 41.3975 40.0093C41.2295 39.8838 41.0413 39.7891 40.8329 39.7252C40.627 39.6613 40.408 39.6293 40.176 39.6293C39.7569 39.6293 39.3817 39.7346 39.0502 39.9453C38.7212 40.156 38.4608 40.465 38.269 40.8722C38.0796 41.2794 37.9849 41.7765 37.9849 42.3637C37.9849 42.9555 38.0796 43.455 38.269 43.8622C38.4608 44.2694 38.7224 44.5772 39.0538 44.7855C39.3852 44.9939 39.7581 45.098 40.1724 45.098C40.402 45.098 40.6199 45.0673 40.8258 45.0057C41.0342 44.9418 41.2224 44.8483 41.3904 44.7252C41.5585 44.6021 41.7006 44.4517 41.8166 44.2742C41.935 44.0943 42.0166 43.8883 42.0616 43.6563L43.1696 43.6598C43.1104 44.0173 42.9956 44.3464 42.8251 44.647C42.657 44.9453 42.4404 45.2034 42.1752 45.4212C41.9125 45.6366 41.6118 45.8035 41.2733 45.9219C40.9347 46.0403 40.5654 46.0995 40.1653 46.0995C39.5356 46.0995 38.9745 45.9503 38.4821 45.652C37.9896 45.3514 37.6014 44.9217 37.3173 44.363C37.0356 43.8042 36.8947 43.1378 36.8947 42.3637C36.8947 41.5872 37.0368 40.9207 37.3208 40.3644C37.6049 39.8057 37.9932 39.3772 38.4856 39.0789C38.978 38.7782 39.5379 38.6279 40.1653 38.6279C40.5512 38.6279 40.911 38.6835 41.2449 38.7948C41.581 38.9037 41.8829 39.0647 42.1504 39.2777C42.4179 39.4884 42.6393 39.7465 42.8145 40.0519C42.9896 40.3549 43.108 40.7017 43.1696 41.0924ZM49.3414 46.1101C48.8301 46.1101 48.3838 45.9929 48.0027 45.7586C47.6215 45.5242 47.3256 45.1963 47.1149 44.7749C46.9042 44.3535 46.7988 43.8611 46.7988 43.2976C46.7988 42.7318 46.9042 42.237 47.1149 41.8132C47.3256 41.3895 47.6215 41.0604 48.0027 40.826C48.3838 40.5916 48.8301 40.4745 49.3414 40.4745C49.8528 40.4745 50.2991 40.5916 50.6802 40.826C51.0614 41.0604 51.3573 41.3895 51.568 41.8132C51.7787 42.237 51.8841 42.7318 51.8841 43.2976C51.8841 43.8611 51.7787 44.3535 51.568 44.7749C51.3573 45.1963 51.0614 45.5242 50.6802 45.7586C50.2991 45.9929 49.8528 46.1101 49.3414 46.1101ZM49.345 45.2188C49.6764 45.2188 49.9511 45.1312 50.1689 44.956C50.3867 44.7808 50.5476 44.5476 50.6518 44.2564C50.7583 43.9652 50.8116 43.6444 50.8116 43.2941C50.8116 42.9461 50.7583 42.6265 50.6518 42.3353C50.5476 42.0417 50.3867 41.8061 50.1689 41.6286C49.9511 41.451 49.6764 41.3622 49.345 41.3622C49.0112 41.3622 48.7342 41.451 48.514 41.6286C48.2962 41.8061 48.1341 42.0417 48.0275 42.3353C47.9234 42.6265 47.8713 42.9461 47.8713 43.2941C47.8713 43.6444 47.9234 43.9652 48.0275 44.2564C48.1341 44.5476 48.2962 44.7808 48.514 44.956C48.7342 45.1312 49.0112 45.2188 49.345 45.2188ZM56.7775 42.7614V46H55.7157V40.5455H56.7349V41.4333H56.8024C56.9279 41.1444 57.1243 40.9124 57.3919 40.7372C57.6618 40.5621 58.0015 40.4745 58.411 40.4745C58.7827 40.4745 59.1083 40.5526 59.3876 40.7088C59.667 40.8627 59.8836 41.0924 60.0375 41.3978C60.1913 41.7032 60.2683 42.0808 60.2683 42.5306V46H59.2065V42.6584C59.2065 42.2631 59.1035 41.9541 58.8975 41.7316C58.6916 41.5067 58.4087 41.3942 58.0488 41.3942C57.8026 41.3942 57.5836 41.4475 57.3919 41.554C57.2025 41.6605 57.0521 41.8168 56.9409 42.0228C56.832 42.2264 56.7775 42.4726 56.7775 42.7614ZM66.8849 40.5455V41.3978H63.9055V40.5455H66.8849ZM64.7045 39.2387H65.7663V44.3985C65.7663 44.6044 65.7971 44.7595 65.8587 44.8637C65.9202 44.9655 65.9995 45.0353 66.0966 45.0732C66.196 45.1087 66.3037 45.1265 66.4197 45.1265C66.505 45.1265 66.5795 45.1205 66.6435 45.1087C66.7074 45.0969 66.7571 45.0874 66.7926 45.0803L66.9844 45.9574C66.9228 45.9811 66.8352 46.0048 66.7216 46.0284C66.608 46.0545 66.4659 46.0687 66.2955 46.0711C66.0161 46.0758 65.7557 46.0261 65.5142 45.9219C65.2727 45.8177 65.0774 45.6568 64.9283 45.439C64.7791 45.2211 64.7045 44.9477 64.7045 44.6186V39.2387ZM72.2933 46.1208C71.9477 46.1208 71.6352 46.0568 71.3558 45.929C71.0765 45.7988 70.8551 45.6106 70.6918 45.3644C70.5308 45.1182 70.4503 44.8163 70.4503 44.4588C70.4503 44.1511 70.5095 43.8978 70.6278 43.6989C70.7462 43.5 70.906 43.3426 71.1072 43.2266C71.3085 43.1106 71.5334 43.023 71.782 42.9638C72.0305 42.9046 72.2839 42.8596 72.5419 42.8289C72.8686 42.791 73.1338 42.7602 73.3374 42.7365C73.541 42.7105 73.6889 42.6691 73.7812 42.6122C73.8736 42.5554 73.9197 42.4631 73.9197 42.3353V42.3104C73.9197 42.0003 73.8321 41.76 73.657 41.5895C73.4841 41.4191 73.2261 41.3338 72.8828 41.3338C72.5253 41.3338 72.2436 41.4131 72.0376 41.5718C71.834 41.728 71.6932 41.902 71.6151 42.0938L70.6172 41.8665C70.7356 41.5351 70.9084 41.2675 71.1357 41.064C71.3653 40.858 71.6293 40.7088 71.9276 40.6165C72.2259 40.5218 72.5395 40.4745 72.8686 40.4745C73.0864 40.4745 73.3172 40.5005 73.5611 40.5526C73.8073 40.6023 74.0369 40.6946 74.25 40.8296C74.4654 40.9645 74.6418 41.1575 74.7791 41.4084C74.9164 41.657 74.9851 41.9801 74.9851 42.3779V46H73.9482V45.2543H73.9055C73.8369 45.3916 73.7339 45.5265 73.5966 45.6591C73.4593 45.7917 73.2829 45.9018 73.0675 45.9894C72.852 46.077 72.594 46.1208 72.2933 46.1208ZM72.5241 45.2685C72.8177 45.2685 73.0687 45.2105 73.277 45.0945C73.4877 44.9785 73.6475 44.827 73.7564 44.6399C73.8677 44.4506 73.9233 44.2481 73.9233 44.0327V43.3296C73.8854 43.3675 73.812 43.403 73.7031 43.4361C73.5966 43.4669 73.4747 43.4941 73.3374 43.5178C73.2 43.5391 73.0663 43.5592 72.9361 43.5782C72.8059 43.5947 72.697 43.6089 72.6094 43.6208C72.4034 43.6468 72.2152 43.6906 72.0447 43.7522C71.8767 43.8137 71.7417 43.9025 71.6399 44.0185C71.5405 44.1321 71.4908 44.2836 71.4908 44.473C71.4908 44.7358 71.5878 44.9347 71.782 45.0696C71.9761 45.2022 72.2235 45.2685 72.5241 45.2685ZM79.131 46V38.7273H80.1928V41.4297H80.2567C80.3183 41.3161 80.4071 41.1847 80.5231 41.0355C80.6391 40.8864 80.8001 40.7562 81.006 40.6449C81.212 40.5313 81.4843 40.4745 81.8228 40.4745C82.2631 40.4745 82.6561 40.5857 83.0018 40.8083C83.3474 41.0308 83.6185 41.3516 83.815 41.7706C84.0138 42.1897 84.1133 42.6939 84.1133 43.2834C84.1133 43.8729 84.015 44.3783 83.8185 44.7997C83.622 45.2188 83.3522 45.5419 83.0089 45.7692C82.6656 45.9941 82.2738 46.1066 81.8335 46.1066C81.502 46.1066 81.2309 46.0509 81.0202 45.9397C80.8119 45.8284 80.6486 45.6982 80.5302 45.549C80.4118 45.3999 80.3207 45.2673 80.2567 45.1513H80.168V46H79.131ZM80.1715 43.2728C80.1715 43.6563 80.2272 43.9925 80.3384 44.2813C80.4497 44.5701 80.6107 44.7962 80.8214 44.9595C81.0321 45.1205 81.2901 45.201 81.5955 45.201C81.9128 45.201 82.1779 45.117 82.391 44.9489C82.604 44.7784 82.765 44.5476 82.8739 44.2564C82.9852 43.9652 83.0408 43.6373 83.0408 43.2728C83.0408 42.9129 82.9864 42.5898 82.8775 42.3033C82.771 42.0168 82.61 41.7908 82.3945 41.625C82.1815 41.4593 81.9151 41.3765 81.5955 41.3765C81.2878 41.3765 81.0273 41.4558 80.8143 41.6144C80.6036 41.773 80.4438 41.9943 80.3349 42.2784C80.226 42.5625 80.1715 42.894 80.1715 43.2728ZM87.9521 46V40.5455H89.0138V46H87.9521ZM88.4883 39.7039C88.3036 39.7039 88.145 39.6423 88.0124 39.5192C87.8822 39.3937 87.8171 39.2446 87.8171 39.0718C87.8171 38.8966 87.8822 38.7474 88.0124 38.6243C88.145 38.4988 88.3036 38.4361 88.4883 38.4361C88.6729 38.4361 88.8304 38.4988 88.9606 38.6243C89.0932 38.7474 89.1594 38.8966 89.1594 39.0718C89.1594 39.2446 89.0932 39.3937 88.9606 39.5192C88.8304 39.6423 88.6729 39.7039 88.4883 39.7039ZM94.1506 38.7273V46H93.0888V38.7273H94.1506ZM98.2255 46V40.5455H99.2873V46H98.2255ZM98.7617 39.7039C98.5771 39.7039 98.4184 39.6423 98.2859 39.5192C98.1557 39.3937 98.0906 39.2446 98.0906 39.0718C98.0906 38.8966 98.1557 38.7474 98.2859 38.6243C98.4184 38.4988 98.5771 38.4361 98.7617 38.4361C98.9464 38.4361 99.1038 38.4988 99.234 38.6243C99.3666 38.7474 99.4329 38.8966 99.4329 39.0718C99.4329 39.2446 99.3666 39.3937 99.234 39.5192C99.1038 39.6423 98.9464 39.7039 98.7617 39.7039ZM105.404 46.1066C104.964 46.1066 104.571 45.9941 104.225 45.7692C103.882 45.5419 103.612 45.2188 103.415 44.7997C103.221 44.3783 103.124 43.8729 103.124 43.2834C103.124 42.6939 103.223 42.1897 103.419 41.7706C103.618 41.3516 103.89 41.0308 104.236 40.8083C104.581 40.5857 104.973 40.4745 105.411 40.4745C105.75 40.4745 106.022 40.5313 106.228 40.6449C106.436 40.7562 106.597 40.8864 106.711 41.0355C106.827 41.1847 106.917 41.3161 106.981 41.4297H107.045V38.7273H108.107V46H107.07V45.1513H106.981C106.917 45.2673 106.825 45.3999 106.704 45.549C106.585 45.6982 106.422 45.8284 106.214 45.9397C106.005 46.0509 105.736 46.1066 105.404 46.1066ZM105.638 45.201C105.944 45.201 106.202 45.1205 106.413 44.9595C106.626 44.7962 106.787 44.5701 106.896 44.2813C107.007 43.9925 107.062 43.6563 107.062 43.2728C107.062 42.894 107.008 42.5625 106.899 42.2784C106.79 41.9943 106.63 41.773 106.42 41.6144C106.209 41.4558 105.949 41.3765 105.638 41.3765C105.319 41.3765 105.053 41.4593 104.839 41.625C104.626 41.7908 104.465 42.0168 104.357 42.3033C104.25 42.5898 104.197 42.9129 104.197 43.2728C104.197 43.6373 104.251 43.9652 104.36 44.2564C104.469 44.5476 104.63 44.7784 104.843 44.9489C105.058 45.117 105.324 45.201 105.638 45.201ZM113.856 46.1208C113.51 46.1208 113.198 46.0568 112.918 45.929C112.639 45.7988 112.418 45.6106 112.254 45.3644C112.093 45.1182 112.013 44.8163 112.013 44.4588C112.013 44.1511 112.072 43.8978 112.19 43.6989C112.309 43.5 112.469 43.3426 112.67 43.2266C112.871 43.1106 113.096 43.023 113.344 42.9638C113.593 42.9046 113.846 42.8596 114.104 42.8289C114.431 42.791 114.696 42.7602 114.9 42.7365C115.103 42.7105 115.251 42.6691 115.344 42.6122C115.436 42.5554 115.482 42.4631 115.482 42.3353V42.3104C115.482 42.0003 115.395 41.76 115.219 41.5895C115.047 41.4191 114.789 41.3338 114.445 41.3338C114.088 41.3338 113.806 41.4131 113.6 41.5718C113.397 41.728 113.256 41.902 113.178 42.0938L112.18 41.8665C112.298 41.5351 112.471 41.2675 112.698 41.064C112.928 40.858 113.192 40.7088 113.49 40.6165C113.788 40.5218 114.102 40.4745 114.431 40.4745C114.649 40.4745 114.88 40.5005 115.124 40.5526C115.37 40.6023 115.599 40.6946 115.812 40.8296C116.028 40.9645 116.204 41.1575 116.342 41.4084C116.479 41.657 116.548 41.9801 116.548 42.3779V46H115.511V45.2543H115.468C115.399 45.3916 115.296 45.5265 115.159 45.6591C115.022 45.7917 114.845 45.9018 114.63 45.9894C114.415 46.077 114.156 46.1208 113.856 46.1208ZM114.087 45.2685C114.38 45.2685 114.631 45.2105 114.839 45.0945C115.05 44.9785 115.21 44.827 115.319 44.6399C115.43 44.4506 115.486 44.2481 115.486 44.0327V43.3296C115.448 43.3675 115.375 43.403 115.266 43.4361C115.159 43.4669 115.037 43.4941 114.9 43.5178C114.763 43.5391 114.629 43.5592 114.499 43.5782C114.368 43.5947 114.259 43.6089 114.172 43.6208C113.966 43.6468 113.778 43.6906 113.607 43.7522C113.439 43.8137 113.304 43.9025 113.202 44.0185C113.103 44.1321 113.053 44.2836 113.053 44.473C113.053 44.7358 113.15 44.9347 113.344 45.0696C113.539 45.2022 113.786 45.2685 114.087 45.2685ZM122.65 46.1066C122.21 46.1066 121.817 45.9941 121.471 45.7692C121.128 45.5419 120.858 45.2188 120.662 44.7997C120.467 44.3783 120.37 43.8729 120.37 43.2834C120.37 42.6939 120.469 42.1897 120.665 41.7706C120.864 41.3516 121.136 41.0308 121.482 40.8083C121.828 40.5857 122.219 40.4745 122.657 40.4745C122.996 40.4745 123.268 40.5313 123.474 40.6449C123.682 40.7562 123.843 40.8864 123.957 41.0355C124.073 41.1847 124.163 41.3161 124.227 41.4297H124.291V38.7273H125.353V46H124.316V45.1513H124.227C124.163 45.2673 124.071 45.3999 123.95 45.549C123.832 45.6982 123.668 45.8284 123.46 45.9397C123.252 46.0509 122.982 46.1066 122.65 46.1066ZM122.885 45.201C123.19 45.201 123.448 45.1205 123.659 44.9595C123.872 44.7962 124.033 44.5701 124.142 44.2813C124.253 43.9925 124.309 43.6563 124.309 43.2728C124.309 42.894 124.254 42.5625 124.145 42.2784C124.036 41.9943 123.877 41.773 123.666 41.6144C123.455 41.4558 123.195 41.3765 122.885 41.3765C122.565 41.3765 122.299 41.4593 122.086 41.625C121.873 41.7908 121.712 42.0168 121.603 42.3033C121.496 42.5898 121.443 42.9129 121.443 43.2728C121.443 43.6373 121.497 43.9652 121.606 44.2564C121.715 44.5476 121.876 44.7784 122.089 44.9489C122.305 45.117 122.57 45.201 122.885 45.201ZM131.865 46.1101C131.328 46.1101 130.865 45.9953 130.477 45.7657C130.091 45.5336 129.793 45.2081 129.582 44.7891C129.374 44.3677 129.27 43.8741 129.27 43.3083C129.27 42.7496 129.374 42.2571 129.582 41.831C129.793 41.4049 130.086 41.0722 130.463 40.8331C130.842 40.594 131.284 40.4745 131.791 40.4745C132.099 40.4745 132.397 40.5254 132.686 40.6272C132.975 40.729 133.234 40.8888 133.463 41.1066C133.693 41.3244 133.874 41.6073 134.007 41.9553C134.139 42.3009 134.206 42.7211 134.206 43.2159V43.5924H129.87V42.7969H133.165C133.165 42.5175 133.108 42.2702 132.995 42.0547C132.881 41.8369 132.721 41.6653 132.515 41.5398C132.312 41.4143 132.073 41.3516 131.798 41.3516C131.5 41.3516 131.239 41.425 131.017 41.5718C130.797 41.7162 130.626 41.9056 130.505 42.1399C130.387 42.372 130.328 42.6241 130.328 42.8963V43.5178C130.328 43.8824 130.392 44.1925 130.52 44.4482C130.65 44.7039 130.831 44.8992 131.063 45.0341C131.295 45.1667 131.566 45.233 131.876 45.233C132.077 45.233 132.261 45.2046 132.426 45.1478C132.592 45.0886 132.735 45.001 132.856 44.885C132.977 44.769 133.069 44.6257 133.133 44.4553L134.138 44.6364C134.058 44.9323 133.913 45.1916 133.705 45.4141C133.499 45.6343 133.24 45.8059 132.927 45.929C132.617 46.0497 132.263 46.1101 131.865 46.1101Z" fill="#0C243E"/>
<path d="M23.8129 0.794974C23.7959 1.30629 23.7519 4.07466 21.5001 6.14942C19.0426 8.40747 15.9155 8.07633 15.445 8.03309C16.3055 8.18016 19.6196 9.32597 22.0001 11.9871C24.3294 14.5879 23.961 16.9621 24.0001 17.8249C23.9446 17.1941 23.6101 13.9506 26.0001 11.5007C28.184 8.80625 31.422 8.48411 32.0477 8.40011C31.557 8.40838 28.171 8.43344 25.7724 5.77733C23.9607 3.7687 23.8247 1.46461 23.8129 0.794974Z" fill="#EECD7B"/>
<path d="M2.84996 10.8548C2.49149 10.8548 2.20471 10.9594 1.98962 11.1687C1.77454 11.378 1.66699 11.657 1.66699 12.0058V12.8428C1.66699 13.1916 1.77454 13.4706 1.98962 13.6799C2.20471 13.8892 2.49149 13.9938 2.84996 13.9938H18.4437C18.139 12.9591 17.7686 11.9127 17.5057 10.8548H2.84996Z" fill="#00233D"/>
<path d="M22.6916 20.1382V34.0894C22.6916 37.2633 21.873 39.8559 20.2479 41.8614C18.6169 43.8669 16.2211 44.8668 13.0665 44.8668C11.4175 44.8668 9.882 44.6168 8.47199 44.1111C7.05601 43.6053 5.89096 42.7973 4.97685 41.6754C4.06273 40.5593 3.53099 39.0944 3.39358 37.2808C3.35773 36.9669 3.23824 36.7053 3.04108 36.496C2.84391 36.2868 2.56311 36.1821 2.2106 36.1821H1.13518C0.776699 36.1821 0.495892 36.2984 0.29873 36.5193C0.0955937 36.746 0 37.0134 0 37.3273C0.0716953 39.1758 0.460045 40.7744 1.15907 42.1172C1.8581 43.46 2.80807 44.5703 4.00896 45.4364C5.20986 46.3084 6.57804 46.9536 8.12547 47.3722C9.66691 47.7907 11.3159 48 13.0724 48C15.9044 48 18.2763 47.4187 20.2001 46.2444C22.118 45.076 23.5758 43.4484 24.5795 41.3499C25.5833 39.2572 26.0851 36.8506 26.0851 34.1301V19.9929C24.95 19.9231 23.8208 20.0278 22.6916 20.1382Z" fill="#00233D"/>
</svg>
