<svg width="80" height="87" viewBox="0 0 80 87" fill="none" xmlns="http://www.w3.org/2000/svg">
<path d="M24.4648 86.0382V29.27C17.0438 27.553 11.1111 23.958 6.66667 18.4851C2.22222 13.0122 0 6.91326 0 0.188354H9.78593C9.78593 6.1263 11.9674 11.1879 16.3303 15.373C20.6932 19.5582 26.2589 21.6508 33.0275 21.6508H45.2599C47.7064 21.6508 49.9898 22.0443 52.1101 22.8312C54.2304 23.6182 56.1468 24.7629 57.8593 26.2652L80 45.6887L73.1498 51.6982L53.8226 34.7429V86.0382H44.0367V60.2832H34.2508V86.0382H24.4648ZM39.1437 17.3583C36.4526 17.3583 34.1488 16.5177 32.2324 14.8365C30.316 13.1553 29.3578 11.1342 29.3578 8.77333C29.3578 6.41246 30.316 4.39142 32.2324 2.71019C34.1488 1.02897 36.4526 0.188354 39.1437 0.188354C41.8349 0.188354 44.1386 1.02897 46.055 2.71019C47.9715 4.39142 48.9297 6.41246 48.9297 8.77333C48.9297 11.1342 47.9715 13.1553 46.055 14.8365C44.1386 16.5177 41.8349 17.3583 39.1437 17.3583Z" fill="#0C243E"/>
</svg>
