<svg width="430" height="558" viewBox="0 0 430 558" fill="none" xmlns="http://www.w3.org/2000/svg">
<g clip-path="url(#clip0_383_110)">
<rect width="430" height="4881" transform="translate(0 -1897)" fill="#F0F2F3"/>
<path d="M211.05 584.545V578.82C209.45 577.666 208.209 576.318 207.325 574.775C206.442 573.233 206 571.607 206 569.899C206 566.57 207.473 563.74 210.418 561.41C213.364 559.08 216.941 557.915 221.149 557.915C224.655 557.915 227.762 558.73 230.469 560.361C233.176 561.993 234.936 564.117 235.75 566.736L237.938 573.56C238.078 573.982 237.98 574.365 237.644 574.709C237.307 575.053 236.858 575.225 236.297 575.225H232.931V579.219C232.931 579.952 232.601 580.579 231.942 581.1C231.283 581.622 230.49 581.882 229.564 581.882H226.198V584.545H222.832V579.219H229.564V572.562H234.109L232.51 567.402C231.865 565.382 230.49 563.74 228.386 562.475C226.282 561.21 223.87 560.578 221.149 560.578C217.894 560.578 215.117 561.477 212.817 563.274C210.517 565.072 209.366 567.258 209.366 569.832C209.366 571.163 209.71 572.428 210.397 573.627C211.085 574.825 212.059 575.89 213.322 576.822L214.416 577.621V584.545H211.05ZM221.149 576.556C221.625 576.556 222.025 576.429 222.348 576.173C222.67 575.918 222.832 575.602 222.832 575.225C222.832 574.847 222.67 574.531 222.348 574.276C222.025 574.021 221.625 573.893 221.149 573.893C220.672 573.893 220.272 574.021 219.949 574.276C219.627 574.531 219.465 574.847 219.465 575.225C219.465 575.602 219.627 575.918 219.949 576.173C220.272 576.429 220.672 576.556 221.149 576.556ZM219.886 572.295H222.453C222.453 571.74 222.544 571.291 222.726 570.947C222.909 570.603 223.281 570.187 223.842 569.699C224.347 569.255 224.837 568.806 225.314 568.351C225.791 567.896 226.03 567.302 226.03 566.57C226.03 565.638 225.574 564.85 224.662 564.206C223.75 563.563 222.621 563.241 221.275 563.241C220.153 563.241 219.136 563.496 218.224 564.007C217.312 564.517 216.674 565.183 216.309 566.004L218.624 566.769C218.82 566.281 219.164 565.887 219.655 565.588C220.146 565.288 220.686 565.138 221.275 565.138C221.892 565.138 222.404 565.271 222.811 565.538C223.217 565.804 223.421 566.148 223.421 566.57C223.421 567.036 223.245 567.452 222.895 567.818C222.544 568.184 222.13 568.556 221.653 568.933C221.092 569.399 220.658 569.865 220.349 570.331C220.04 570.797 219.886 571.452 219.886 572.295Z" fill="#28609D"/>
<path d="M75.6546 3C75.7114 21.1274 74.5344 115.266 -12.027 192.101C-106.259 275.528 -227.911 272.644 -246.678 271.82C-212.257 275.734 -92.1744 293.038 6.26229 383.674C102.581 472.251 116.536 574.218 119.321 604.705C116.216 582.457 104.879 480.079 186.17 383.674C269.146 285.004 389.138 263.787 413.893 259.873C394.395 260.903 259.821 266.877 160.669 176.446C85.7762 108.056 77.3195 26.6892 75.6546 3Z" fill="#EBEBEB"/>
</g>
<defs>
<clipPath id="clip0_383_110">
<rect width="430" height="4881" fill="white" transform="translate(0 -1897)"/>
</clipPath>
</defs>
</svg>
