<svg width="98" height="46" viewBox="0 0 98 46" fill="none" xmlns="http://www.w3.org/2000/svg">
<path d="M0.920654 45.23V39.3724C0.920654 36.7071 2.4026 34.5376 5.36649 32.864C8.33038 31.1904 12.2373 30.3536 17.0873 30.3536C17.963 30.3536 18.805 30.3691 19.6134 30.4001C20.4217 30.4311 21.1963 30.5086 21.9373 30.6326C20.9943 31.9342 20.287 33.2979 19.8154 34.7236C19.3439 36.1492 19.1082 37.6369 19.1082 39.1865V45.23H0.920654ZM25.1707 45.23V39.1865C25.1707 37.203 25.7601 35.3899 26.9389 33.7473C28.1177 32.1047 29.7849 30.6635 31.9404 29.4238C34.096 28.1841 36.6726 27.2544 39.6701 26.6345C42.6677 26.0147 45.9179 25.7048 49.4207 25.7048C52.9908 25.7048 56.2746 26.0147 59.2722 26.6345C62.2698 27.2544 64.8463 28.1841 67.0019 29.4238C69.1575 30.6635 70.8078 32.1047 71.9529 33.7473C73.0981 35.3899 73.6707 37.203 73.6707 39.1865V45.23H25.1707ZM79.7332 45.23V39.1865C79.7332 37.5749 79.5142 36.0562 79.0764 34.6306C78.6385 33.2049 77.9818 31.8723 77.1061 30.6326C77.847 30.5086 78.6049 30.4311 79.3795 30.4001C80.1542 30.3691 80.9457 30.3536 81.754 30.3536C86.604 30.3536 90.5109 31.1749 93.4748 32.8175C96.4387 34.4601 97.9207 36.6451 97.9207 39.3724V45.23H79.7332ZM33.7592 37.7918H65.1832C64.5095 36.5521 62.6403 35.4674 59.5753 34.5376C56.5104 33.6078 53.1255 33.1429 49.4207 33.1429C45.7158 33.1429 42.3309 33.6078 39.266 34.5376C36.201 35.4674 34.3654 36.5521 33.7592 37.7918ZM17.0873 26.6345C14.8644 26.6345 12.9615 25.9062 11.3785 24.4496C9.79548 22.9929 9.00399 21.2418 9.00399 19.1963C9.00399 17.0888 9.79548 15.3223 11.3785 13.8966C12.9615 12.471 14.8644 11.7581 17.0873 11.7581C19.3776 11.7581 21.2974 12.471 22.8467 13.8966C24.396 15.3223 25.1707 17.0888 25.1707 19.1963C25.1707 21.2418 24.396 22.9929 22.8467 24.4496C21.2974 25.9062 19.3776 26.6345 17.0873 26.6345ZM81.754 26.6345C79.5311 26.6345 77.6281 25.9062 76.0451 24.4496C74.4622 22.9929 73.6707 21.2418 73.6707 19.1963C73.6707 17.0888 74.4622 15.3223 76.0451 13.8966C77.6281 12.471 79.5311 11.7581 81.754 11.7581C84.0443 11.7581 85.9641 12.471 87.5134 13.8966C89.0627 15.3223 89.8373 17.0888 89.8373 19.1963C89.8373 21.2418 89.0627 22.9929 87.5134 24.4496C85.9641 25.9062 84.0443 26.6345 81.754 26.6345ZM49.4207 22.9154C46.0526 22.9154 43.1898 21.8307 40.8321 19.6612C38.4745 17.4917 37.2957 14.8574 37.2957 11.7581C37.2957 8.59689 38.4745 5.94704 40.8321 3.80855C43.1898 1.67007 46.0526 0.60083 49.4207 0.60083C52.8561 0.60083 55.7358 1.67007 58.0597 3.80855C60.3837 5.94704 61.5457 8.59689 61.5457 11.7581C61.5457 14.8574 60.3837 17.4917 58.0597 19.6612C55.7358 21.8307 52.8561 22.9154 49.4207 22.9154ZM49.4207 15.4772C50.5658 15.4772 51.5257 15.1208 52.3003 14.408C53.075 13.6952 53.4623 12.8119 53.4623 11.7581C53.4623 10.7044 53.075 9.8211 52.3003 9.10827C51.5257 8.39544 50.5658 8.03903 49.4207 8.03903C48.2755 8.03903 47.3156 8.39544 46.541 9.10827C45.7663 9.8211 45.379 10.7044 45.379 11.7581C45.379 12.8119 45.7663 13.6952 46.541 14.408C47.3156 15.1208 48.2755 15.4772 49.4207 15.4772Z" fill="#28609D"/>
</svg>
