<svg width="117" height="55" viewBox="0 0 117 55" fill="none" xmlns="http://www.w3.org/2000/svg">
<path d="M0 55V47.7812C0 44.4965 1.7875 41.8229 5.3625 39.7604C8.9375 37.6979 13.65 36.6667 19.5 36.6667C20.5562 36.6667 21.5719 36.6858 22.5469 36.724C23.5219 36.7622 24.4563 36.8576 25.35 37.0104C24.2125 38.6146 23.3594 40.2951 22.7906 42.0521C22.2219 43.809 21.9375 45.6424 21.9375 47.5521V55H0ZM29.25 55V47.5521C29.25 45.1076 29.9609 42.8733 31.3828 40.849C32.8047 38.8247 34.8156 37.0486 37.4156 35.5208C40.0156 33.9931 43.1234 32.8472 46.7391 32.0833C50.3547 31.3194 54.275 30.9375 58.5 30.9375C62.8063 30.9375 66.7672 31.3194 70.3828 32.0833C73.9984 32.8472 77.1063 33.9931 79.7063 35.5208C82.3063 37.0486 84.2969 38.8247 85.6781 40.849C87.0594 42.8733 87.75 45.1076 87.75 47.5521V55H29.25ZM95.0625 55V47.5521C95.0625 45.566 94.7984 43.6944 94.2703 41.9375C93.7422 40.1806 92.95 38.5382 91.8938 37.0104C92.7875 36.8576 93.7016 36.7622 94.6359 36.724C95.5703 36.6858 96.525 36.6667 97.5 36.6667C103.35 36.6667 108.062 37.6788 111.638 39.7031C115.213 41.7274 117 44.4201 117 47.7812V55H95.0625ZM39.6094 45.8333H77.5125C76.7 44.3056 74.4453 42.9688 70.7484 41.8229C67.0516 40.6771 62.9688 40.1042 58.5 40.1042C54.0312 40.1042 49.9484 40.6771 46.2516 41.8229C42.5547 42.9688 40.3406 44.3056 39.6094 45.8333ZM19.5 32.0833C16.8188 32.0833 14.5234 31.1858 12.6141 29.3906C10.7047 27.5955 9.75 25.4375 9.75 22.9167C9.75 20.3194 10.7047 18.1424 12.6141 16.3854C14.5234 14.6285 16.8188 13.75 19.5 13.75C22.2625 13.75 24.5781 14.6285 26.4469 16.3854C28.3156 18.1424 29.25 20.3194 29.25 22.9167C29.25 25.4375 28.3156 27.5955 26.4469 29.3906C24.5781 31.1858 22.2625 32.0833 19.5 32.0833ZM97.5 32.0833C94.8188 32.0833 92.5234 31.1858 90.6141 29.3906C88.7047 27.5955 87.75 25.4375 87.75 22.9167C87.75 20.3194 88.7047 18.1424 90.6141 16.3854C92.5234 14.6285 94.8188 13.75 97.5 13.75C100.263 13.75 102.578 14.6285 104.447 16.3854C106.316 18.1424 107.25 20.3194 107.25 22.9167C107.25 25.4375 106.316 27.5955 104.447 29.3906C102.578 31.1858 100.263 32.0833 97.5 32.0833ZM58.5 27.5C54.4375 27.5 50.9844 26.1632 48.1406 23.4896C45.2969 20.816 43.875 17.5694 43.875 13.75C43.875 9.85417 45.2969 6.58854 48.1406 3.95312C50.9844 1.31771 54.4375 0 58.5 0C62.6438 0 66.1172 1.31771 68.9203 3.95312C71.7234 6.58854 73.125 9.85417 73.125 13.75C73.125 17.5694 71.7234 20.816 68.9203 23.4896C66.1172 26.1632 62.6438 27.5 58.5 27.5ZM58.5 18.3333C59.8813 18.3333 61.0391 17.8941 61.9734 17.0156C62.9078 16.1372 63.375 15.0486 63.375 13.75C63.375 12.4514 62.9078 11.3628 61.9734 10.4844C61.0391 9.6059 59.8813 9.16667 58.5 9.16667C57.1188 9.16667 55.9609 9.6059 55.0266 10.4844C54.0922 11.3628 53.625 12.4514 53.625 13.75C53.625 15.0486 54.0922 16.1372 55.0266 17.0156C55.9609 17.8941 57.1188 18.3333 58.5 18.3333Z" fill="#0C243E"/>
</svg>
