<svg width="1680" height="747" viewBox="0 0 1680 747" fill="none" xmlns="http://www.w3.org/2000/svg">
<g clip-path="url(#clip0_1_2)">
<rect width="1680" height="7995" transform="translate(0 -6970)" fill="#E3EAF5"/>
<rect x="282.5" y="397.75" width="34" height="25.5" rx="6" stroke="#F1F2F4" stroke-width="5"/>
<path d="M282.5 404.125L298.606 412.178C299.169 412.459 299.831 412.459 300.394 412.178L316.5 404.125" stroke="#F1F2F4" stroke-width="5"/>
<rect x="278" y="453" width="336.493" height="94" rx="34.5" fill="#3ACA62"/>
<path d="M375.699 499.861L377.029 508.681L381.789 490.446H385.569L390.294 508.541L391.764 499.861L393.584 490.446H397.854L392.499 514.246H388.194L383.609 496.536L378.989 514.246H374.684L369.329 490.446H373.879L375.699 499.861ZM410.216 499.896C409.633 499.896 408.968 500.036 408.221 500.316C407.474 500.596 406.588 501.144 405.561 501.961V514.246H401.536V488.346H405.561V498.706C406.634 497.796 407.638 497.143 408.571 496.746C409.504 496.349 410.461 496.151 411.441 496.151C413.144 496.151 414.439 496.699 415.326 497.796C416.213 498.869 416.656 500.386 416.656 502.346V514.246H412.631V502.836C412.631 500.876 411.826 499.896 410.216 499.896ZM435.415 514.421C434.225 514.421 433.269 514.176 432.545 513.686C431.845 513.196 431.332 512.589 431.005 511.866C430.002 512.799 429.034 513.488 428.1 513.931C427.167 514.374 426.164 514.596 425.09 514.596C423.527 514.596 422.372 514.094 421.625 513.091C420.902 512.088 420.54 510.816 420.54 509.276C420.54 508.249 420.727 507.351 421.1 506.581C421.497 505.788 422.139 505.169 423.025 504.726C423.912 504.283 425.125 504.061 426.665 504.061C427.272 504.061 427.902 504.108 428.555 504.201C429.209 504.271 429.862 504.364 430.515 504.481V502.416C430.515 501.436 430.247 500.771 429.71 500.421C429.174 500.048 428.45 499.861 427.54 499.861C426.84 499.861 426.07 499.954 425.23 500.141C424.414 500.328 423.527 500.619 422.57 501.016L421.415 497.586C423.772 496.629 425.907 496.151 427.82 496.151C429.547 496.151 430.877 496.443 431.81 497.026C432.767 497.609 433.432 498.379 433.805 499.336C434.179 500.293 434.365 501.319 434.365 502.416V509.241C434.365 509.591 434.459 509.929 434.645 510.256C434.855 510.559 435.252 510.711 435.835 510.711H436.22V514.421H435.415ZM424.425 509.206C424.425 509.836 424.565 510.338 424.845 510.711C425.125 511.061 425.534 511.236 426.07 511.236C426.607 511.236 427.214 511.096 427.89 510.816C428.567 510.536 429.442 509.883 430.515 508.856V507.351C429.302 507.141 428.112 507.036 426.945 507.036C426.035 507.036 425.382 507.223 424.985 507.596C424.612 507.969 424.425 508.506 424.425 509.206ZM450.39 513.651C449.783 513.931 449.083 514.153 448.29 514.316C447.496 514.503 446.691 514.596 445.875 514.596C444.521 514.596 443.436 514.316 442.62 513.756C441.803 513.196 441.208 512.414 440.835 511.411C440.485 510.408 440.31 509.264 440.31 507.981V500.001H437.44V496.501H440.31V491.881H444.335V496.501H449.865V500.001H444.335V507.981C444.335 509.054 444.533 509.801 444.93 510.221C445.35 510.618 445.945 510.816 446.715 510.816C447.088 510.816 447.485 510.781 447.905 510.711C448.348 510.618 448.838 510.466 449.375 510.256L450.39 513.651ZM458.596 511.096C459.459 511.096 460.171 510.956 460.731 510.676C461.291 510.373 461.571 509.929 461.571 509.346C461.571 508.833 461.384 508.436 461.011 508.156C460.661 507.853 460.019 507.584 459.086 507.351L457.091 506.826C455.551 506.429 454.407 505.764 453.661 504.831C452.937 503.898 452.576 502.789 452.576 501.506C452.576 499.989 453.101 498.718 454.151 497.691C455.201 496.664 456.822 496.151 459.016 496.151C459.902 496.151 460.836 496.256 461.816 496.466C462.796 496.676 463.822 497.014 464.896 497.481L463.741 500.911C462.761 500.444 461.874 500.118 461.081 499.931C460.287 499.744 459.587 499.651 458.981 499.651C457.324 499.651 456.496 500.211 456.496 501.331C456.496 501.774 456.636 502.124 456.916 502.381C457.219 502.638 457.767 502.871 458.561 503.081L460.556 503.606C462.259 504.049 463.496 504.726 464.266 505.636C465.059 506.546 465.456 507.689 465.456 509.066C465.456 510.699 464.896 512.029 463.776 513.056C462.679 514.083 460.941 514.596 458.561 514.596C456.531 514.596 454.396 514.129 452.156 513.196L453.241 509.871C454.337 510.314 455.329 510.629 456.216 510.816C457.102 511.003 457.896 511.096 458.596 511.096ZM483.028 514.421C481.838 514.421 480.881 514.176 480.158 513.686C479.458 513.196 478.944 512.589 478.618 511.866C477.614 512.799 476.646 513.488 475.713 513.931C474.779 514.374 473.776 514.596 472.703 514.596C471.139 514.596 469.984 514.094 469.238 513.091C468.514 512.088 468.153 510.816 468.153 509.276C468.153 508.249 468.339 507.351 468.713 506.581C469.109 505.788 469.751 505.169 470.638 504.726C471.524 504.283 472.738 504.061 474.278 504.061C474.884 504.061 475.514 504.108 476.168 504.201C476.821 504.271 477.474 504.364 478.128 504.481V502.416C478.128 501.436 477.859 500.771 477.323 500.421C476.786 500.048 476.063 499.861 475.153 499.861C474.453 499.861 473.683 499.954 472.843 500.141C472.026 500.328 471.139 500.619 470.183 501.016L469.028 497.586C471.384 496.629 473.519 496.151 475.433 496.151C477.159 496.151 478.489 496.443 479.423 497.026C480.379 497.609 481.044 498.379 481.418 499.336C481.791 500.293 481.978 501.319 481.978 502.416V509.241C481.978 509.591 482.071 509.929 482.258 510.256C482.468 510.559 482.864 510.711 483.448 510.711H483.833V514.421H483.028ZM472.038 509.206C472.038 509.836 472.178 510.338 472.458 510.711C472.738 511.061 473.146 511.236 473.683 511.236C474.219 511.236 474.826 511.096 475.503 510.816C476.179 510.536 477.054 509.883 478.128 508.856V507.351C476.914 507.141 475.724 507.036 474.558 507.036C473.648 507.036 472.994 507.223 472.598 507.596C472.224 507.969 472.038 508.506 472.038 509.206ZM494.922 514.596C494.339 514.596 493.744 514.538 493.137 514.421C492.554 514.304 491.959 514.141 491.352 513.931V521.701H487.327V496.501H491.142V498.916C492.239 497.819 493.172 497.084 493.942 496.711C494.712 496.338 495.517 496.151 496.357 496.151C498.294 496.151 499.787 496.874 500.837 498.321C501.887 499.768 502.412 501.798 502.412 504.411V506.301C502.412 508.844 501.77 510.863 500.487 512.356C499.204 513.849 497.349 514.596 494.922 514.596ZM495.272 499.896C494.735 499.896 494.164 500.059 493.557 500.386C492.974 500.689 492.239 501.284 491.352 502.171V510.291C492.495 510.758 493.545 510.991 494.502 510.991C495.855 510.991 496.824 510.571 497.407 509.731C497.99 508.891 498.282 507.748 498.282 506.301V504.411C498.282 502.848 498.014 501.704 497.477 500.981C496.964 500.258 496.229 499.896 495.272 499.896ZM514.678 514.596C514.094 514.596 513.499 514.538 512.893 514.421C512.309 514.304 511.714 514.141 511.108 513.931V521.701H507.083V496.501H510.898V498.916C511.994 497.819 512.928 497.084 513.698 496.711C514.468 496.338 515.273 496.151 516.113 496.151C518.049 496.151 519.543 496.874 520.593 498.321C521.643 499.768 522.168 501.798 522.168 504.411V506.301C522.168 508.844 521.526 510.863 520.243 512.356C518.959 513.849 517.104 514.596 514.678 514.596ZM515.028 499.896C514.491 499.896 513.919 500.059 513.313 500.386C512.729 500.689 511.994 501.284 511.108 502.171V510.291C512.251 510.758 513.301 510.991 514.258 510.991C515.611 510.991 516.579 510.571 517.163 509.731C517.746 508.891 518.038 507.748 518.038 506.301V504.411C518.038 502.848 517.769 501.704 517.233 500.981C516.719 500.258 515.984 499.896 515.028 499.896Z" fill="#F0F2F3"/>
<path d="M363.754 414.3C364.494 414.3 365.104 414.18 365.584 413.94C366.064 413.68 366.304 413.3 366.304 412.8C366.304 412.36 366.144 412.02 365.824 411.78C365.524 411.52 364.974 411.29 364.174 411.09L362.464 410.64C361.144 410.3 360.164 409.73 359.524 408.93C358.904 408.13 358.594 407.18 358.594 406.08C358.594 404.78 359.044 403.69 359.944 402.81C360.844 401.93 362.234 401.49 364.114 401.49C364.874 401.49 365.674 401.58 366.514 401.76C367.354 401.94 368.234 402.23 369.154 402.63L368.164 405.57C367.324 405.17 366.564 404.89 365.884 404.73C365.204 404.57 364.604 404.49 364.084 404.49C362.664 404.49 361.954 404.97 361.954 405.93C361.954 406.31 362.074 406.61 362.314 406.83C362.574 407.05 363.044 407.25 363.724 407.43L365.434 407.88C366.894 408.26 367.954 408.84 368.614 409.62C369.294 410.4 369.634 411.38 369.634 412.56C369.634 413.96 369.154 415.1 368.194 415.98C367.254 416.86 365.764 417.3 363.724 417.3C361.984 417.3 360.154 416.9 358.234 416.1L359.164 413.25C360.104 413.63 360.954 413.9 361.714 414.06C362.474 414.22 363.154 414.3 363.754 414.3ZM382.236 417V414.99C381.316 415.79 380.456 416.38 379.656 416.76C378.856 417.12 378.046 417.3 377.226 417.3C375.866 417.3 374.816 416.84 374.076 415.92C373.336 414.98 372.966 413.67 372.966 411.99V401.79H376.416V411.57C376.416 413.25 377.036 414.09 378.276 414.09C378.776 414.09 379.316 413.97 379.896 413.73C380.496 413.49 381.216 413.03 382.056 412.35V401.79H385.506V417H382.236ZM401.776 417.15C400.756 417.15 399.936 416.94 399.316 416.52C398.716 416.1 398.276 415.58 397.996 414.96C397.136 415.76 396.306 416.35 395.506 416.73C394.706 417.11 393.846 417.3 392.926 417.3C391.586 417.3 390.596 416.87 389.956 416.01C389.336 415.15 389.026 414.06 389.026 412.74C389.026 411.86 389.186 411.09 389.506 410.43C389.846 409.75 390.396 409.22 391.156 408.84C391.916 408.46 392.956 408.27 394.276 408.27C394.796 408.27 395.336 408.31 395.896 408.39C396.456 408.45 397.016 408.53 397.576 408.63V406.86C397.576 406.02 397.346 405.45 396.886 405.15C396.426 404.83 395.806 404.67 395.026 404.67C394.426 404.67 393.766 404.75 393.046 404.91C392.346 405.07 391.586 405.32 390.766 405.66L389.776 402.72C391.796 401.9 393.626 401.49 395.266 401.49C396.746 401.49 397.886 401.74 398.686 402.24C399.506 402.74 400.076 403.4 400.396 404.22C400.716 405.04 400.876 405.92 400.876 406.86V412.71C400.876 413.01 400.956 413.3 401.116 413.58C401.296 413.84 401.636 413.97 402.136 413.97H402.466V417.15H401.776ZM392.356 412.68C392.356 413.22 392.476 413.65 392.716 413.97C392.956 414.27 393.306 414.42 393.766 414.42C394.226 414.42 394.746 414.3 395.326 414.06C395.906 413.82 396.656 413.26 397.576 412.38V411.09C396.536 410.91 395.516 410.82 394.516 410.82C393.736 410.82 393.176 410.98 392.836 411.3C392.516 411.62 392.356 412.08 392.356 412.68ZM417.011 416.13C415.971 416.55 414.991 416.85 414.071 417.03C413.151 417.21 412.281 417.3 411.461 417.3C409.201 417.3 407.491 416.66 406.331 415.38C405.171 414.1 404.591 412.4 404.591 410.28V408.48C404.591 407.06 404.851 405.83 405.371 404.79C405.891 403.75 406.631 402.94 407.591 402.36C408.551 401.78 409.681 401.49 410.981 401.49C412.041 401.49 413.031 401.71 413.951 402.15C414.891 402.57 415.651 403.24 416.231 404.16C416.831 405.06 417.131 406.22 417.131 407.64C417.131 408.06 417.101 408.51 417.041 408.99C416.981 409.45 416.881 409.94 416.741 410.46H407.921C407.961 411.7 408.271 412.63 408.851 413.25C409.431 413.87 410.361 414.18 411.641 414.18C412.321 414.18 413.021 414.1 413.741 413.94C414.481 413.78 415.241 413.54 416.021 413.22L417.011 416.13ZM410.981 404.4C410.061 404.4 409.341 404.7 408.821 405.3C408.321 405.88 408.031 406.72 407.951 407.82H413.711C413.731 407.72 413.741 407.63 413.741 407.55C413.741 407.45 413.741 407.36 413.741 407.28C413.741 406.32 413.471 405.6 412.931 405.12C412.391 404.64 411.741 404.4 410.981 404.4ZM424.555 406.47V417H421.105V401.79H424.375V403.8C425.315 402.98 426.185 402.39 426.985 402.03C427.785 401.67 428.605 401.49 429.445 401.49C431.305 401.49 432.575 402.31 433.255 403.95C434.255 403.07 435.185 402.44 436.045 402.06C436.905 401.68 437.775 401.49 438.655 401.49C440.055 401.49 441.125 401.96 441.865 402.9C442.605 403.82 442.975 405.12 442.975 406.8V417H439.525V407.22C439.525 405.54 438.885 404.7 437.605 404.7C437.105 404.7 436.555 404.82 435.955 405.06C435.355 405.3 434.625 405.77 433.765 406.47V417H430.315V407.22C430.315 405.54 429.675 404.7 428.395 404.7C427.895 404.7 427.345 404.82 426.745 405.06C426.145 405.3 425.415 405.77 424.555 406.47ZM454.041 417.3C453.541 417.3 453.031 417.25 452.511 417.15C452.011 417.05 451.501 416.91 450.981 416.73V423.39H447.531V401.79H450.801V403.86C451.741 402.92 452.541 402.29 453.201 401.97C453.861 401.65 454.551 401.49 455.271 401.49C456.931 401.49 458.211 402.11 459.111 403.35C460.011 404.59 460.461 406.33 460.461 408.57V410.19C460.461 412.37 459.911 414.1 458.811 415.38C457.711 416.66 456.121 417.3 454.041 417.3ZM454.341 404.7C453.881 404.7 453.391 404.84 452.871 405.12C452.371 405.38 451.741 405.89 450.981 406.65V413.61C451.961 414.01 452.861 414.21 453.681 414.21C454.841 414.21 455.671 413.85 456.171 413.13C456.671 412.41 456.921 411.43 456.921 410.19V408.57C456.921 407.23 456.691 406.25 456.231 405.63C455.791 405.01 455.161 404.7 454.341 404.7ZM473.045 404.94C472.105 404.94 471.205 405.09 470.345 405.39C469.505 405.67 468.695 406.13 467.915 406.77V417H464.465V401.79H467.735V404.13C468.755 403.17 469.665 402.49 470.465 402.09C471.265 401.69 472.125 401.49 473.045 401.49V404.94ZM487.616 416.13C486.576 416.55 485.596 416.85 484.676 417.03C483.756 417.21 482.886 417.3 482.066 417.3C479.806 417.3 478.096 416.66 476.936 415.38C475.776 414.1 475.196 412.4 475.196 410.28V408.48C475.196 407.06 475.456 405.83 475.976 404.79C476.496 403.75 477.236 402.94 478.196 402.36C479.156 401.78 480.286 401.49 481.586 401.49C482.646 401.49 483.636 401.71 484.556 402.15C485.496 402.57 486.256 403.24 486.836 404.16C487.436 405.06 487.736 406.22 487.736 407.64C487.736 408.06 487.706 408.51 487.646 408.99C487.586 409.45 487.486 409.94 487.346 410.46H478.526C478.566 411.7 478.876 412.63 479.456 413.25C480.036 413.87 480.966 414.18 482.246 414.18C482.926 414.18 483.626 414.1 484.346 413.94C485.086 413.78 485.846 413.54 486.626 413.22L487.616 416.13ZM481.586 404.4C480.666 404.4 479.946 404.7 479.426 405.3C478.926 405.88 478.636 406.72 478.556 407.82H484.316C484.336 407.72 484.346 407.63 484.346 407.55C484.346 407.45 484.346 407.36 484.346 407.28C484.346 406.32 484.076 405.6 483.536 405.12C482.996 404.64 482.346 404.4 481.586 404.4ZM495.971 414.3C496.711 414.3 497.321 414.18 497.801 413.94C498.281 413.68 498.521 413.3 498.521 412.8C498.521 412.36 498.361 412.02 498.041 411.78C497.741 411.52 497.191 411.29 496.391 411.09L494.681 410.64C493.361 410.3 492.381 409.73 491.741 408.93C491.121 408.13 490.811 407.18 490.811 406.08C490.811 404.78 491.261 403.69 492.161 402.81C493.061 401.93 494.451 401.49 496.331 401.49C497.091 401.49 497.891 401.58 498.731 401.76C499.571 401.94 500.451 402.23 501.371 402.63L500.381 405.57C499.541 405.17 498.781 404.89 498.101 404.73C497.421 404.57 496.821 404.49 496.301 404.49C494.881 404.49 494.171 404.97 494.171 405.93C494.171 406.31 494.291 406.61 494.531 406.83C494.791 407.05 495.261 407.25 495.941 407.43L497.651 407.88C499.111 408.26 500.171 408.84 500.831 409.62C501.511 410.4 501.851 411.38 501.851 412.56C501.851 413.96 501.371 415.1 500.411 415.98C499.471 416.86 497.981 417.3 495.941 417.3C494.201 417.3 492.371 416.9 490.451 416.1L491.381 413.25C492.321 413.63 493.171 413.9 493.931 414.06C494.691 414.22 495.371 414.3 495.971 414.3ZM516.912 417.15C515.892 417.15 515.072 416.94 514.452 416.52C513.852 416.1 513.412 415.58 513.132 414.96C512.272 415.76 511.442 416.35 510.642 416.73C509.842 417.11 508.982 417.3 508.062 417.3C506.722 417.3 505.732 416.87 505.092 416.01C504.472 415.15 504.162 414.06 504.162 412.74C504.162 411.86 504.322 411.09 504.642 410.43C504.982 409.75 505.532 409.22 506.292 408.84C507.052 408.46 508.092 408.27 509.412 408.27C509.932 408.27 510.472 408.31 511.032 408.39C511.592 408.45 512.152 408.53 512.712 408.63V406.86C512.712 406.02 512.482 405.45 512.022 405.15C511.562 404.83 510.942 404.67 510.162 404.67C509.562 404.67 508.902 404.75 508.182 404.91C507.482 405.07 506.722 405.32 505.902 405.66L504.912 402.72C506.932 401.9 508.762 401.49 510.402 401.49C511.882 401.49 513.022 401.74 513.822 402.24C514.642 402.74 515.212 403.4 515.532 404.22C515.852 405.04 516.012 405.92 516.012 406.86V412.71C516.012 413.01 516.092 413.3 516.252 413.58C516.432 413.84 516.772 413.97 517.272 413.97H517.602V417.15H516.912ZM507.492 412.68C507.492 413.22 507.612 413.65 507.852 413.97C508.092 414.27 508.442 414.42 508.902 414.42C509.362 414.42 509.882 414.3 510.462 414.06C511.042 413.82 511.792 413.26 512.712 412.38V411.09C511.672 410.91 510.652 410.82 509.652 410.82C508.872 410.82 508.312 410.98 507.972 411.3C507.652 411.62 507.492 412.08 507.492 412.68ZM540.068 422.01C538.908 422.53 537.648 422.94 536.288 423.24C534.928 423.54 533.568 423.69 532.208 423.69C529.548 423.69 527.258 423.15 525.338 422.07C523.438 420.99 521.968 419.47 520.928 417.51C519.908 415.57 519.398 413.31 519.398 410.73C519.398 408.69 519.718 406.79 520.358 405.03C520.998 403.27 521.918 401.74 523.118 400.44C524.318 399.14 525.758 398.13 527.438 397.41C529.118 396.67 530.998 396.3 533.078 396.3C534.938 396.3 536.638 396.6 538.178 397.2C539.718 397.8 541.038 398.64 542.138 399.72C543.258 400.8 544.118 402.07 544.718 403.53C545.318 404.99 545.618 406.59 545.618 408.33C545.618 410.03 545.308 411.55 544.688 412.89C544.088 414.21 543.268 415.25 542.228 416.01C541.188 416.77 539.998 417.15 538.658 417.15C537.718 417.15 536.918 416.96 536.258 416.58C535.618 416.2 535.178 415.61 534.938 414.81C534.018 415.79 533.168 416.45 532.388 416.79C531.628 417.13 530.888 417.3 530.168 417.3C528.808 417.3 527.808 416.69 527.168 415.47C526.548 414.23 526.398 412.63 526.718 410.67L526.928 409.35C527.268 407.27 527.948 405.69 528.968 404.61C530.008 403.53 531.458 402.99 533.318 402.99C534.358 402.99 535.378 403.17 536.378 403.53C537.378 403.89 538.328 404.36 539.228 404.94L537.968 412.14C537.848 412.8 537.868 413.34 538.028 413.76C538.188 414.18 538.528 414.39 539.048 414.39C539.628 414.39 540.178 414.14 540.698 413.64C541.238 413.14 541.678 412.44 542.018 411.54C542.358 410.62 542.528 409.55 542.528 408.33C542.528 406.55 542.128 404.97 541.328 403.59C540.548 402.21 539.448 401.13 538.028 400.35C536.628 399.55 534.978 399.15 533.078 399.15C530.918 399.15 529.038 399.66 527.438 400.68C525.858 401.7 524.638 403.08 523.778 404.82C522.918 406.56 522.488 408.53 522.488 410.73C522.488 412.79 522.868 414.58 523.628 416.1C524.408 417.6 525.518 418.76 526.958 419.58C528.418 420.42 530.168 420.84 532.208 420.84C533.388 420.84 534.588 420.7 535.808 420.42C537.028 420.14 538.148 419.75 539.168 419.25L540.068 422.01ZM530.198 410.67C529.998 411.89 530.008 412.78 530.228 413.34C530.468 413.88 530.868 414.15 531.428 414.15C531.888 414.15 532.378 413.97 532.898 413.61C533.438 413.23 534.028 412.6 534.668 411.72L535.568 406.56C535.208 406.4 534.868 406.27 534.548 406.17C534.248 406.07 533.938 406.02 533.618 406.02C532.698 406.02 531.968 406.32 531.428 406.92C530.908 407.52 530.568 408.33 530.408 409.35L530.198 410.67ZM560.507 416.13C559.467 416.55 558.487 416.85 557.567 417.03C556.647 417.21 555.777 417.3 554.957 417.3C552.697 417.3 550.987 416.66 549.827 415.38C548.667 414.1 548.087 412.4 548.087 410.28V408.48C548.087 407.06 548.347 405.83 548.867 404.79C549.387 403.75 550.127 402.94 551.087 402.36C552.047 401.78 553.177 401.49 554.477 401.49C555.537 401.49 556.527 401.71 557.447 402.15C558.387 402.57 559.147 403.24 559.727 404.16C560.327 405.06 560.627 406.22 560.627 407.64C560.627 408.06 560.597 408.51 560.537 408.99C560.477 409.45 560.377 409.94 560.237 410.46H551.417C551.457 411.7 551.767 412.63 552.347 413.25C552.927 413.87 553.857 414.18 555.137 414.18C555.817 414.18 556.517 414.1 557.237 413.94C557.977 413.78 558.737 413.54 559.517 413.22L560.507 416.13ZM554.477 404.4C553.557 404.4 552.837 404.7 552.317 405.3C551.817 405.88 551.527 406.72 551.447 407.82H557.207C557.227 407.72 557.237 407.63 557.237 407.55C557.237 407.45 557.237 407.36 557.237 407.28C557.237 406.32 556.967 405.6 556.427 405.12C555.887 404.64 555.237 404.4 554.477 404.4ZM568.051 406.47V417H564.601V401.79H567.871V403.8C568.811 402.98 569.681 402.39 570.481 402.03C571.281 401.67 572.101 401.49 572.941 401.49C574.801 401.49 576.071 402.31 576.751 403.95C577.751 403.07 578.681 402.44 579.541 402.06C580.401 401.68 581.271 401.49 582.151 401.49C583.551 401.49 584.621 401.96 585.361 402.9C586.101 403.82 586.471 405.12 586.471 406.8V417H583.021V407.22C583.021 405.54 582.381 404.7 581.101 404.7C580.601 404.7 580.051 404.82 579.451 405.06C578.851 405.3 578.121 405.77 577.261 406.47V417H573.811V407.22C573.811 405.54 573.171 404.7 571.891 404.7C571.391 404.7 570.841 404.82 570.241 405.06C569.641 405.3 568.911 405.77 568.051 406.47ZM602.547 417.15C601.527 417.15 600.707 416.94 600.087 416.52C599.487 416.1 599.047 415.58 598.767 414.96C597.907 415.76 597.077 416.35 596.277 416.73C595.477 417.11 594.617 417.3 593.697 417.3C592.357 417.3 591.367 416.87 590.727 416.01C590.107 415.15 589.797 414.06 589.797 412.74C589.797 411.86 589.957 411.09 590.277 410.43C590.617 409.75 591.167 409.22 591.927 408.84C592.687 408.46 593.727 408.27 595.047 408.27C595.567 408.27 596.107 408.31 596.667 408.39C597.227 408.45 597.787 408.53 598.347 408.63V406.86C598.347 406.02 598.117 405.45 597.657 405.15C597.197 404.83 596.577 404.67 595.797 404.67C595.197 404.67 594.537 404.75 593.817 404.91C593.117 405.07 592.357 405.32 591.537 405.66L590.547 402.72C592.567 401.9 594.397 401.49 596.037 401.49C597.517 401.49 598.657 401.74 599.457 402.24C600.277 402.74 600.847 403.4 601.167 404.22C601.487 405.04 601.647 405.92 601.647 406.86V412.71C601.647 413.01 601.727 413.3 601.887 413.58C602.067 413.84 602.407 413.97 602.907 413.97H603.237V417.15H602.547ZM593.127 412.68C593.127 413.22 593.247 413.65 593.487 413.97C593.727 414.27 594.077 414.42 594.537 414.42C594.997 414.42 595.517 414.3 596.097 414.06C596.677 413.82 597.427 413.26 598.347 412.38V411.09C597.307 410.91 596.287 410.82 595.287 410.82C594.507 410.82 593.947 410.98 593.607 411.3C593.287 411.62 593.127 412.08 593.127 412.68ZM609.772 398.91H606.142V395.34H609.772V398.91ZM609.682 417H606.232V401.79H609.682V417ZM614.345 412.71V394.8H617.795V412.71C617.795 413.01 617.865 413.3 618.005 413.58C618.165 413.84 618.465 413.97 618.905 413.97H619.385V417.15H618.545C617.405 417.15 616.535 416.93 615.935 416.49C615.335 416.05 614.915 415.49 614.675 414.81C614.455 414.13 614.345 413.43 614.345 412.71ZM625.336 417H621.706V413.43H625.336V417ZM631.695 408.51V410.28C631.695 411.56 631.925 412.52 632.385 413.16C632.845 413.8 633.585 414.12 634.605 414.12C635.105 414.12 635.665 414.06 636.285 413.94C636.925 413.8 637.615 413.59 638.355 413.31L639.345 416.22C638.445 416.58 637.595 416.85 636.795 417.03C635.995 417.21 635.205 417.3 634.425 417.3C632.425 417.3 630.895 416.66 629.835 415.38C628.775 414.1 628.245 412.4 628.245 410.28V408.51C628.245 406.37 628.775 404.67 629.835 403.41C630.895 402.13 632.425 401.49 634.425 401.49C635.185 401.49 635.955 401.58 636.735 401.76C637.515 401.94 638.335 402.2 639.195 402.54L638.205 405.51C636.765 404.95 635.565 404.67 634.605 404.67C633.585 404.67 632.845 404.99 632.385 405.63C631.925 406.25 631.695 407.21 631.695 408.51ZM654.952 408.48V410.28C654.952 412.4 654.372 414.1 653.212 415.38C652.052 416.66 650.412 417.3 648.292 417.3C646.172 417.3 644.532 416.66 643.372 415.38C642.212 414.1 641.632 412.4 641.632 410.28V408.48C641.632 406.36 642.202 404.67 643.342 403.41C644.502 402.13 646.152 401.49 648.292 401.49C650.432 401.49 652.072 402.13 653.212 403.41C654.372 404.67 654.952 406.36 654.952 408.48ZM651.412 408.48C651.412 407.26 651.142 406.31 650.602 405.63C650.062 404.93 649.292 404.58 648.292 404.58C647.292 404.58 646.522 404.93 645.982 405.63C645.442 406.31 645.172 407.26 645.172 408.48V410.28C645.172 411.5 645.442 412.46 645.982 413.16C646.522 413.86 647.292 414.21 648.292 414.21C649.292 414.21 650.062 413.86 650.602 413.16C651.142 412.46 651.412 411.5 651.412 410.28V408.48ZM662.27 406.47V417H658.82V401.79H662.09V403.8C663.03 402.98 663.9 402.39 664.7 402.03C665.5 401.67 666.32 401.49 667.16 401.49C669.02 401.49 670.29 402.31 670.97 403.95C671.97 403.07 672.9 402.44 673.76 402.06C674.62 401.68 675.49 401.49 676.37 401.49C677.77 401.49 678.84 401.96 679.58 402.9C680.32 403.82 680.69 405.12 680.69 406.8V417H677.24V407.22C677.24 405.54 676.6 404.7 675.32 404.7C674.82 404.7 674.27 404.82 673.67 405.06C673.07 405.3 672.34 405.77 671.48 406.47V417H668.03V407.22C668.03 405.54 667.39 404.7 666.11 404.7C665.61 404.7 665.06 404.82 664.46 405.06C663.86 405.3 663.13 405.77 662.27 406.47Z" fill="#F1F2F4"/>
<path d="M1170.12 372V358H1172.72V372H1170.12ZM1182.32 361.2C1183.18 361.2 1183.94 361.367 1184.6 361.7C1185.28 362.033 1185.82 362.547 1186.2 363.24C1186.59 363.92 1186.78 364.8 1186.78 365.88V372H1184.28V366.2C1184.28 365.253 1184.06 364.547 1183.6 364.08C1183.16 363.613 1182.54 363.38 1181.74 363.38C1181.16 363.38 1180.64 363.5 1180.18 363.74C1179.73 363.98 1179.38 364.34 1179.12 364.82C1178.88 365.287 1178.76 365.88 1178.76 366.6V372H1176.26V361.32H1178.64V364.2L1178.22 363.32C1178.6 362.64 1179.14 362.12 1179.84 361.76C1180.56 361.387 1181.39 361.2 1182.32 361.2ZM1193.25 372.14C1192.36 372.14 1191.5 372.027 1190.67 371.8C1189.86 371.56 1189.21 371.273 1188.73 370.94L1189.69 369.04C1190.17 369.347 1190.75 369.6 1191.41 369.8C1192.08 370 1192.75 370.1 1193.41 370.1C1194.2 370.1 1194.77 369.993 1195.11 369.78C1195.47 369.567 1195.65 369.28 1195.65 368.92C1195.65 368.627 1195.53 368.407 1195.29 368.26C1195.05 368.1 1194.74 367.98 1194.35 367.9C1193.97 367.82 1193.53 367.747 1193.05 367.68C1192.59 367.613 1192.11 367.527 1191.63 367.42C1191.17 367.3 1190.74 367.133 1190.35 366.92C1189.97 366.693 1189.65 366.393 1189.41 366.02C1189.17 365.647 1189.05 365.153 1189.05 364.54C1189.05 363.86 1189.25 363.273 1189.63 362.78C1190.02 362.273 1190.56 361.887 1191.25 361.62C1191.96 361.34 1192.79 361.2 1193.75 361.2C1194.47 361.2 1195.2 361.28 1195.93 361.44C1196.67 361.6 1197.27 361.827 1197.75 362.12L1196.79 364.02C1196.29 363.713 1195.77 363.507 1195.25 363.4C1194.75 363.28 1194.24 363.22 1193.73 363.22C1192.97 363.22 1192.41 363.333 1192.03 363.56C1191.67 363.787 1191.49 364.073 1191.49 364.42C1191.49 364.74 1191.61 364.98 1191.85 365.14C1192.09 365.3 1192.41 365.427 1192.79 365.52C1193.18 365.613 1193.61 365.693 1194.07 365.76C1194.55 365.813 1195.03 365.9 1195.49 366.02C1195.96 366.14 1196.39 366.307 1196.77 366.52C1197.17 366.72 1197.49 367.007 1197.73 367.38C1197.97 367.753 1198.09 368.24 1198.09 368.84C1198.09 369.507 1197.89 370.087 1197.49 370.58C1197.11 371.073 1196.55 371.46 1195.83 371.74C1195.11 372.007 1194.25 372.14 1193.25 372.14ZM1204.27 372.14C1203.09 372.14 1202.19 371.84 1201.55 371.24C1200.91 370.627 1200.59 369.727 1200.59 368.54V358.96H1203.09V368.48C1203.09 368.987 1203.21 369.38 1203.47 369.66C1203.73 369.94 1204.1 370.08 1204.57 370.08C1205.13 370.08 1205.59 369.933 1205.97 369.64L1206.67 371.42C1206.37 371.66 1206.01 371.84 1205.59 371.96C1205.16 372.08 1204.72 372.14 1204.27 372.14ZM1198.83 363.4V361.4H1205.95V363.4H1198.83ZM1215.3 372V369.84L1215.16 369.38V365.6C1215.16 364.867 1214.94 364.3 1214.5 363.9C1214.06 363.487 1213.4 363.28 1212.5 363.28C1211.9 363.28 1211.31 363.373 1210.72 363.56C1210.15 363.747 1209.66 364.007 1209.26 364.34L1208.28 362.52C1208.86 362.08 1209.54 361.753 1210.32 361.54C1211.12 361.313 1211.95 361.2 1212.8 361.2C1214.35 361.2 1215.54 361.573 1216.38 362.32C1217.24 363.053 1217.66 364.193 1217.66 365.74V372H1215.3ZM1211.94 372.14C1211.14 372.14 1210.44 372.007 1209.84 371.74C1209.24 371.46 1208.78 371.08 1208.44 370.6C1208.12 370.107 1207.96 369.553 1207.96 368.94C1207.96 368.34 1208.1 367.8 1208.38 367.32C1208.68 366.84 1209.15 366.46 1209.8 366.18C1210.46 365.9 1211.32 365.76 1212.4 365.76H1215.5V367.42H1212.58C1211.73 367.42 1211.16 367.56 1210.86 367.84C1210.57 368.107 1210.42 368.44 1210.42 368.84C1210.42 369.293 1210.6 369.653 1210.96 369.92C1211.32 370.187 1211.82 370.32 1212.46 370.32C1213.08 370.32 1213.62 370.18 1214.1 369.9C1214.6 369.62 1214.95 369.207 1215.16 368.66L1215.58 370.16C1215.34 370.787 1214.91 371.273 1214.28 371.62C1213.67 371.967 1212.89 372.14 1211.94 372.14ZM1225.73 376.02C1224.75 376.02 1223.78 375.887 1222.83 375.62C1221.9 375.367 1221.13 374.993 1220.53 374.5L1221.65 372.62C1222.12 373.007 1222.71 373.313 1223.41 373.54C1224.13 373.78 1224.86 373.9 1225.59 373.9C1226.77 373.9 1227.63 373.627 1228.17 373.08C1228.72 372.547 1228.99 371.74 1228.99 370.66V368.76L1229.19 366.34L1229.11 363.92V361.32H1231.49V370.38C1231.49 372.313 1231 373.733 1230.01 374.64C1229.03 375.56 1227.6 376.02 1225.73 376.02ZM1225.41 371.52C1224.4 371.52 1223.48 371.307 1222.65 370.88C1221.84 370.44 1221.19 369.833 1220.71 369.06C1220.25 368.287 1220.01 367.38 1220.01 366.34C1220.01 365.313 1220.25 364.413 1220.71 363.64C1221.19 362.867 1221.84 362.267 1222.65 361.84C1223.48 361.413 1224.4 361.2 1225.41 361.2C1226.32 361.2 1227.13 361.38 1227.85 361.74C1228.57 362.1 1229.15 362.66 1229.57 363.42C1230.01 364.18 1230.23 365.153 1230.23 366.34C1230.23 367.527 1230.01 368.507 1229.57 369.28C1229.15 370.04 1228.57 370.607 1227.85 370.98C1227.13 371.34 1226.32 371.52 1225.41 371.52ZM1225.79 369.4C1226.42 369.4 1226.98 369.273 1227.47 369.02C1227.97 368.753 1228.35 368.393 1228.61 367.94C1228.89 367.473 1229.03 366.94 1229.03 366.34C1229.03 365.74 1228.89 365.213 1228.61 364.76C1228.35 364.293 1227.97 363.94 1227.47 363.7C1226.98 363.447 1226.42 363.32 1225.79 363.32C1225.17 363.32 1224.6 363.447 1224.09 363.7C1223.6 363.94 1223.21 364.293 1222.93 364.76C1222.67 365.213 1222.53 365.74 1222.53 366.34C1222.53 366.94 1222.67 367.473 1222.93 367.94C1223.21 368.393 1223.6 368.753 1224.09 369.02C1224.6 369.273 1225.17 369.4 1225.79 369.4ZM1234.78 372V361.32H1237.16V364.26L1236.88 363.4C1237.2 362.68 1237.7 362.133 1238.38 361.76C1239.07 361.387 1239.93 361.2 1240.96 361.2V363.58C1240.85 363.553 1240.75 363.54 1240.66 363.54C1240.57 363.527 1240.47 363.52 1240.38 363.52C1239.43 363.52 1238.68 363.8 1238.12 364.36C1237.56 364.907 1237.28 365.727 1237.28 366.82V372H1234.78ZM1248.9 372V369.84L1248.76 369.38V365.6C1248.76 364.867 1248.54 364.3 1248.1 363.9C1247.66 363.487 1246.99 363.28 1246.1 363.28C1245.5 363.28 1244.9 363.373 1244.32 363.56C1243.74 363.747 1243.26 364.007 1242.86 364.34L1241.88 362.52C1242.45 362.08 1243.13 361.753 1243.92 361.54C1244.72 361.313 1245.54 361.2 1246.4 361.2C1247.94 361.2 1249.14 361.573 1249.98 362.32C1250.83 363.053 1251.26 364.193 1251.26 365.74V372H1248.9ZM1245.54 372.14C1244.74 372.14 1244.04 372.007 1243.44 371.74C1242.84 371.46 1242.37 371.08 1242.04 370.6C1241.72 370.107 1241.56 369.553 1241.56 368.94C1241.56 368.34 1241.7 367.8 1241.98 367.32C1242.27 366.84 1242.74 366.46 1243.4 366.18C1244.05 365.9 1244.92 365.76 1246 365.76H1249.1V367.42H1246.18C1245.32 367.42 1244.75 367.56 1244.46 367.84C1244.16 368.107 1244.02 368.44 1244.02 368.84C1244.02 369.293 1244.2 369.653 1244.56 369.92C1244.92 370.187 1245.42 370.32 1246.06 370.32C1246.67 370.32 1247.22 370.18 1247.7 369.9C1248.19 369.62 1248.54 369.207 1248.76 368.66L1249.18 370.16C1248.94 370.787 1248.5 371.273 1247.88 371.62C1247.26 371.967 1246.48 372.14 1245.54 372.14ZM1267.95 361.2C1268.8 361.2 1269.55 361.367 1270.21 361.7C1270.87 362.033 1271.39 362.547 1271.77 363.24C1272.14 363.92 1272.33 364.8 1272.33 365.88V372H1269.83V366.2C1269.83 365.253 1269.62 364.547 1269.21 364.08C1268.79 363.613 1268.2 363.38 1267.43 363.38C1266.88 363.38 1266.39 363.5 1265.97 363.74C1265.55 363.98 1265.23 364.333 1264.99 364.8C1264.76 365.267 1264.65 365.86 1264.65 366.58V372H1262.15V366.2C1262.15 365.253 1261.94 364.547 1261.53 364.08C1261.11 363.613 1260.52 363.38 1259.75 363.38C1259.2 363.38 1258.71 363.5 1258.29 363.74C1257.87 363.98 1257.55 364.333 1257.31 364.8C1257.08 365.267 1256.97 365.86 1256.97 366.58V372H1254.47V361.32H1256.85V364.16L1256.43 363.32C1256.79 362.627 1257.31 362.1 1257.99 361.74C1258.68 361.38 1259.47 361.2 1260.35 361.2C1261.35 361.2 1262.21 361.447 1262.95 361.94C1263.69 362.433 1264.19 363.18 1264.43 364.18L1263.45 363.84C1263.79 363.04 1264.37 362.4 1265.17 361.92C1265.97 361.44 1266.89 361.2 1267.95 361.2ZM1276.32 364.52C1275.87 364.52 1275.48 364.367 1275.16 364.06C1274.84 363.74 1274.68 363.34 1274.68 362.86C1274.68 362.353 1274.84 361.953 1275.16 361.66C1275.48 361.353 1275.87 361.2 1276.32 361.2C1276.77 361.2 1277.16 361.353 1277.48 361.66C1277.8 361.953 1277.96 362.353 1277.96 362.86C1277.96 363.34 1277.8 363.74 1277.48 364.06C1277.16 364.367 1276.77 364.52 1276.32 364.52ZM1276.32 372.14C1275.87 372.14 1275.48 371.987 1275.16 371.68C1274.84 371.36 1274.68 370.96 1274.68 370.48C1274.68 369.973 1274.84 369.573 1275.16 369.28C1275.48 368.973 1275.87 368.82 1276.32 368.82C1276.77 368.82 1277.16 368.973 1277.48 369.28C1277.8 369.573 1277.96 369.973 1277.96 370.48C1277.96 370.96 1277.8 371.36 1277.48 371.68C1277.16 371.987 1276.77 372.14 1276.32 372.14Z" fill="white"/>
<path d="M1176.97 416.1C1175.2 416.1 1173.59 415.817 1172.14 415.25C1170.69 414.683 1169.44 413.883 1168.39 412.85C1167.34 411.817 1166.53 410.608 1165.97 409.225C1165.4 407.825 1165.12 406.3 1165.12 404.65C1165.12 403 1165.4 401.483 1165.97 400.1C1166.53 398.717 1167.34 397.517 1168.39 396.5C1169.46 395.483 1170.72 394.692 1172.19 394.125C1173.66 393.558 1175.28 393.275 1177.07 393.275C1178.78 393.275 1180.36 393.55 1181.79 394.1C1183.22 394.633 1184.46 395.392 1185.49 396.375C1186.54 397.342 1187.35 398.492 1187.92 399.825C1188.5 401.158 1188.79 402.625 1188.79 404.225C1188.79 405.658 1188.6 406.9 1188.22 407.95C1187.83 408.983 1187.28 409.775 1186.57 410.325C1185.87 410.875 1185.01 411.15 1183.99 411.15C1182.96 411.15 1182.13 410.842 1181.52 410.225C1180.92 409.608 1180.62 408.717 1180.62 407.55V406.125L1180.72 404.7L1180.49 401.45V398.6H1183.27V407.1C1183.27 407.733 1183.39 408.183 1183.64 408.45C1183.91 408.7 1184.22 408.825 1184.57 408.825C1185.02 408.825 1185.4 408.65 1185.72 408.3C1186.03 407.95 1186.27 407.433 1186.42 406.75C1186.58 406.067 1186.67 405.242 1186.67 404.275C1186.67 402.942 1186.43 401.725 1185.97 400.625C1185.52 399.525 1184.86 398.583 1183.99 397.8C1183.14 397 1182.12 396.392 1180.94 395.975C1179.77 395.542 1178.48 395.325 1177.07 395.325C1175.62 395.325 1174.3 395.558 1173.12 396.025C1171.93 396.475 1170.92 397.117 1170.07 397.95C1169.22 398.783 1168.56 399.775 1168.09 400.925C1167.64 402.058 1167.42 403.3 1167.42 404.65C1167.42 406.033 1167.64 407.3 1168.09 408.45C1168.54 409.6 1169.18 410.583 1170.02 411.4C1170.87 412.233 1171.87 412.875 1173.04 413.325C1174.21 413.792 1175.52 414.025 1176.97 414.025C1177.73 414.025 1178.54 413.933 1179.39 413.75C1180.24 413.583 1181.05 413.308 1181.82 412.925L1182.49 414.925C1181.72 415.308 1180.84 415.6 1179.84 415.8C1178.84 416 1177.88 416.1 1176.97 416.1ZM1176.32 411.15C1175.17 411.15 1174.14 410.883 1173.24 410.35C1172.34 409.8 1171.62 409.05 1171.09 408.1C1170.57 407.133 1170.32 406.025 1170.32 404.775C1170.32 403.542 1170.57 402.45 1171.09 401.5C1171.61 400.533 1172.32 399.783 1173.22 399.25C1174.13 398.717 1175.17 398.45 1176.32 398.45C1177.43 398.45 1178.41 398.7 1179.24 399.2C1180.07 399.683 1180.72 400.392 1181.19 401.325C1181.66 402.258 1181.89 403.408 1181.89 404.775C1181.89 406.142 1181.67 407.3 1181.22 408.25C1180.77 409.2 1180.12 409.925 1179.29 410.425C1178.46 410.908 1177.47 411.15 1176.32 411.15ZM1176.84 408.725C1177.56 408.725 1178.19 408.575 1178.74 408.275C1179.29 407.958 1179.72 407.5 1180.04 406.9C1180.37 406.3 1180.54 405.592 1180.54 404.775C1180.54 403.942 1180.37 403.242 1180.04 402.675C1179.72 402.092 1179.29 401.65 1178.74 401.35C1178.19 401.033 1177.56 400.875 1176.84 400.875C1176.11 400.875 1175.46 401.033 1174.89 401.35C1174.34 401.667 1173.91 402.117 1173.59 402.7C1173.29 403.283 1173.14 403.975 1173.14 404.775C1173.14 405.592 1173.29 406.292 1173.59 406.875C1173.91 407.458 1174.34 407.917 1174.89 408.25C1175.46 408.567 1176.11 408.725 1176.84 408.725ZM1192.55 416.025C1191.96 416.025 1191.41 415.958 1190.9 415.825C1190.36 415.708 1189.91 415.517 1189.55 415.25L1190.45 412.925C1190.93 413.275 1191.54 413.45 1192.27 413.45C1192.84 413.45 1193.28 413.267 1193.6 412.9C1193.91 412.55 1194.07 412.025 1194.07 411.325V397.65H1197.2V411.25C1197.2 412.717 1196.79 413.875 1195.97 414.725C1195.17 415.592 1194.03 416.025 1192.55 416.025ZM1195.62 395.45C1195.04 395.45 1194.56 395.267 1194.17 394.9C1193.81 394.533 1193.62 394.092 1193.62 393.575C1193.62 393.042 1193.81 392.6 1194.17 392.25C1194.56 391.883 1195.04 391.7 1195.62 391.7C1196.21 391.7 1196.68 391.875 1197.05 392.225C1197.43 392.558 1197.62 392.983 1197.62 393.5C1197.62 394.05 1197.44 394.517 1197.07 394.9C1196.71 395.267 1196.22 395.45 1195.62 395.45ZM1207.3 411.175C1205.93 411.175 1204.71 410.883 1203.65 410.3C1202.58 409.7 1201.74 408.883 1201.12 407.85C1200.5 406.817 1200.2 405.642 1200.2 404.325C1200.2 402.992 1200.5 401.817 1201.12 400.8C1201.74 399.767 1202.58 398.958 1203.65 398.375C1204.71 397.792 1205.93 397.5 1207.3 397.5C1208.68 397.5 1209.9 397.792 1210.97 398.375C1212.05 398.958 1212.9 399.758 1213.5 400.775C1214.11 401.792 1214.42 402.975 1214.42 404.325C1214.42 405.642 1214.11 406.817 1213.5 407.85C1212.9 408.883 1212.05 409.7 1210.97 410.3C1209.9 410.883 1208.68 411.175 1207.3 411.175ZM1207.3 408.5C1208.06 408.5 1208.75 408.333 1209.35 408C1209.95 407.667 1210.41 407.183 1210.75 406.55C1211.1 405.917 1211.27 405.175 1211.27 404.325C1211.27 403.458 1211.1 402.717 1210.75 402.1C1210.41 401.467 1209.95 400.983 1209.35 400.65C1208.75 400.317 1208.07 400.15 1207.32 400.15C1206.55 400.15 1205.87 400.317 1205.27 400.65C1204.69 400.983 1204.22 401.467 1203.87 402.1C1203.52 402.717 1203.35 403.458 1203.35 404.325C1203.35 405.175 1203.52 405.917 1203.87 406.55C1204.22 407.183 1204.69 407.667 1205.27 408C1205.87 408.333 1206.55 408.5 1207.3 408.5ZM1224.81 411.175C1223.68 411.175 1222.67 410.925 1221.78 410.425C1220.9 409.925 1220.2 409.175 1219.68 408.175C1219.18 407.158 1218.93 405.875 1218.93 404.325C1218.93 402.758 1219.19 401.475 1219.71 400.475C1220.24 399.475 1220.95 398.733 1221.83 398.25C1222.73 397.75 1223.73 397.5 1224.81 397.5C1226.13 397.5 1227.28 397.783 1228.28 398.35C1229.3 398.917 1230.1 399.708 1230.68 400.725C1231.28 401.742 1231.58 402.942 1231.58 404.325C1231.58 405.708 1231.28 406.908 1230.68 407.925C1230.1 408.942 1229.3 409.742 1228.28 410.325C1227.28 410.892 1226.13 411.175 1224.81 411.175ZM1217.41 411V392.45H1220.53V400.75L1220.28 404.3L1220.38 407.85V411H1217.41ZM1224.46 408.5C1225.21 408.5 1225.88 408.333 1226.46 408C1227.06 407.667 1227.53 407.183 1227.88 406.55C1228.23 405.917 1228.41 405.175 1228.41 404.325C1228.41 403.458 1228.23 402.717 1227.88 402.1C1227.53 401.467 1227.06 400.983 1226.46 400.65C1225.88 400.317 1225.21 400.15 1224.46 400.15C1223.71 400.15 1223.03 400.317 1222.43 400.65C1221.83 400.983 1221.36 401.467 1221.01 402.1C1220.66 402.717 1220.48 403.458 1220.48 404.325C1220.48 405.175 1220.66 405.917 1221.01 406.55C1221.36 407.183 1221.83 407.667 1222.43 408C1223.03 408.333 1223.71 408.5 1224.46 408.5ZM1242.6 411V408.3L1242.43 407.725V403C1242.43 402.083 1242.15 401.375 1241.6 400.875C1241.05 400.358 1240.22 400.1 1239.1 400.1C1238.35 400.1 1237.61 400.217 1236.88 400.45C1236.16 400.683 1235.55 401.008 1235.05 401.425L1233.83 399.15C1234.54 398.6 1235.39 398.192 1236.38 397.925C1237.38 397.642 1238.41 397.5 1239.48 397.5C1241.41 397.5 1242.9 397.967 1243.95 398.9C1245.02 399.817 1245.55 401.242 1245.55 403.175V411H1242.6ZM1238.4 411.175C1237.4 411.175 1236.53 411.008 1235.78 410.675C1235.03 410.325 1234.44 409.85 1234.03 409.25C1233.63 408.633 1233.43 407.942 1233.43 407.175C1233.43 406.425 1233.6 405.75 1233.95 405.15C1234.32 404.55 1234.91 404.075 1235.73 403.725C1236.54 403.375 1237.63 403.2 1238.98 403.2H1242.85V405.275H1239.2C1238.13 405.275 1237.42 405.45 1237.05 405.8C1236.68 406.133 1236.5 406.55 1236.5 407.05C1236.5 407.617 1236.73 408.067 1237.18 408.4C1237.63 408.733 1238.25 408.9 1239.05 408.9C1239.82 408.9 1240.5 408.725 1241.1 408.375C1241.72 408.025 1242.16 407.508 1242.43 406.825L1242.95 408.7C1242.65 409.483 1242.11 410.092 1241.33 410.525C1240.56 410.958 1239.58 411.175 1238.4 411.175ZM1249.56 411V392.45H1252.69V411H1249.56ZM1262.91 411.175C1261.51 411.175 1260.26 410.883 1259.16 410.3C1258.08 409.7 1257.23 408.883 1256.61 407.85C1256 406.817 1255.69 405.642 1255.69 404.325C1255.69 402.992 1256 401.817 1256.61 400.8C1257.23 399.767 1258.08 398.958 1259.16 398.375C1260.26 397.792 1261.51 397.5 1262.91 397.5C1264.21 397.5 1265.35 397.767 1266.34 398.3C1267.34 398.817 1268.1 399.583 1268.61 400.6L1266.21 402C1265.81 401.367 1265.32 400.9 1264.74 400.6C1264.17 400.3 1263.55 400.15 1262.89 400.15C1262.12 400.15 1261.43 400.317 1260.81 400.65C1260.2 400.983 1259.71 401.467 1259.36 402.1C1259.01 402.717 1258.84 403.458 1258.84 404.325C1258.84 405.192 1259.01 405.942 1259.36 406.575C1259.71 407.192 1260.2 407.667 1260.81 408C1261.43 408.333 1262.12 408.5 1262.89 408.5C1263.55 408.5 1264.17 408.35 1264.74 408.05C1265.32 407.75 1265.81 407.283 1266.21 406.65L1268.61 408.05C1268.1 409.05 1267.34 409.825 1266.34 410.375C1265.35 410.908 1264.21 411.175 1262.91 411.175ZM1277.12 411.175C1275.75 411.175 1274.54 410.883 1273.47 410.3C1272.4 409.7 1271.56 408.883 1270.94 407.85C1270.33 406.817 1270.02 405.642 1270.02 404.325C1270.02 402.992 1270.33 401.817 1270.94 400.8C1271.56 399.767 1272.4 398.958 1273.47 398.375C1274.54 397.792 1275.75 397.5 1277.12 397.5C1278.5 397.5 1279.73 397.792 1280.79 398.375C1281.88 398.958 1282.72 399.758 1283.32 400.775C1283.94 401.792 1284.24 402.975 1284.24 404.325C1284.24 405.642 1283.94 406.817 1283.32 407.85C1282.72 408.883 1281.88 409.7 1280.79 410.3C1279.73 410.883 1278.5 411.175 1277.12 411.175ZM1277.12 408.5C1277.89 408.5 1278.57 408.333 1279.17 408C1279.77 407.667 1280.24 407.183 1280.57 406.55C1280.92 405.917 1281.09 405.175 1281.09 404.325C1281.09 403.458 1280.92 402.717 1280.57 402.1C1280.24 401.467 1279.77 400.983 1279.17 400.65C1278.57 400.317 1277.89 400.15 1277.14 400.15C1276.38 400.15 1275.69 400.317 1275.09 400.65C1274.51 400.983 1274.04 401.467 1273.69 402.1C1273.34 402.717 1273.17 403.458 1273.17 404.325C1273.17 405.175 1273.34 405.917 1273.69 406.55C1274.04 407.183 1274.51 407.667 1275.09 408C1275.69 408.333 1276.37 408.5 1277.12 408.5ZM1294.81 397.5C1295.87 397.5 1296.82 397.708 1297.66 398.125C1298.51 398.542 1299.17 399.183 1299.66 400.05C1300.14 400.9 1300.38 402 1300.38 403.35V411H1297.26V403.75C1297.26 402.567 1296.97 401.683 1296.41 401.1C1295.86 400.517 1295.08 400.225 1294.08 400.225C1293.35 400.225 1292.7 400.375 1292.13 400.675C1291.57 400.975 1291.12 401.425 1290.81 402.025C1290.51 402.608 1290.36 403.35 1290.36 404.25V411H1287.23V397.65H1290.21V401.25L1289.68 400.15C1290.15 399.3 1290.82 398.65 1291.71 398.2C1292.61 397.733 1293.64 397.5 1294.81 397.5ZM1309.37 411.175C1307.91 411.175 1306.77 410.8 1305.97 410.05C1305.17 409.283 1304.77 408.158 1304.77 406.675V394.7H1307.9V406.6C1307.9 407.233 1308.06 407.725 1308.37 408.075C1308.71 408.425 1309.16 408.6 1309.75 408.6C1310.45 408.6 1311.03 408.417 1311.5 408.05L1312.37 410.275C1312.01 410.575 1311.56 410.8 1311.02 410.95C1310.49 411.1 1309.94 411.175 1309.37 411.175ZM1302.57 400.25V397.75H1311.47V400.25H1302.57ZM1323.17 411V408.3L1322.99 407.725V403C1322.99 402.083 1322.72 401.375 1322.17 400.875C1321.62 400.358 1320.78 400.1 1319.67 400.1C1318.92 400.1 1318.18 400.217 1317.44 400.45C1316.73 400.683 1316.12 401.008 1315.62 401.425L1314.39 399.15C1315.11 398.6 1315.96 398.192 1316.94 397.925C1317.94 397.642 1318.98 397.5 1320.04 397.5C1321.98 397.5 1323.47 397.967 1324.52 398.9C1325.58 399.817 1326.12 401.242 1326.12 403.175V411H1323.17ZM1318.97 411.175C1317.97 411.175 1317.09 411.008 1316.34 410.675C1315.59 410.325 1315.01 409.85 1314.59 409.25C1314.19 408.633 1313.99 407.942 1313.99 407.175C1313.99 406.425 1314.17 405.75 1314.52 405.15C1314.88 404.55 1315.48 404.075 1316.29 403.725C1317.11 403.375 1318.19 403.2 1319.54 403.2H1323.42V405.275H1319.77C1318.7 405.275 1317.98 405.45 1317.62 405.8C1317.25 406.133 1317.07 406.55 1317.07 407.05C1317.07 407.617 1317.29 408.067 1317.74 408.4C1318.19 408.733 1318.82 408.9 1319.62 408.9C1320.38 408.9 1321.07 408.725 1321.67 408.375C1322.28 408.025 1322.73 407.508 1322.99 406.825L1323.52 408.7C1323.22 409.483 1322.68 410.092 1321.89 410.525C1321.13 410.958 1320.15 411.175 1318.97 411.175ZM1337.53 411.175C1336.39 411.175 1335.39 410.925 1334.5 410.425C1333.62 409.925 1332.92 409.175 1332.4 408.175C1331.9 407.158 1331.65 405.875 1331.65 404.325C1331.65 402.758 1331.91 401.475 1332.43 400.475C1332.96 399.475 1333.67 398.733 1334.55 398.25C1335.45 397.75 1336.44 397.5 1337.53 397.5C1338.84 397.5 1340 397.783 1341 398.35C1342.02 398.917 1342.82 399.708 1343.4 400.725C1344 401.742 1344.3 402.942 1344.3 404.325C1344.3 405.708 1344 406.908 1343.4 407.925C1342.82 408.942 1342.02 409.742 1341 410.325C1340 410.892 1338.84 411.175 1337.53 411.175ZM1330.13 411V392.45H1333.25V400.75L1333 404.3L1333.1 407.85V411H1330.13ZM1337.18 408.5C1337.93 408.5 1338.59 408.333 1339.18 408C1339.78 407.667 1340.25 407.183 1340.6 406.55C1340.95 405.917 1341.13 405.175 1341.13 404.325C1341.13 403.458 1340.95 402.717 1340.6 402.1C1340.25 401.467 1339.78 400.983 1339.18 400.65C1338.59 400.317 1337.93 400.15 1337.18 400.15C1336.43 400.15 1335.75 400.317 1335.15 400.65C1334.55 400.983 1334.08 401.467 1333.73 402.1C1333.38 402.717 1333.2 403.458 1333.2 404.325C1333.2 405.175 1333.38 405.917 1333.73 406.55C1334.08 407.183 1334.55 407.667 1335.15 408C1335.75 408.333 1336.43 408.5 1337.18 408.5ZM1347.27 411V397.65H1350.39V411H1347.27ZM1348.84 395.45C1348.26 395.45 1347.78 395.267 1347.39 394.9C1347.03 394.533 1346.84 394.092 1346.84 393.575C1346.84 393.042 1347.03 392.6 1347.39 392.25C1347.78 391.883 1348.26 391.7 1348.84 391.7C1349.43 391.7 1349.9 391.875 1350.27 392.225C1350.65 392.558 1350.84 392.983 1350.84 393.5C1350.84 394.05 1350.66 394.517 1350.29 394.9C1349.93 395.267 1349.44 395.45 1348.84 395.45ZM1354.49 411V392.45H1357.62V411H1354.49ZM1361.72 411V397.65H1364.84V411H1361.72ZM1363.29 395.45C1362.71 395.45 1362.23 395.267 1361.84 394.9C1361.48 394.533 1361.29 394.092 1361.29 393.575C1361.29 393.042 1361.48 392.6 1361.84 392.25C1362.23 391.883 1362.71 391.7 1363.29 391.7C1363.88 391.7 1364.35 391.875 1364.72 392.225C1365.1 392.558 1365.29 392.983 1365.29 393.5C1365.29 394.05 1365.11 394.517 1364.74 394.9C1364.38 395.267 1363.89 395.45 1363.29 395.45ZM1374.6 411.175C1373.31 411.175 1372.15 410.892 1371.12 410.325C1370.1 409.742 1369.3 408.942 1368.72 407.925C1368.14 406.908 1367.85 405.708 1367.85 404.325C1367.85 402.942 1368.14 401.742 1368.72 400.725C1369.3 399.708 1370.1 398.917 1371.12 398.35C1372.15 397.783 1373.31 397.5 1374.6 397.5C1375.71 397.5 1376.71 397.75 1377.6 398.25C1378.48 398.733 1379.18 399.475 1379.7 400.475C1380.21 401.475 1380.47 402.758 1380.47 404.325C1380.47 405.875 1380.22 407.158 1379.72 408.175C1379.22 409.175 1378.53 409.925 1377.65 410.425C1376.76 410.925 1375.75 411.175 1374.6 411.175ZM1374.97 408.5C1375.72 408.5 1376.39 408.333 1376.97 408C1377.57 407.667 1378.05 407.183 1378.4 406.55C1378.76 405.917 1378.95 405.175 1378.95 404.325C1378.95 403.458 1378.76 402.717 1378.4 402.1C1378.05 401.467 1377.57 400.983 1376.97 400.65C1376.39 400.317 1375.72 400.15 1374.97 400.15C1374.22 400.15 1373.55 400.317 1372.95 400.65C1372.36 400.983 1371.89 401.467 1371.52 402.1C1371.17 402.717 1371 403.458 1371 404.325C1371 405.175 1371.17 405.917 1371.52 406.55C1371.89 407.183 1372.36 407.667 1372.95 408C1373.55 408.333 1374.22 408.5 1374.97 408.5ZM1379.02 411V407.85L1379.15 404.3L1378.9 400.75V392.45H1382V411H1379.02ZM1394.33 411V408.3L1394.16 407.725V403C1394.16 402.083 1393.88 401.375 1393.33 400.875C1392.78 400.358 1391.95 400.1 1390.83 400.1C1390.08 400.1 1389.34 400.217 1388.61 400.45C1387.89 400.683 1387.28 401.008 1386.78 401.425L1385.56 399.15C1386.28 398.6 1387.13 398.192 1388.11 397.925C1389.11 397.642 1390.14 397.5 1391.21 397.5C1393.14 397.5 1394.63 397.967 1395.68 398.9C1396.75 399.817 1397.28 401.242 1397.28 403.175V411H1394.33ZM1390.13 411.175C1389.13 411.175 1388.26 411.008 1387.51 410.675C1386.76 410.325 1386.18 409.85 1385.76 409.25C1385.36 408.633 1385.16 407.942 1385.16 407.175C1385.16 406.425 1385.33 405.75 1385.68 405.15C1386.05 404.55 1386.64 404.075 1387.46 403.725C1388.28 403.375 1389.36 403.2 1390.71 403.2H1394.58V405.275H1390.93C1389.87 405.275 1389.15 405.45 1388.78 405.8C1388.42 406.133 1388.23 406.55 1388.23 407.05C1388.23 407.617 1388.46 408.067 1388.91 408.4C1389.36 408.733 1389.98 408.9 1390.78 408.9C1391.55 408.9 1392.23 408.725 1392.83 408.375C1393.45 408.025 1393.89 407.508 1394.16 406.825L1394.68 408.7C1394.38 409.483 1393.84 410.092 1393.06 410.525C1392.29 410.958 1391.32 411.175 1390.13 411.175ZM1406.97 411.175C1405.69 411.175 1404.53 410.892 1403.49 410.325C1402.48 409.742 1401.68 408.942 1401.09 407.925C1400.51 406.908 1400.22 405.708 1400.22 404.325C1400.22 402.942 1400.51 401.742 1401.09 400.725C1401.68 399.708 1402.48 398.917 1403.49 398.35C1404.53 397.783 1405.69 397.5 1406.97 397.5C1408.09 397.5 1409.09 397.75 1409.97 398.25C1410.85 398.733 1411.55 399.475 1412.07 400.475C1412.59 401.475 1412.84 402.758 1412.84 404.325C1412.84 405.875 1412.59 407.158 1412.09 408.175C1411.59 409.175 1410.9 409.925 1410.02 410.425C1409.14 410.925 1408.12 411.175 1406.97 411.175ZM1407.34 408.5C1408.09 408.5 1408.76 408.333 1409.34 408C1409.94 407.667 1410.42 407.183 1410.77 406.55C1411.14 405.917 1411.32 405.175 1411.32 404.325C1411.32 403.458 1411.14 402.717 1410.77 402.1C1410.42 401.467 1409.94 400.983 1409.34 400.65C1408.76 400.317 1408.09 400.15 1407.34 400.15C1406.59 400.15 1405.92 400.317 1405.32 400.65C1404.74 400.983 1404.26 401.467 1403.89 402.1C1403.54 402.717 1403.37 403.458 1403.37 404.325C1403.37 405.175 1403.54 405.917 1403.89 406.55C1404.26 407.183 1404.74 407.667 1405.32 408C1405.92 408.333 1406.59 408.5 1407.34 408.5ZM1411.39 411V407.85L1411.52 404.3L1411.27 400.75V392.45H1414.37V411H1411.39ZM1424.76 411.175C1423.27 411.175 1421.97 410.883 1420.86 410.3C1419.76 409.7 1418.9 408.883 1418.28 407.85C1417.68 406.817 1417.38 405.642 1417.38 404.325C1417.38 402.992 1417.67 401.817 1418.26 400.8C1418.86 399.767 1419.67 398.958 1420.71 398.375C1421.76 397.792 1422.95 397.5 1424.28 397.5C1425.58 397.5 1426.74 397.783 1427.76 398.35C1428.77 398.917 1429.57 399.717 1430.16 400.75C1430.74 401.783 1431.03 403 1431.03 404.4C1431.03 404.533 1431.02 404.683 1431.01 404.85C1431.01 405.017 1431 405.175 1430.98 405.325H1419.86V403.25H1429.33L1428.11 403.9C1428.12 403.133 1427.97 402.458 1427.63 401.875C1427.3 401.292 1426.84 400.833 1426.26 400.5C1425.69 400.167 1425.03 400 1424.28 400C1423.52 400 1422.84 400.167 1422.26 400.5C1421.69 400.833 1421.24 401.3 1420.91 401.9C1420.59 402.483 1420.43 403.175 1420.43 403.975V404.475C1420.43 405.275 1420.62 405.983 1420.98 406.6C1421.35 407.217 1421.87 407.692 1422.53 408.025C1423.2 408.358 1423.97 408.525 1424.83 408.525C1425.58 408.525 1426.26 408.408 1426.86 408.175C1427.46 407.942 1427.99 407.575 1428.46 407.075L1430.13 409C1429.53 409.7 1428.77 410.242 1427.86 410.625C1426.96 410.992 1425.92 411.175 1424.76 411.175Z" fill="white"/>
<path d="M1169.49 307V317H1164.69V289.8H1173.77C1176.52 289.8 1178.62 290.507 1180.09 291.92C1181.58 293.307 1182.33 295.173 1182.33 297.52V299.24C1182.33 300.787 1182 302.147 1181.33 303.32C1180.66 304.493 1179.7 305.387 1178.45 306C1180.64 309.733 1182.5 313.4 1184.05 317H1178.57C1177.24 313.667 1175.65 310.333 1173.81 307H1169.49ZM1173.77 294.2H1169.49V302.6H1173.77C1174.94 302.6 1175.84 302.307 1176.45 301.72C1177.09 301.107 1177.41 300.28 1177.41 299.24V297.52C1177.41 296.507 1177.09 295.707 1176.45 295.12C1175.84 294.507 1174.94 294.2 1173.77 294.2ZM1203.86 315.84C1202.48 316.4 1201.17 316.8 1199.94 317.04C1198.72 317.28 1197.56 317.4 1196.46 317.4C1193.45 317.4 1191.17 316.547 1189.62 314.84C1188.08 313.133 1187.3 310.867 1187.3 308.04V305.64C1187.3 303.747 1187.65 302.107 1188.34 300.72C1189.04 299.333 1190.02 298.253 1191.3 297.48C1192.58 296.707 1194.09 296.32 1195.82 296.32C1197.24 296.32 1198.56 296.613 1199.78 297.2C1201.04 297.76 1202.05 298.653 1202.82 299.88C1203.62 301.08 1204.02 302.627 1204.02 304.52C1204.02 305.08 1203.98 305.68 1203.9 306.32C1203.82 306.933 1203.69 307.587 1203.5 308.28H1191.74C1191.8 309.933 1192.21 311.173 1192.98 312C1193.76 312.827 1195 313.24 1196.7 313.24C1197.61 313.24 1198.54 313.133 1199.5 312.92C1200.49 312.707 1201.5 312.387 1202.54 311.96L1203.86 315.84ZM1195.82 300.2C1194.6 300.2 1193.64 300.6 1192.94 301.4C1192.28 302.173 1191.89 303.293 1191.78 304.76H1199.46C1199.49 304.627 1199.5 304.507 1199.5 304.4C1199.5 304.267 1199.5 304.147 1199.5 304.04C1199.5 302.76 1199.14 301.8 1198.42 301.16C1197.7 300.52 1196.84 300.2 1195.82 300.2ZM1221.2 317V314.24C1219.98 315.467 1218.91 316.307 1218 316.76C1217.12 317.187 1216.2 317.4 1215.24 317.4C1213.06 317.4 1211.35 316.573 1210.12 314.92C1208.92 313.267 1208.32 310.947 1208.32 307.96V305.8C1208.32 302.893 1209.06 300.587 1210.52 298.88C1211.99 297.173 1214.11 296.32 1216.88 296.32C1217.58 296.32 1218.26 296.387 1218.92 296.52C1219.62 296.653 1220.3 296.84 1220.96 297.08V287.4H1225.56V317H1221.2ZM1213.04 307.96C1213.04 309.747 1213.34 311.053 1213.92 311.88C1214.54 312.707 1215.39 313.12 1216.48 313.12C1217.1 313.12 1217.75 312.947 1218.44 312.6C1219.14 312.227 1219.98 311.533 1220.96 310.52V301.24C1219.66 300.707 1218.46 300.44 1217.36 300.44C1215.82 300.44 1214.71 300.92 1214.04 301.88C1213.38 302.84 1213.04 304.147 1213.04 305.8V307.96ZM1247.3 315.84C1245.92 316.4 1244.61 316.8 1243.38 317.04C1242.16 317.28 1241 317.4 1239.9 317.4C1236.89 317.4 1234.61 316.547 1233.06 314.84C1231.52 313.133 1230.74 310.867 1230.74 308.04V305.64C1230.74 303.747 1231.09 302.107 1231.78 300.72C1232.48 299.333 1233.46 298.253 1234.74 297.48C1236.02 296.707 1237.53 296.32 1239.26 296.32C1240.68 296.32 1242 296.613 1243.22 297.2C1244.48 297.76 1245.49 298.653 1246.26 299.88C1247.06 301.08 1247.46 302.627 1247.46 304.52C1247.46 305.08 1247.42 305.68 1247.34 306.32C1247.26 306.933 1247.13 307.587 1246.94 308.28H1235.18C1235.24 309.933 1235.65 311.173 1236.42 312C1237.2 312.827 1238.44 313.24 1240.14 313.24C1241.05 313.24 1241.98 313.133 1242.94 312.92C1243.93 312.707 1244.94 312.387 1245.98 311.96L1247.3 315.84ZM1239.26 300.2C1238.04 300.2 1237.08 300.6 1236.38 301.4C1235.72 302.173 1235.33 303.293 1235.22 304.76H1242.9C1242.93 304.627 1242.94 304.507 1242.94 304.4C1242.94 304.267 1242.94 304.147 1242.94 304.04C1242.94 302.76 1242.58 301.8 1241.86 301.16C1241.14 300.52 1240.28 300.2 1239.26 300.2ZM1258.44 313.4C1259.43 313.4 1260.24 313.24 1260.88 312.92C1261.52 312.573 1261.84 312.067 1261.84 311.4C1261.84 310.813 1261.63 310.36 1261.2 310.04C1260.8 309.693 1260.07 309.387 1259 309.12L1256.72 308.52C1254.96 308.067 1253.65 307.307 1252.8 306.24C1251.97 305.173 1251.56 303.907 1251.56 302.44C1251.56 300.707 1252.16 299.253 1253.36 298.08C1254.56 296.907 1256.41 296.32 1258.92 296.32C1259.93 296.32 1261 296.44 1262.12 296.68C1263.24 296.92 1264.41 297.307 1265.64 297.84L1264.32 301.76C1263.2 301.227 1262.19 300.853 1261.28 300.64C1260.37 300.427 1259.57 300.32 1258.88 300.32C1256.99 300.32 1256.04 300.96 1256.04 302.24C1256.04 302.747 1256.2 303.147 1256.52 303.44C1256.87 303.733 1257.49 304 1258.4 304.24L1260.68 304.84C1262.63 305.347 1264.04 306.12 1264.92 307.16C1265.83 308.2 1266.28 309.507 1266.28 311.08C1266.28 312.947 1265.64 314.467 1264.36 315.64C1263.11 316.813 1261.12 317.4 1258.4 317.4C1256.08 317.4 1253.64 316.867 1251.08 315.8L1252.32 312C1253.57 312.507 1254.71 312.867 1255.72 313.08C1256.73 313.293 1257.64 313.4 1258.44 313.4ZM1285.53 312.96C1288.62 312.96 1290.17 311.813 1290.17 309.52C1290.17 308.587 1289.93 307.853 1289.45 307.32C1289 306.787 1288.14 306.32 1286.89 305.92L1283.61 304.84C1279.69 303.56 1277.73 300.987 1277.73 297.12C1277.73 294.88 1278.42 293.04 1279.81 291.6C1281.22 290.133 1283.42 289.4 1286.41 289.4C1287.66 289.4 1288.9 289.547 1290.13 289.84C1291.36 290.107 1292.66 290.547 1294.05 291.16L1292.57 295.28C1291.29 294.773 1290.2 294.413 1289.29 294.2C1288.41 293.96 1287.5 293.84 1286.57 293.84C1285.34 293.84 1284.37 294.067 1283.65 294.52C1282.96 294.947 1282.61 295.733 1282.61 296.88C1282.61 297.733 1282.85 298.44 1283.33 299C1283.84 299.533 1284.66 299.987 1285.81 300.36L1289.09 301.44C1291.06 302.107 1292.54 303.08 1293.53 304.36C1294.54 305.613 1295.05 307.28 1295.05 309.36C1295.05 311.76 1294.29 313.707 1292.77 315.2C1291.25 316.667 1288.86 317.4 1285.61 317.4C1284.33 317.4 1283 317.253 1281.61 316.96C1280.25 316.64 1278.76 316.107 1277.13 315.36L1278.61 311.24C1280.1 311.88 1281.37 312.333 1282.41 312.6C1283.48 312.84 1284.52 312.96 1285.53 312.96ZM1316.31 305.64V308.04C1316.31 310.867 1315.54 313.133 1313.99 314.84C1312.45 316.547 1310.26 317.4 1307.43 317.4C1304.61 317.4 1302.42 316.547 1300.87 314.84C1299.33 313.133 1298.55 310.867 1298.55 308.04V305.64C1298.55 302.813 1299.31 300.56 1300.83 298.88C1302.38 297.173 1304.58 296.32 1307.43 296.32C1310.29 296.32 1312.47 297.173 1313.99 298.88C1315.54 300.56 1316.31 302.813 1316.31 305.64ZM1311.59 305.64C1311.59 304.013 1311.23 302.747 1310.51 301.84C1309.79 300.907 1308.77 300.44 1307.43 300.44C1306.1 300.44 1305.07 300.907 1304.35 301.84C1303.63 302.747 1303.27 304.013 1303.27 305.64V308.04C1303.27 309.667 1303.63 310.947 1304.35 311.88C1305.07 312.813 1306.1 313.28 1307.43 313.28C1308.77 313.28 1309.79 312.813 1310.51 311.88C1311.23 310.947 1311.59 309.667 1311.59 308.04V305.64ZM1324.99 305.68V308.04C1324.99 309.747 1325.3 311.027 1325.91 311.88C1326.53 312.733 1327.51 313.16 1328.87 313.16C1329.54 313.16 1330.29 313.08 1331.11 312.92C1331.97 312.733 1332.89 312.453 1333.87 312.08L1335.19 315.96C1333.99 316.44 1332.86 316.8 1331.79 317.04C1330.73 317.28 1329.67 317.4 1328.63 317.4C1325.97 317.4 1323.93 316.547 1322.51 314.84C1321.1 313.133 1320.39 310.867 1320.39 308.04V305.68C1320.39 302.827 1321.1 300.56 1322.51 298.88C1323.93 297.173 1325.97 296.32 1328.63 296.32C1329.65 296.32 1330.67 296.44 1331.71 296.68C1332.75 296.92 1333.85 297.267 1334.99 297.72L1333.67 301.68C1331.75 300.933 1330.15 300.56 1328.87 300.56C1327.51 300.56 1326.53 300.987 1325.91 301.84C1325.3 302.667 1324.99 303.947 1324.99 305.68ZM1344.12 292.88H1339.28V288.12H1344.12V292.88ZM1344 317H1339.4V296.72H1344V317ZM1365.7 317.2C1364.34 317.2 1363.25 316.92 1362.42 316.36C1361.62 315.8 1361.03 315.107 1360.66 314.28C1359.51 315.347 1358.41 316.133 1357.34 316.64C1356.27 317.147 1355.13 317.4 1353.9 317.4C1352.11 317.4 1350.79 316.827 1349.94 315.68C1349.11 314.533 1348.7 313.08 1348.7 311.32C1348.7 310.147 1348.91 309.12 1349.34 308.24C1349.79 307.333 1350.53 306.627 1351.54 306.12C1352.55 305.613 1353.94 305.36 1355.7 305.36C1356.39 305.36 1357.11 305.413 1357.86 305.52C1358.61 305.6 1359.35 305.707 1360.1 305.84V303.48C1360.1 302.36 1359.79 301.6 1359.18 301.2C1358.57 300.773 1357.74 300.56 1356.7 300.56C1355.9 300.56 1355.02 300.667 1354.06 300.88C1353.13 301.093 1352.11 301.427 1351.02 301.88L1349.7 297.96C1352.39 296.867 1354.83 296.32 1357.02 296.32C1358.99 296.32 1360.51 296.653 1361.58 297.32C1362.67 297.987 1363.43 298.867 1363.86 299.96C1364.29 301.053 1364.5 302.227 1364.5 303.48V311.28C1364.5 311.68 1364.61 312.067 1364.82 312.44C1365.06 312.787 1365.51 312.96 1366.18 312.96H1366.62V317.2H1365.7ZM1353.14 311.24C1353.14 311.96 1353.3 312.533 1353.62 312.96C1353.94 313.36 1354.41 313.56 1355.02 313.56C1355.63 313.56 1356.33 313.4 1357.1 313.08C1357.87 312.76 1358.87 312.013 1360.1 310.84V309.12C1358.71 308.88 1357.35 308.76 1356.02 308.76C1354.98 308.76 1354.23 308.973 1353.78 309.4C1353.35 309.827 1353.14 310.44 1353.14 311.24ZM1375.33 292.88H1370.49V288.12H1375.33V292.88ZM1375.21 317H1370.61V296.72H1375.21V317ZM1387.23 313.4C1388.22 313.4 1389.03 313.24 1389.67 312.92C1390.31 312.573 1390.63 312.067 1390.63 311.4C1390.63 310.813 1390.42 310.36 1389.99 310.04C1389.59 309.693 1388.86 309.387 1387.79 309.12L1385.51 308.52C1383.75 308.067 1382.44 307.307 1381.59 306.24C1380.76 305.173 1380.35 303.907 1380.35 302.44C1380.35 300.707 1380.95 299.253 1382.15 298.08C1383.35 296.907 1385.2 296.32 1387.71 296.32C1388.72 296.32 1389.79 296.44 1390.91 296.68C1392.03 296.92 1393.2 297.307 1394.43 297.84L1393.11 301.76C1391.99 301.227 1390.98 300.853 1390.07 300.64C1389.16 300.427 1388.36 300.32 1387.67 300.32C1385.78 300.32 1384.83 300.96 1384.83 302.24C1384.83 302.747 1384.99 303.147 1385.31 303.44C1385.66 303.733 1386.28 304 1387.19 304.24L1389.47 304.84C1391.42 305.347 1392.83 306.12 1393.71 307.16C1394.62 308.2 1395.07 309.507 1395.07 311.08C1395.07 312.947 1394.43 314.467 1393.15 315.64C1391.9 316.813 1389.91 317.4 1387.19 317.4C1384.87 317.4 1382.43 316.867 1379.87 315.8L1381.11 312C1382.36 312.507 1383.5 312.867 1384.51 313.08C1385.52 313.293 1386.43 313.4 1387.23 313.4ZM1403.27 301.48H1398.43V296.72H1403.27V301.48ZM1403.27 317H1398.43V312.24H1403.27V317Z" fill="white"/>
<path d="M280.925 261.95H307.9V269.75H292.625V276.51H305.495V283.53H292.625V291.07H307.835V299H280.925V261.95ZM341.201 270.985C341.591 271.462 341.873 272.653 342.046 274.56C342.263 276.467 342.371 279.37 342.371 283.27V299H331.256V283.4V280.735C331.256 279.348 331.148 278.482 330.931 278.135C330.585 277.702 329.783 277.485 328.526 277.485C327.92 277.485 327.465 277.507 327.161 277.55C325.948 277.593 324.691 277.875 323.391 278.395V299H312.276V269.1H321.311L322.546 274.105C325.666 270.335 329.393 268.45 333.726 268.45C335.286 268.45 336.738 268.667 338.081 269.1C339.468 269.533 340.508 270.162 341.201 270.985ZM361.286 286.715C361.286 287.495 361.307 288.318 361.351 289.185C361.394 290.008 361.524 290.528 361.741 290.745C362.044 291.048 363.106 291.2 364.926 291.2L367.136 291.135C367.526 293.215 367.721 295.62 367.721 298.35C366.897 298.653 365.684 298.935 364.081 299.195C362.521 299.455 361.026 299.585 359.596 299.585C356.606 299.585 354.287 298.935 352.641 297.635C351.037 296.292 350.236 294.233 350.236 291.46V275.47H345.361V269.555L350.236 269.1L353.161 261.95L361.286 261.495V269.1H368.176V275.47H361.286V286.715ZM390.025 268.45C390.588 268.45 391.173 268.515 391.78 268.645C392.43 268.775 392.907 268.927 393.21 269.1C393.21 270.053 393.102 271.635 392.885 273.845C392.668 276.012 392.473 277.55 392.3 278.46C391.867 278.417 391.065 278.395 389.895 278.395C387.165 278.395 384.738 278.547 382.615 278.85V299H371.5V269.1H380.795L382.095 273.91H382.16C383.417 272.263 384.76 270.942 386.19 269.945C387.62 268.948 388.898 268.45 390.025 268.45ZM414.264 291.2C415.347 291.2 417.362 291.092 420.309 290.875C420.699 290.875 421.414 290.832 422.454 290.745L423.429 297.44C420.092 299 415.759 299.78 410.429 299.78C405.446 299.78 401.611 298.523 398.924 296.01C396.281 293.497 394.959 289.705 394.959 284.635C394.959 282.035 395.284 279.522 395.934 277.095C396.627 274.668 397.407 272.978 398.274 272.025C399.184 271.072 400.874 270.248 403.344 269.555C405.814 268.862 408.262 268.515 410.689 268.515C414.589 268.515 417.514 269.208 419.464 270.595C421.414 271.982 422.692 273.91 423.299 276.38C423.906 278.807 424.209 282.078 424.209 286.195C421.262 286.368 418.381 286.455 415.564 286.455H406.334C406.334 287.842 406.616 288.882 407.179 289.575C407.786 290.268 408.631 290.723 409.714 290.94C410.797 291.113 412.314 291.2 414.264 291.2ZM406.984 276.25C406.724 276.38 406.529 276.943 406.399 277.94C406.269 278.937 406.182 280.063 406.139 281.32H409.519C411.556 281.32 413.029 281.298 413.939 281.255C413.939 279.175 413.636 277.702 413.029 276.835C412.466 275.968 411.469 275.535 410.039 275.535C408.869 275.535 407.851 275.773 406.984 276.25ZM456.031 291.2C457.115 291.2 459.13 291.092 462.076 290.875C462.466 290.875 463.181 290.832 464.221 290.745L465.196 297.44C461.86 299 457.526 299.78 452.196 299.78C447.213 299.78 443.378 298.523 440.691 296.01C438.048 293.497 436.726 289.705 436.726 284.635C436.726 282.035 437.051 279.522 437.701 277.095C438.395 274.668 439.175 272.978 440.041 272.025C440.951 271.072 442.641 270.248 445.111 269.555C447.581 268.862 450.03 268.515 452.456 268.515C456.356 268.515 459.281 269.208 461.231 270.595C463.181 271.982 464.46 273.91 465.066 276.38C465.673 278.807 465.976 282.078 465.976 286.195C463.03 286.368 460.148 286.455 457.331 286.455H448.101C448.101 287.842 448.383 288.882 448.946 289.575C449.553 290.268 450.398 290.723 451.481 290.94C452.565 291.113 454.081 291.2 456.031 291.2ZM448.751 276.25C448.491 276.38 448.296 276.943 448.166 277.94C448.036 278.937 447.95 280.063 447.906 281.32H451.286C453.323 281.32 454.796 281.298 455.706 281.255C455.706 279.175 455.403 277.702 454.796 276.835C454.233 275.968 453.236 275.535 451.806 275.535C450.636 275.535 449.618 275.773 448.751 276.25ZM516.624 271.18C517.317 272.22 517.664 276.25 517.664 283.27V299H506.549V284.375V280.865C506.549 279.262 506.397 278.308 506.094 278.005C505.747 277.658 505.01 277.485 503.884 277.485L503.104 277.55C501.76 277.637 500.482 277.94 499.269 278.46C499.312 279.37 499.334 280.973 499.334 283.27V299H488.219V284.375V280.475C488.219 279.132 488.067 278.308 487.764 278.005C487.417 277.658 486.68 277.485 485.554 277.485L484.774 277.55C483.56 277.593 482.304 277.875 481.004 278.395V299H469.889V269.1H478.924L480.094 273.975C481.524 272.068 483.17 270.682 485.034 269.815C486.897 268.905 488.782 268.45 490.689 268.45C492.292 268.45 493.809 268.688 495.239 269.165C496.712 269.642 497.73 270.313 498.294 271.18C498.554 271.57 498.77 272.285 498.944 273.325C500.33 271.635 501.912 270.4 503.689 269.62C505.465 268.84 507.242 268.45 509.019 268.45C510.622 268.45 512.139 268.688 513.569 269.165C515.042 269.642 516.06 270.313 516.624 271.18Z" fill="#F1F2F4"/>
<path d="M557.758 298.09C554.248 299.26 550.327 299.845 545.993 299.845C541.14 299.845 537.5 298.632 535.073 296.205C532.69 293.735 531.498 289.9 531.498 284.7C531.498 282.143 531.845 279.63 532.538 277.16C533.232 274.647 533.968 272.957 534.748 272.09C535.658 271.093 537.435 270.248 540.078 269.555C542.765 268.862 545.538 268.515 548.398 268.515C551.388 268.515 554.4 268.775 557.433 269.295C557.347 270.378 557.195 271.657 556.978 273.13C556.805 274.56 556.61 275.838 556.393 276.965C553.707 276.792 551.172 276.705 548.788 276.705C546.448 276.705 544.953 276.835 544.303 277.095C543.957 277.225 543.632 278.113 543.328 279.76C543.068 281.407 542.938 282.945 542.938 284.375C542.938 286.282 543.198 287.755 543.718 288.795C544.282 289.792 545.148 290.485 546.318 290.875C547.488 291.265 549.07 291.46 551.063 291.46C551.93 291.46 553.837 291.373 556.783 291.2L557.758 298.09ZM575.915 299.845C570.715 299.845 566.815 298.632 564.215 296.205C561.659 293.735 560.38 289.857 560.38 284.57C560.38 281.667 560.64 279.132 561.16 276.965C561.724 274.755 562.395 273.217 563.175 272.35C564.172 271.223 565.992 270.292 568.635 269.555C571.322 268.818 573.835 268.45 576.175 268.45C581.765 268.45 585.752 269.642 588.135 272.025C590.519 274.408 591.71 278.222 591.71 283.465C591.71 289.098 590.432 293.237 587.875 295.88C585.319 298.523 581.332 299.845 575.915 299.845ZM576.11 292.24C577.8 292.24 578.905 291.655 579.425 290.485C579.945 289.272 580.205 287.148 580.205 284.115C580.205 281.992 580.097 280.367 579.88 279.24C579.664 278.07 579.252 277.225 578.645 276.705C578.082 276.142 577.194 275.86 575.98 275.86C574.247 275.86 573.25 276.012 572.99 276.315C572.644 276.618 572.362 277.572 572.145 279.175C571.929 280.778 571.82 282.447 571.82 284.18C571.82 287.127 572.102 289.207 572.665 290.42C573.272 291.633 574.42 292.24 576.11 292.24ZM624.878 270.985C625.268 271.462 625.55 272.653 625.723 274.56C625.94 276.467 626.048 279.37 626.048 283.27V299H614.933V283.4V280.735C614.933 279.348 614.825 278.482 614.608 278.135C614.261 277.702 613.46 277.485 612.203 277.485C611.596 277.485 611.141 277.507 610.838 277.55C609.625 277.593 608.368 277.875 607.068 278.395V299H595.953V269.1H604.988L606.223 274.105C609.343 270.335 613.07 268.45 617.403 268.45C618.963 268.45 620.415 268.667 621.758 269.1C623.145 269.533 624.185 270.162 624.878 270.985ZM644.963 286.715C644.963 287.495 644.984 288.318 645.028 289.185C645.071 290.008 645.201 290.528 645.418 290.745C645.721 291.048 646.783 291.2 648.603 291.2L650.813 291.135C651.203 293.215 651.398 295.62 651.398 298.35C650.574 298.653 649.361 298.935 647.758 299.195C646.198 299.455 644.703 299.585 643.273 299.585C640.283 299.585 637.964 298.935 636.318 297.635C634.714 296.292 633.913 294.233 633.913 291.46V275.47H629.038V269.555L633.913 269.1L636.838 261.95L644.963 261.495V269.1H651.853V275.47H644.963V286.715ZM672.987 299L671.947 294.905C669.953 298.155 667.18 299.78 663.627 299.78C660.723 299.78 658.34 298.978 656.477 297.375C654.657 295.728 653.747 293.432 653.747 290.485C653.747 288.665 654.267 287.083 655.307 285.74C656.39 284.353 657.863 283.378 659.727 282.815C662.153 282.122 665.902 281.732 670.972 281.645C670.972 278.785 670.842 277.268 670.582 277.095C670.365 276.922 669.672 276.835 668.502 276.835C667.765 276.835 666.747 276.878 665.447 276.965C663.367 277.052 660.55 277.29 656.997 277.68C656.65 275.34 656.39 272.827 656.217 270.14C658.513 269.663 660.918 269.273 663.432 268.97C665.945 268.623 668.198 268.45 670.192 268.45C673.658 268.45 676.258 269.035 677.992 270.205C679.725 271.332 680.852 272.827 681.372 274.69C681.892 276.553 682.13 278.915 682.087 281.775L682.022 291.33L682.217 299H672.987ZM667.397 292.5C668.523 292.5 669.715 292.283 670.972 291.85V287.04H670.452C667.245 287.04 665.468 287.213 665.122 287.56C664.905 287.777 664.732 288.102 664.602 288.535C664.515 288.968 664.472 289.38 664.472 289.77C664.472 290.81 664.71 291.525 665.187 291.915C665.663 292.305 666.4 292.5 667.397 292.5ZM700.885 286.715C700.885 287.495 700.907 288.318 700.95 289.185C700.994 290.008 701.124 290.528 701.34 290.745C701.644 291.048 702.705 291.2 704.525 291.2L706.735 291.135C707.125 293.215 707.32 295.62 707.32 298.35C706.497 298.653 705.284 298.935 703.68 299.195C702.12 299.455 700.625 299.585 699.195 299.585C696.205 299.585 693.887 298.935 692.24 297.635C690.637 296.292 689.835 294.233 689.835 291.46V275.47H684.96V269.555L689.835 269.1L692.76 261.95L700.885 261.495V269.1H707.775V275.47H700.885V286.715ZM725.53 299.845C720.33 299.845 716.43 298.632 713.83 296.205C711.273 293.735 709.995 289.857 709.995 284.57C709.995 281.667 710.255 279.132 710.775 276.965C711.338 274.755 712.01 273.217 712.79 272.35C713.786 271.223 715.606 270.292 718.25 269.555C720.936 268.818 723.45 268.45 725.79 268.45C731.38 268.45 735.366 269.642 737.75 272.025C740.133 274.408 741.325 278.222 741.325 283.465C741.325 289.098 740.046 293.237 737.49 295.88C734.933 298.523 730.946 299.845 725.53 299.845ZM725.725 292.24C727.415 292.24 728.52 291.655 729.04 290.485C729.56 289.272 729.82 287.148 729.82 284.115C729.82 281.992 729.711 280.367 729.495 279.24C729.278 278.07 728.866 277.225 728.26 276.705C727.696 276.142 726.808 275.86 725.595 275.86C723.861 275.86 722.865 276.012 722.605 276.315C722.258 276.618 721.976 277.572 721.76 279.175C721.543 280.778 721.435 282.447 721.435 284.18C721.435 287.127 721.716 289.207 722.28 290.42C722.886 291.633 724.035 292.24 725.725 292.24Z" fill="#FED579"/>
<path d="M309.82 365.09C306.31 366.26 302.388 366.845 298.055 366.845C293.202 366.845 289.562 365.632 287.135 363.205C284.752 360.735 283.56 356.9 283.56 351.7C283.56 349.143 283.907 346.63 284.6 344.16C285.293 341.647 286.03 339.957 286.81 339.09C287.72 338.093 289.497 337.248 292.14 336.555C294.827 335.862 297.6 335.515 300.46 335.515C303.45 335.515 306.462 335.775 309.495 336.295C309.408 337.378 309.257 338.657 309.04 340.13C308.867 341.56 308.672 342.838 308.455 343.965C305.768 343.792 303.233 343.705 300.85 343.705C298.51 343.705 297.015 343.835 296.365 344.095C296.018 344.225 295.693 345.113 295.39 346.76C295.13 348.407 295 349.945 295 351.375C295 353.282 295.26 354.755 295.78 355.795C296.343 356.792 297.21 357.485 298.38 357.875C299.55 358.265 301.132 358.46 303.125 358.46C303.992 358.46 305.898 358.373 308.845 358.2L309.82 365.09ZM327.977 366.845C322.777 366.845 318.877 365.632 316.277 363.205C313.72 360.735 312.442 356.857 312.442 351.57C312.442 348.667 312.702 346.132 313.222 343.965C313.785 341.755 314.457 340.217 315.237 339.35C316.234 338.223 318.054 337.292 320.697 336.555C323.384 335.818 325.897 335.45 328.237 335.45C333.827 335.45 337.814 336.642 340.197 339.025C342.58 341.408 343.772 345.222 343.772 350.465C343.772 356.098 342.494 360.237 339.937 362.88C337.38 365.523 333.394 366.845 327.977 366.845ZM328.172 359.24C329.862 359.24 330.967 358.655 331.487 357.485C332.007 356.272 332.267 354.148 332.267 351.115C332.267 348.992 332.159 347.367 331.942 346.24C331.725 345.07 331.314 344.225 330.707 343.705C330.144 343.142 329.255 342.86 328.042 342.86C326.309 342.86 325.312 343.012 325.052 343.315C324.705 343.618 324.424 344.572 324.207 346.175C323.99 347.778 323.882 349.447 323.882 351.18C323.882 354.127 324.164 356.207 324.727 357.42C325.334 358.633 326.482 359.24 328.172 359.24ZM376.94 337.985C377.33 338.462 377.611 339.653 377.785 341.56C378.001 343.467 378.11 346.37 378.11 350.27V366H366.995V350.4V347.735C366.995 346.348 366.886 345.482 366.67 345.135C366.323 344.702 365.521 344.485 364.265 344.485C363.658 344.485 363.203 344.507 362.9 344.55C361.686 344.593 360.43 344.875 359.13 345.395V366H348.015V336.1H357.05L358.285 341.105C361.405 337.335 365.131 335.45 369.465 335.45C371.025 335.45 372.476 335.667 373.82 336.1C375.206 336.533 376.246 337.162 376.94 337.985ZM397.674 366.845C392.474 366.845 388.574 365.632 385.974 363.205C383.417 360.735 382.139 356.857 382.139 351.57C382.139 348.667 382.399 346.132 382.919 343.965C383.482 341.755 384.154 340.217 384.934 339.35C385.931 338.223 387.751 337.292 390.394 336.555C393.081 335.818 395.594 335.45 397.934 335.45C403.524 335.45 407.511 336.642 409.894 339.025C412.277 341.408 413.469 345.222 413.469 350.465C413.469 356.098 412.191 360.237 409.634 362.88C407.077 365.523 403.091 366.845 397.674 366.845ZM397.869 359.24C399.559 359.24 400.664 358.655 401.184 357.485C401.704 356.272 401.964 354.148 401.964 351.115C401.964 348.992 401.856 347.367 401.639 346.24C401.422 345.07 401.011 344.225 400.404 343.705C399.841 343.142 398.952 342.86 397.739 342.86C396.006 342.86 395.009 343.012 394.749 343.315C394.402 343.618 394.121 344.572 393.904 346.175C393.687 347.778 393.579 349.447 393.579 351.18C393.579 354.127 393.861 356.207 394.424 357.42C395.031 358.633 396.179 359.24 397.869 359.24ZM441.892 355.86C441.892 359.717 440.657 362.49 438.187 364.18C435.76 365.87 432.294 366.715 427.787 366.715C424.624 366.715 420.984 366.26 416.867 365.35C416.954 364.483 417.149 363.248 417.452 361.645C417.799 359.998 418.08 358.742 418.297 357.875C419.857 358.135 421.59 358.352 423.497 358.525C425.404 358.655 427.029 358.72 428.372 358.72C429.542 358.72 430.257 358.655 430.517 358.525C430.56 358.482 430.604 358.373 430.647 358.2C430.734 357.983 430.777 357.767 430.777 357.55C430.777 356.683 430.235 356.098 429.152 355.795C428.805 355.708 427.484 355.34 425.187 354.69C422.89 354.04 421.005 352.87 419.532 351.18C418.102 349.447 417.387 347.302 417.387 344.745C417.387 343.402 417.69 341.907 418.297 340.26C418.904 338.613 419.554 337.573 420.247 337.14C420.767 336.793 422.024 336.447 424.017 336.1C426.01 335.71 427.852 335.515 429.542 335.515C433.139 335.515 436.757 335.775 440.397 336.295C440.397 337.075 440.289 338.397 440.072 340.26C439.855 342.08 439.66 343.228 439.487 343.705C435.804 343.228 432.835 342.99 430.582 342.99C429.412 342.99 428.654 343.055 428.307 343.185C428.22 343.228 428.134 343.358 428.047 343.575C427.96 343.748 427.917 343.987 427.917 344.29C427.917 344.897 428.112 345.33 428.502 345.59C428.892 345.893 429.91 346.262 431.557 346.695C433.507 347.258 435.175 347.843 436.562 348.45C437.992 349.057 439.227 349.967 440.267 351.18C441.35 352.393 441.892 353.953 441.892 355.86ZM470.733 365.09C467.223 366.26 463.301 366.845 458.968 366.845C454.115 366.845 450.475 365.632 448.048 363.205C445.665 360.735 444.473 356.9 444.473 351.7C444.473 349.143 444.82 346.63 445.513 344.16C446.206 341.647 446.943 339.957 447.723 339.09C448.633 338.093 450.41 337.248 453.053 336.555C455.74 335.862 458.513 335.515 461.373 335.515C464.363 335.515 467.375 335.775 470.408 336.295C470.321 337.378 470.17 338.657 469.953 340.13C469.78 341.56 469.585 342.838 469.368 343.965C466.681 343.792 464.146 343.705 461.763 343.705C459.423 343.705 457.928 343.835 457.278 344.095C456.931 344.225 456.606 345.113 456.303 346.76C456.043 348.407 455.913 349.945 455.913 351.375C455.913 353.282 456.173 354.755 456.693 355.795C457.256 356.792 458.123 357.485 459.293 357.875C460.463 358.265 462.045 358.46 464.038 358.46C464.905 358.46 466.811 358.373 469.758 358.2L470.733 365.09ZM488.89 366.845C483.69 366.845 479.79 365.632 477.19 363.205C474.633 360.735 473.355 356.857 473.355 351.57C473.355 348.667 473.615 346.132 474.135 343.965C474.698 341.755 475.37 340.217 476.15 339.35C477.147 338.223 478.967 337.292 481.61 336.555C484.297 335.818 486.81 335.45 489.15 335.45C494.74 335.45 498.727 336.642 501.11 339.025C503.493 341.408 504.685 345.222 504.685 350.465C504.685 356.098 503.407 360.237 500.85 362.88C498.293 365.523 494.307 366.845 488.89 366.845ZM489.085 359.24C490.775 359.24 491.88 358.655 492.4 357.485C492.92 356.272 493.18 354.148 493.18 351.115C493.18 348.992 493.072 347.367 492.855 346.24C492.638 345.07 492.227 344.225 491.62 343.705C491.057 343.142 490.168 342.86 488.955 342.86C487.222 342.86 486.225 343.012 485.965 343.315C485.618 343.618 485.337 344.572 485.12 346.175C484.903 347.778 484.795 349.447 484.795 351.18C484.795 354.127 485.077 356.207 485.64 357.42C486.247 358.633 487.395 359.24 489.085 359.24ZM510.618 351.31C510.531 347.757 510.228 340.563 509.708 329.73L509.513 325.245L520.043 324.66C520.086 325.527 520.108 326.805 520.108 328.495C520.108 333.002 519.891 338.332 519.458 344.485C519.284 347.258 519.176 349.035 519.133 349.815C517.053 350.985 514.323 351.592 510.943 351.635L510.618 351.31ZM514.713 366.39C513.283 366.39 512.091 365.935 511.138 365.025C510.228 364.072 509.773 362.793 509.773 361.19C509.773 359.803 510.249 358.633 511.203 357.68C512.199 356.727 513.413 356.25 514.843 356.25C516.229 356.25 517.378 356.727 518.288 357.68C519.241 358.633 519.718 359.803 519.718 361.19C519.718 362.793 519.263 364.072 518.353 365.025C517.443 365.935 516.229 366.39 514.713 366.39Z" fill="#F1F2F4"/>
<rect x="-1" y="-41" width="1680" height="791" fill="#0C243E"/>
<path d="M1487.2 -36.3079C1485.63 -7.49005 1475.26 142.043 1337.4 256.905C1187.33 381.601 1003.69 366.806 975.398 363.921C1027.08 373.031 1207.03 410.615 1347.56 562.943C1485.09 711.82 1496.88 875.065 1498.31 923.757C1495.64 888.135 1487.85 724.455 1619.53 578.045C1753.97 428.175 1937.3 404.522 1975.08 400.379C1945.51 400.38 1741.53 398.579 1599.89 246.518C1492.92 131.527 1487.56 1.48533 1487.2 -36.3079Z" fill="#0C2745"/>
<g filter="url(#filter0_dd_1_2)">
<path d="M-8 235C310.993 -29.1213 1251.58 -17.8018 1682 20.8731V-325H-8V235Z" fill="#28609D"/>
</g>
</g>
<defs>
<filter id="filter0_dd_1_2" x="-12" y="-1140.01" width="1706" height="1383.01" filterUnits="userSpaceOnUse" color-interpolation-filters="sRGB">
<feFlood flood-opacity="0" result="BackgroundImageFix"/>
<feColorMatrix in="SourceAlpha" type="matrix" values="0 0 0 0 0 0 0 0 0 0 0 0 0 0 0 0 0 0 127 0" result="hardAlpha"/>
<feOffset dy="4"/>
<feGaussianBlur stdDeviation="2"/>
<feComposite in2="hardAlpha" operator="out"/>
<feColorMatrix type="matrix" values="0 0 0 0 0 0 0 0 0 0 0 0 0 0 0 0 0 0 0.25 0"/>
<feBlend mode="normal" in2="BackgroundImageFix" result="effect1_dropShadow_1_2"/>
<feColorMatrix in="SourceAlpha" type="matrix" values="0 0 0 0 0 0 0 0 0 0 0 0 0 0 0 0 0 0 127 0" result="hardAlpha"/>
<feOffset dy="4"/>
<feGaussianBlur stdDeviation="2"/>
<feComposite in2="hardAlpha" operator="out"/>
<feColorMatrix type="matrix" values="0 0 0 0 0 0 0 0 0 0 0 0 0 0 0 0 0 0 0.25 0"/>
<feBlend mode="normal" in2="effect1_dropShadow_1_2" result="effect2_dropShadow_1_2"/>
<feBlend mode="normal" in="SourceGraphic" in2="effect2_dropShadow_1_2" result="shape"/>
</filter>
<clipPath id="clip0_1_2">
<rect width="1680" height="7995" fill="white" transform="translate(0 -6970)"/>
</clipPath>
</defs>
</svg>
