<svg width="100" height="92" viewBox="0 0 100 92" fill="none" xmlns="http://www.w3.org/2000/svg">
<path d="M16.6667 92C12.037 92 8.10185 90.6583 4.86111 87.975C1.62037 85.2917 0 82.0333 0 78.2V64.4H16.6667V0L25 6.9L33.3333 0L41.6667 6.9L50 0L58.3333 6.9L66.6667 0L75 6.9L83.3333 0L91.6667 6.9L100 0V78.2C100 82.0333 98.3796 85.2917 95.1389 87.975C91.8982 90.6583 87.963 92 83.3333 92H16.6667ZM83.3333 82.8C84.9074 82.8 86.2269 82.3592 87.2917 81.4775C88.3565 80.5958 88.8889 79.5033 88.8889 78.2V13.8H27.7778V64.4H77.7778V78.2C77.7778 79.5033 78.3102 80.5958 79.375 81.4775C80.4398 82.3592 81.7593 82.8 83.3333 82.8ZM33.3333 32.2V23H66.6667V32.2H33.3333ZM33.3333 46V36.8H66.6667V46H33.3333ZM77.7778 32.2C76.2037 32.2 74.8843 31.7592 73.8195 30.8775C72.7546 29.9958 72.2222 28.9033 72.2222 27.6C72.2222 26.2967 72.7546 25.2042 73.8195 24.3225C74.8843 23.4408 76.2037 23 77.7778 23C79.3519 23 80.6713 23.4408 81.7361 24.3225C82.8009 25.2042 83.3333 26.2967 83.3333 27.6C83.3333 28.9033 82.8009 29.9958 81.7361 30.8775C80.6713 31.7592 79.3519 32.2 77.7778 32.2ZM77.7778 46C76.2037 46 74.8843 45.5592 73.8195 44.6775C72.7546 43.7958 72.2222 42.7033 72.2222 41.4C72.2222 40.0967 72.7546 39.0042 73.8195 38.1225C74.8843 37.2408 76.2037 36.8 77.7778 36.8C79.3519 36.8 80.6713 37.2408 81.7361 38.1225C82.8009 39.0042 83.3333 40.0967 83.3333 41.4C83.3333 42.7033 82.8009 43.7958 81.7361 44.6775C80.6713 45.5592 79.3519 46 77.7778 46ZM16.6667 82.8H66.6667V73.6H11.1111V78.2C11.1111 79.5033 11.6435 80.5958 12.7083 81.4775C13.7731 82.3592 15.0926 82.8 16.6667 82.8Z" fill="#0C243E"/>
</svg>
