<svg width="66" height="89" viewBox="0 0 66 89" fill="none" xmlns="http://www.w3.org/2000/svg">
<path d="M0 40.4545V8.09091C0 5.86591 0.923214 3.96117 2.76964 2.3767C4.61607 0.792235 6.83571 0 9.42857 0H56.5714C59.1643 0 61.3839 0.792235 63.2304 2.3767C65.0768 3.96117 66 5.86591 66 8.09091V80.9091C66 83.1341 65.0768 85.0388 63.2304 86.6233C61.3839 88.2078 59.1643 89 56.5714 89V20.2273H9.42857V40.4545H0ZM0 89V80.9091C2.59286 80.9091 4.8125 81.7013 6.65893 83.2858C8.50536 84.8703 9.42857 86.775 9.42857 89H0ZM18.8571 89C18.8571 84.55 17.0107 80.7405 13.3179 77.5716C9.625 74.4027 5.18571 72.8182 0 72.8182V64.7273C7.85714 64.7273 14.5357 67.0871 20.0357 71.8068C25.5357 76.5265 28.2857 82.2576 28.2857 89H18.8571ZM37.7143 89C37.7143 79.9652 34.0607 72.3125 26.7536 66.042C19.4464 59.7716 10.5286 56.6364 0 56.6364V48.5455C6.52143 48.5455 12.65 49.6074 18.3857 51.7313C24.1214 53.8551 29.1107 56.7375 33.3536 60.3784C37.5964 64.0193 40.9554 68.3008 43.4304 73.2227C45.9054 78.1447 47.1429 83.4038 47.1429 89H37.7143ZM9.42857 12.1364H56.5714V8.09091H9.42857V12.1364Z" fill="#0C243E"/>
</svg>
